<svg xmlns="http://www.w3.org/2000/svg" xmlns:xlink="http://www.w3.org/1999/xlink" width="500" zoomAndPan="magnify" viewBox="0 0 375 374.999991" height="500" preserveAspectRatio="xMidYMid meet" version="1.0"><defs><g/><clipPath id="c9ea5cb766"><path d="M 20 127 L 120 127 L 120 227 L 20 227 Z M 20 127 " clip-rule="nonzero"/></clipPath><clipPath id="46a99565ed"><path d="M 79.792969 246.574219 L 0.421875 187.402344 L 59.597656 108.03125 L 138.964844 167.207031 Z M 79.792969 246.574219 " clip-rule="nonzero"/></clipPath><clipPath id="451075bca9"><path d="M 79.792969 246.574219 L 0.421875 187.402344 L 59.597656 108.03125 L 138.964844 167.207031 Z M 79.792969 246.574219 " clip-rule="nonzero"/></clipPath><clipPath id="60feeb48d6"><path d="M 30.007812 147.714844 C 30.980469 146.417969 32.007812 145.167969 33.101562 143.96875 C 34.191406 142.769531 35.339844 141.628906 36.542969 140.542969 C 37.75 139.457031 39.003906 138.433594 40.308594 137.46875 C 41.613281 136.507812 42.960938 135.613281 44.351562 134.78125 C 45.746094 133.953125 47.175781 133.191406 48.644531 132.503906 C 50.109375 131.8125 51.609375 131.199219 53.136719 130.65625 C 54.664062 130.113281 56.214844 129.648438 57.789062 129.257812 C 59.359375 128.867188 60.949219 128.554688 62.554688 128.320312 C 64.160156 128.085938 65.769531 127.933594 67.390625 127.855469 C 69.007812 127.78125 70.628906 127.785156 72.246094 127.867188 C 73.867188 127.953125 75.476562 128.117188 77.082031 128.355469 C 78.683594 128.597656 80.269531 128.917969 81.84375 129.316406 C 83.414062 129.714844 84.960938 130.1875 86.488281 130.738281 C 88.011719 131.289062 89.507812 131.914062 90.96875 132.609375 C 92.433594 133.304688 93.859375 134.074219 95.25 134.910156 C 96.636719 135.746094 97.980469 136.648438 99.28125 137.617188 C 100.582031 138.585938 101.828125 139.617188 103.027344 140.710938 C 104.226562 141.800781 105.367188 142.949219 106.453125 144.152344 C 107.539062 145.355469 108.566406 146.613281 109.527344 147.917969 C 110.488281 149.21875 111.386719 150.570312 112.214844 151.960938 C 113.046875 153.355469 113.804688 154.785156 114.496094 156.25 C 115.183594 157.71875 115.800781 159.214844 116.34375 160.746094 C 116.886719 162.273438 117.351562 163.824219 117.742188 165.394531 C 118.132812 166.96875 118.441406 168.558594 118.675781 170.164062 C 118.910156 171.765625 119.066406 173.378906 119.140625 175 C 119.214844 176.617188 119.210938 178.238281 119.128906 179.855469 C 119.042969 181.476562 118.882812 183.085938 118.640625 184.6875 C 118.398438 186.292969 118.078125 187.878906 117.679688 189.453125 C 117.28125 191.023438 116.808594 192.570312 116.257812 194.097656 C 115.707031 195.621094 115.085938 197.117188 114.386719 198.578125 C 113.691406 200.042969 112.925781 201.46875 112.085938 202.859375 C 111.25 204.246094 110.347656 205.589844 109.378906 206.890625 C 108.410156 208.191406 107.378906 209.4375 106.289062 210.636719 C 105.195312 211.835938 104.046875 212.976562 102.84375 214.0625 C 101.640625 215.148438 100.386719 216.171875 99.082031 217.136719 C 97.777344 218.097656 96.429688 218.996094 95.035156 219.824219 C 93.644531 220.65625 92.214844 221.414062 90.746094 222.105469 C 89.277344 222.792969 87.78125 223.410156 86.253906 223.953125 C 84.726562 224.492188 83.175781 224.960938 81.601562 225.351562 C 80.027344 225.738281 78.4375 226.050781 76.835938 226.285156 C 75.230469 226.519531 73.617188 226.675781 72 226.75 C 70.378906 226.824219 68.761719 226.820312 67.140625 226.738281 C 65.523438 226.652344 63.910156 226.492188 62.308594 226.25 C 60.707031 226.007812 59.117188 225.6875 57.546875 225.289062 C 55.976562 224.890625 54.425781 224.417969 52.902344 223.867188 C 51.375 223.316406 49.882812 222.695312 48.417969 221.996094 C 46.953125 221.300781 45.527344 220.535156 44.140625 219.695312 C 42.75 218.859375 41.40625 217.957031 40.105469 216.988281 C 38.808594 216.019531 37.558594 214.988281 36.359375 213.898438 C 35.160156 212.804688 34.019531 211.65625 32.933594 210.453125 C 31.847656 209.25 30.824219 207.996094 29.863281 206.691406 C 28.898438 205.386719 28.003906 204.039062 27.171875 202.644531 C 26.34375 201.253906 25.582031 199.820312 24.894531 198.355469 C 24.203125 196.886719 23.589844 195.390625 23.046875 193.863281 C 22.503906 192.335938 22.039062 190.785156 21.648438 189.210938 C 21.257812 187.636719 20.945312 186.046875 20.710938 184.445312 C 20.476562 182.839844 20.324219 181.226562 20.246094 179.609375 C 20.171875 177.988281 20.175781 176.371094 20.261719 174.75 C 20.34375 173.132812 20.507812 171.519531 20.75 169.917969 C 20.992188 168.3125 21.308594 166.726562 21.707031 165.15625 C 22.105469 163.582031 22.578125 162.035156 23.128906 160.511719 C 23.679688 158.984375 24.304688 157.492188 25 156.027344 C 25.695312 154.5625 26.464844 153.136719 27.300781 151.75 C 28.136719 150.359375 29.039062 149.015625 30.007812 147.714844 Z M 30.007812 147.714844 " clip-rule="nonzero"/></clipPath><linearGradient x1="1745.263419" gradientTransform="matrix(0.461214, -0.618622, 0.618622, 0.461214, -928.128083, 1199.600371)" y1="244.834" x2="1924.88853" gradientUnits="userSpaceOnUse" y2="244.834" id="87de86b138"><stop stop-opacity="1" stop-color="rgb(76.899719%, 0%, 100%)" offset="0"/><stop stop-opacity="1" stop-color="rgb(76.899719%, 0%, 100%)" offset="0.125"/><stop stop-opacity="1" stop-color="rgb(76.899719%, 0%, 100%)" offset="0.140625"/><stop stop-opacity="1" stop-color="rgb(76.654053%, 0.497437%, 100%)" offset="0.144531"/><stop stop-opacity="1" stop-color="rgb(76.408386%, 0.996399%, 100%)" offset="0.148438"/><stop stop-opacity="1" stop-color="rgb(76.063538%, 1.695251%, 100%)" offset="0.152344"/><stop stop-opacity="1" stop-color="rgb(75.718689%, 2.39563%, 100%)" offset="0.15625"/><stop stop-opacity="1" stop-color="rgb(75.37384%, 3.094482%, 100%)" offset="0.160156"/><stop stop-opacity="1" stop-color="rgb(75.030518%, 3.793335%, 100%)" offset="0.164063"/><stop stop-opacity="1" stop-color="rgb(74.685669%, 4.492188%, 100%)" offset="0.167969"/><stop stop-opacity="1" stop-color="rgb(74.34082%, 5.192566%, 100%)" offset="0.171875"/><stop stop-opacity="1" stop-color="rgb(73.995972%, 5.891418%, 100%)" offset="0.175781"/><stop stop-opacity="1" stop-color="rgb(73.652649%, 6.591797%, 100%)" offset="0.179688"/><stop stop-opacity="1" stop-color="rgb(73.3078%, 7.290649%, 100%)" offset="0.183594"/><stop stop-opacity="1" stop-color="rgb(72.962952%, 7.989502%, 100%)" offset="0.1875"/><stop stop-opacity="1" stop-color="rgb(72.618103%, 8.688354%, 100%)" offset="0.191406"/><stop stop-opacity="1" stop-color="rgb(72.27478%, 9.388733%, 100%)" offset="0.195313"/><stop stop-opacity="1" stop-color="rgb(71.929932%, 10.087585%, 100%)" offset="0.199219"/><stop stop-opacity="1" stop-color="rgb(71.585083%, 10.786438%, 100%)" offset="0.203125"/><stop stop-opacity="1" stop-color="rgb(71.240234%, 11.485291%, 100%)" offset="0.207031"/><stop stop-opacity="1" stop-color="rgb(70.895386%, 12.185669%, 100%)" offset="0.210938"/><stop stop-opacity="1" stop-color="rgb(70.550537%, 12.884521%, 100%)" offset="0.214844"/><stop stop-opacity="1" stop-color="rgb(70.207214%, 13.5849%, 100%)" offset="0.21875"/><stop stop-opacity="1" stop-color="rgb(69.862366%, 14.283752%, 100%)" offset="0.222656"/><stop stop-opacity="1" stop-color="rgb(69.517517%, 14.982605%, 100%)" offset="0.226563"/><stop stop-opacity="1" stop-color="rgb(69.172668%, 15.681458%, 100%)" offset="0.230469"/><stop stop-opacity="1" stop-color="rgb(68.829346%, 16.381836%, 100%)" offset="0.234375"/><stop stop-opacity="1" stop-color="rgb(68.484497%, 17.080688%, 100%)" offset="0.238281"/><stop stop-opacity="1" stop-color="rgb(68.139648%, 17.781067%, 100%)" offset="0.242188"/><stop stop-opacity="1" stop-color="rgb(67.7948%, 18.479919%, 100%)" offset="0.246094"/><stop stop-opacity="1" stop-color="rgb(67.451477%, 19.178772%, 100%)" offset="0.25"/><stop stop-opacity="1" stop-color="rgb(67.106628%, 19.877625%, 100%)" offset="0.253906"/><stop stop-opacity="1" stop-color="rgb(66.76178%, 20.578003%, 100%)" offset="0.257812"/><stop stop-opacity="1" stop-color="rgb(66.416931%, 21.276855%, 100%)" offset="0.261719"/><stop stop-opacity="1" stop-color="rgb(66.073608%, 21.975708%, 100%)" offset="0.265625"/><stop stop-opacity="1" stop-color="rgb(65.72876%, 22.674561%, 100%)" offset="0.269531"/><stop stop-opacity="1" stop-color="rgb(65.383911%, 23.374939%, 100%)" offset="0.273438"/><stop stop-opacity="1" stop-color="rgb(65.039062%, 24.073792%, 100%)" offset="0.277344"/><stop stop-opacity="1" stop-color="rgb(64.69574%, 24.77417%, 100%)" offset="0.28125"/><stop stop-opacity="1" stop-color="rgb(64.350891%, 25.473022%, 100%)" offset="0.285156"/><stop stop-opacity="1" stop-color="rgb(64.006042%, 26.171875%, 100%)" offset="0.289062"/><stop stop-opacity="1" stop-color="rgb(63.661194%, 26.870728%, 100%)" offset="0.292969"/><stop stop-opacity="1" stop-color="rgb(63.316345%, 27.571106%, 100%)" offset="0.296875"/><stop stop-opacity="1" stop-color="rgb(62.971497%, 28.269958%, 100%)" offset="0.300781"/><stop stop-opacity="1" stop-color="rgb(62.628174%, 28.970337%, 100%)" offset="0.304688"/><stop stop-opacity="1" stop-color="rgb(62.283325%, 29.669189%, 100%)" offset="0.308594"/><stop stop-opacity="1" stop-color="rgb(61.938477%, 30.368042%, 100%)" offset="0.3125"/><stop stop-opacity="1" stop-color="rgb(61.593628%, 31.066895%, 100%)" offset="0.316406"/><stop stop-opacity="1" stop-color="rgb(61.250305%, 31.767273%, 100%)" offset="0.320312"/><stop stop-opacity="1" stop-color="rgb(60.905457%, 32.466125%, 100%)" offset="0.324219"/><stop stop-opacity="1" stop-color="rgb(60.560608%, 33.164978%, 100%)" offset="0.328125"/><stop stop-opacity="1" stop-color="rgb(60.215759%, 33.863831%, 100%)" offset="0.332031"/><stop stop-opacity="1" stop-color="rgb(59.872437%, 34.564209%, 100%)" offset="0.335938"/><stop stop-opacity="1" stop-color="rgb(59.527588%, 35.263062%, 100%)" offset="0.339844"/><stop stop-opacity="1" stop-color="rgb(59.182739%, 35.96344%, 100%)" offset="0.34375"/><stop stop-opacity="1" stop-color="rgb(58.837891%, 36.662292%, 100%)" offset="0.347656"/><stop stop-opacity="1" stop-color="rgb(58.494568%, 37.361145%, 100%)" offset="0.351562"/><stop stop-opacity="1" stop-color="rgb(58.149719%, 38.059998%, 100%)" offset="0.355469"/><stop stop-opacity="1" stop-color="rgb(57.804871%, 38.760376%, 100%)" offset="0.359375"/><stop stop-opacity="1" stop-color="rgb(57.460022%, 39.459229%, 100%)" offset="0.363281"/><stop stop-opacity="1" stop-color="rgb(57.116699%, 40.159607%, 100%)" offset="0.367188"/><stop stop-opacity="1" stop-color="rgb(56.771851%, 40.858459%, 100%)" offset="0.371094"/><stop stop-opacity="1" stop-color="rgb(56.427002%, 41.557312%, 100%)" offset="0.375"/><stop stop-opacity="1" stop-color="rgb(56.082153%, 42.256165%, 100%)" offset="0.378906"/><stop stop-opacity="1" stop-color="rgb(55.738831%, 42.956543%, 100%)" offset="0.382812"/><stop stop-opacity="1" stop-color="rgb(55.393982%, 43.655396%, 100%)" offset="0.386719"/><stop stop-opacity="1" stop-color="rgb(55.049133%, 44.354248%, 100%)" offset="0.390625"/><stop stop-opacity="1" stop-color="rgb(54.704285%, 45.053101%, 100%)" offset="0.394531"/><stop stop-opacity="1" stop-color="rgb(54.359436%, 45.753479%, 100%)" offset="0.398438"/><stop stop-opacity="1" stop-color="rgb(54.014587%, 46.452332%, 100%)" offset="0.402344"/><stop stop-opacity="1" stop-color="rgb(53.671265%, 47.15271%, 100%)" offset="0.40625"/><stop stop-opacity="1" stop-color="rgb(53.326416%, 47.851562%, 100%)" offset="0.410156"/><stop stop-opacity="1" stop-color="rgb(52.981567%, 48.550415%, 100%)" offset="0.414062"/><stop stop-opacity="1" stop-color="rgb(52.636719%, 49.249268%, 100%)" offset="0.417969"/><stop stop-opacity="1" stop-color="rgb(52.293396%, 49.949646%, 100%)" offset="0.421875"/><stop stop-opacity="1" stop-color="rgb(51.948547%, 50.648499%, 100%)" offset="0.425781"/><stop stop-opacity="1" stop-color="rgb(51.603699%, 51.348877%, 100%)" offset="0.429688"/><stop stop-opacity="1" stop-color="rgb(51.25885%, 52.047729%, 100%)" offset="0.433594"/><stop stop-opacity="1" stop-color="rgb(50.915527%, 52.746582%, 100%)" offset="0.4375"/><stop stop-opacity="1" stop-color="rgb(50.570679%, 53.445435%, 100%)" offset="0.441406"/><stop stop-opacity="1" stop-color="rgb(50.22583%, 54.145813%, 100%)" offset="0.445312"/><stop stop-opacity="1" stop-color="rgb(49.880981%, 54.844666%, 100%)" offset="0.449219"/><stop stop-opacity="1" stop-color="rgb(49.537659%, 55.543518%, 100%)" offset="0.453125"/><stop stop-opacity="1" stop-color="rgb(49.19281%, 56.242371%, 100%)" offset="0.457031"/><stop stop-opacity="1" stop-color="rgb(48.847961%, 56.942749%, 100%)" offset="0.460938"/><stop stop-opacity="1" stop-color="rgb(48.503113%, 57.641602%, 100%)" offset="0.464844"/><stop stop-opacity="1" stop-color="rgb(48.15979%, 58.34198%, 100%)" offset="0.46875"/><stop stop-opacity="1" stop-color="rgb(47.814941%, 59.040833%, 100%)" offset="0.472656"/><stop stop-opacity="1" stop-color="rgb(47.470093%, 59.739685%, 100%)" offset="0.476562"/><stop stop-opacity="1" stop-color="rgb(47.125244%, 60.438538%, 100%)" offset="0.480469"/><stop stop-opacity="1" stop-color="rgb(46.781921%, 61.138916%, 100%)" offset="0.484375"/><stop stop-opacity="1" stop-color="rgb(46.437073%, 61.837769%, 100%)" offset="0.488281"/><stop stop-opacity="1" stop-color="rgb(46.092224%, 62.538147%, 100%)" offset="0.492188"/><stop stop-opacity="1" stop-color="rgb(45.747375%, 63.237%, 100%)" offset="0.496094"/><stop stop-opacity="1" stop-color="rgb(45.402527%, 63.935852%, 100%)" offset="0.5"/><stop stop-opacity="1" stop-color="rgb(45.057678%, 64.634705%, 100%)" offset="0.503906"/><stop stop-opacity="1" stop-color="rgb(44.714355%, 65.335083%, 100%)" offset="0.507812"/><stop stop-opacity="1" stop-color="rgb(44.369507%, 66.033936%, 100%)" offset="0.511719"/><stop stop-opacity="1" stop-color="rgb(44.024658%, 66.732788%, 100%)" offset="0.515625"/><stop stop-opacity="1" stop-color="rgb(43.67981%, 67.431641%, 100%)" offset="0.519531"/><stop stop-opacity="1" stop-color="rgb(43.336487%, 68.132019%, 100%)" offset="0.523438"/><stop stop-opacity="1" stop-color="rgb(42.991638%, 68.830872%, 100%)" offset="0.527344"/><stop stop-opacity="1" stop-color="rgb(42.64679%, 69.53125%, 100%)" offset="0.53125"/><stop stop-opacity="1" stop-color="rgb(42.301941%, 70.230103%, 100%)" offset="0.535156"/><stop stop-opacity="1" stop-color="rgb(41.958618%, 70.928955%, 100%)" offset="0.539062"/><stop stop-opacity="1" stop-color="rgb(41.61377%, 71.627808%, 100%)" offset="0.542969"/><stop stop-opacity="1" stop-color="rgb(41.268921%, 72.328186%, 100%)" offset="0.546875"/><stop stop-opacity="1" stop-color="rgb(40.924072%, 73.027039%, 100%)" offset="0.550781"/><stop stop-opacity="1" stop-color="rgb(40.58075%, 73.727417%, 100%)" offset="0.554688"/><stop stop-opacity="1" stop-color="rgb(40.235901%, 74.42627%, 100%)" offset="0.558594"/><stop stop-opacity="1" stop-color="rgb(39.891052%, 75.125122%, 100%)" offset="0.5625"/><stop stop-opacity="1" stop-color="rgb(39.546204%, 75.823975%, 100%)" offset="0.566406"/><stop stop-opacity="1" stop-color="rgb(39.202881%, 76.524353%, 100%)" offset="0.570312"/><stop stop-opacity="1" stop-color="rgb(38.858032%, 77.223206%, 100%)" offset="0.574219"/><stop stop-opacity="1" stop-color="rgb(38.513184%, 77.923584%, 100%)" offset="0.578125"/><stop stop-opacity="1" stop-color="rgb(38.168335%, 78.622437%, 100%)" offset="0.582031"/><stop stop-opacity="1" stop-color="rgb(37.823486%, 79.321289%, 100%)" offset="0.585938"/><stop stop-opacity="1" stop-color="rgb(37.478638%, 80.020142%, 100%)" offset="0.589844"/><stop stop-opacity="1" stop-color="rgb(37.135315%, 80.72052%, 100%)" offset="0.59375"/><stop stop-opacity="1" stop-color="rgb(36.685181%, 81.121826%, 100%)" offset="0.597656"/><stop stop-opacity="1" stop-color="rgb(36.235046%, 81.523132%, 100%)" offset="0.601562"/><stop stop-opacity="1" stop-color="rgb(35.728455%, 81.770325%, 100%)" offset="0.605469"/><stop stop-opacity="1" stop-color="rgb(35.223389%, 82.017517%, 100%)" offset="0.609375"/><stop stop-opacity="1" stop-color="rgb(34.716797%, 82.263184%, 100%)" offset="0.613281"/><stop stop-opacity="1" stop-color="rgb(34.211731%, 82.510376%, 100%)" offset="0.617188"/><stop stop-opacity="1" stop-color="rgb(33.706665%, 82.756042%, 100%)" offset="0.621094"/><stop stop-opacity="1" stop-color="rgb(33.201599%, 83.003235%, 100%)" offset="0.625"/><stop stop-opacity="1" stop-color="rgb(32.695007%, 83.248901%, 100%)" offset="0.628906"/><stop stop-opacity="1" stop-color="rgb(32.189941%, 83.496094%, 100%)" offset="0.632812"/><stop stop-opacity="1" stop-color="rgb(31.684875%, 83.743286%, 100%)" offset="0.636719"/><stop stop-opacity="1" stop-color="rgb(31.17981%, 83.990479%, 100%)" offset="0.640625"/><stop stop-opacity="1" stop-color="rgb(30.673218%, 84.236145%, 100%)" offset="0.644531"/><stop stop-opacity="1" stop-color="rgb(30.168152%, 84.483337%, 100%)" offset="0.648438"/><stop stop-opacity="1" stop-color="rgb(29.66156%, 84.729004%, 100%)" offset="0.652344"/><stop stop-opacity="1" stop-color="rgb(29.156494%, 84.976196%, 100%)" offset="0.65625"/><stop stop-opacity="1" stop-color="rgb(28.651428%, 85.221863%, 100%)" offset="0.660156"/><stop stop-opacity="1" stop-color="rgb(28.146362%, 85.469055%, 100%)" offset="0.664062"/><stop stop-opacity="1" stop-color="rgb(27.639771%, 85.716248%, 100%)" offset="0.667969"/><stop stop-opacity="1" stop-color="rgb(27.134705%, 85.96344%, 100%)" offset="0.671875"/><stop stop-opacity="1" stop-color="rgb(26.629639%, 86.209106%, 100%)" offset="0.675781"/><stop stop-opacity="1" stop-color="rgb(26.124573%, 86.456299%, 100%)" offset="0.679688"/><stop stop-opacity="1" stop-color="rgb(25.617981%, 86.701965%, 100%)" offset="0.683594"/><stop stop-opacity="1" stop-color="rgb(25.112915%, 86.949158%, 100%)" offset="0.6875"/><stop stop-opacity="1" stop-color="rgb(24.606323%, 87.19635%, 100%)" offset="0.691406"/><stop stop-opacity="1" stop-color="rgb(24.101257%, 87.443542%, 100%)" offset="0.695312"/><stop stop-opacity="1" stop-color="rgb(23.596191%, 87.689209%, 100%)" offset="0.699219"/><stop stop-opacity="1" stop-color="rgb(23.091125%, 87.936401%, 100%)" offset="0.703125"/><stop stop-opacity="1" stop-color="rgb(22.584534%, 88.182068%, 100%)" offset="0.707031"/><stop stop-opacity="1" stop-color="rgb(22.079468%, 88.42926%, 100%)" offset="0.710938"/><stop stop-opacity="1" stop-color="rgb(21.574402%, 88.674927%, 100%)" offset="0.714844"/><stop stop-opacity="1" stop-color="rgb(21.069336%, 88.922119%, 100%)" offset="0.71875"/><stop stop-opacity="1" stop-color="rgb(20.562744%, 89.169312%, 100%)" offset="0.722656"/><stop stop-opacity="1" stop-color="rgb(20.057678%, 89.416504%, 100%)" offset="0.726562"/><stop stop-opacity="1" stop-color="rgb(19.551086%, 89.66217%, 100%)" offset="0.730469"/><stop stop-opacity="1" stop-color="rgb(19.046021%, 89.909363%, 100%)" offset="0.734375"/><stop stop-opacity="1" stop-color="rgb(18.540955%, 90.155029%, 100%)" offset="0.738281"/><stop stop-opacity="1" stop-color="rgb(18.035889%, 90.402222%, 100%)" offset="0.742188"/><stop stop-opacity="1" stop-color="rgb(17.529297%, 90.647888%, 100%)" offset="0.746094"/><stop stop-opacity="1" stop-color="rgb(17.024231%, 90.895081%, 100%)" offset="0.75"/><stop stop-opacity="1" stop-color="rgb(16.517639%, 91.142273%, 100%)" offset="0.753906"/><stop stop-opacity="1" stop-color="rgb(16.012573%, 91.389465%, 100%)" offset="0.757813"/><stop stop-opacity="1" stop-color="rgb(15.507507%, 91.635132%, 100%)" offset="0.761719"/><stop stop-opacity="1" stop-color="rgb(15.002441%, 91.882324%, 100%)" offset="0.765625"/><stop stop-opacity="1" stop-color="rgb(14.49585%, 92.127991%, 100%)" offset="0.769531"/><stop stop-opacity="1" stop-color="rgb(13.990784%, 92.375183%, 100%)" offset="0.773438"/><stop stop-opacity="1" stop-color="rgb(13.485718%, 92.622375%, 100%)" offset="0.777344"/><stop stop-opacity="1" stop-color="rgb(12.980652%, 92.869568%, 100%)" offset="0.78125"/><stop stop-opacity="1" stop-color="rgb(12.47406%, 93.115234%, 100%)" offset="0.785156"/><stop stop-opacity="1" stop-color="rgb(11.968994%, 93.362427%, 100%)" offset="0.789062"/><stop stop-opacity="1" stop-color="rgb(11.462402%, 93.608093%, 100%)" offset="0.792969"/><stop stop-opacity="1" stop-color="rgb(10.957336%, 93.855286%, 100%)" offset="0.796875"/><stop stop-opacity="1" stop-color="rgb(10.452271%, 94.100952%, 100%)" offset="0.800781"/><stop stop-opacity="1" stop-color="rgb(9.947205%, 94.348145%, 100%)" offset="0.804688"/><stop stop-opacity="1" stop-color="rgb(9.440613%, 94.595337%, 100%)" offset="0.808594"/><stop stop-opacity="1" stop-color="rgb(8.935547%, 94.842529%, 100%)" offset="0.8125"/><stop stop-opacity="1" stop-color="rgb(8.430481%, 95.088196%, 100%)" offset="0.816406"/><stop stop-opacity="1" stop-color="rgb(7.925415%, 95.335388%, 100%)" offset="0.820313"/><stop stop-opacity="1" stop-color="rgb(7.418823%, 95.581055%, 100%)" offset="0.824219"/><stop stop-opacity="1" stop-color="rgb(6.913757%, 95.828247%, 100%)" offset="0.828125"/><stop stop-opacity="1" stop-color="rgb(6.407166%, 96.073914%, 100%)" offset="0.832031"/><stop stop-opacity="1" stop-color="rgb(5.9021%, 96.321106%, 100%)" offset="0.835938"/><stop stop-opacity="1" stop-color="rgb(5.397034%, 96.568298%, 100%)" offset="0.839844"/><stop stop-opacity="1" stop-color="rgb(4.891968%, 96.815491%, 100%)" offset="0.84375"/><stop stop-opacity="1" stop-color="rgb(4.394531%, 97.05658%, 100%)" offset="0.847656"/><stop stop-opacity="1" stop-color="rgb(3.898621%, 97.299194%, 100%)" offset="0.851562"/><stop stop-opacity="1" stop-color="rgb(3.898621%, 97.299194%, 100%)" offset="0.859375"/><stop stop-opacity="1" stop-color="rgb(3.898621%, 97.299194%, 100%)" offset="0.875"/><stop stop-opacity="1" stop-color="rgb(3.898621%, 97.299194%, 100%)" offset="1"/></linearGradient><clipPath id="c8b686b41a"><path d="M 39.652344 150.039062 L 55 150.039062 L 55 166 L 39.652344 166 Z M 39.652344 150.039062 " clip-rule="nonzero"/></clipPath><clipPath id="835690f992"><path d="M 40 150.039062 L 77 150.039062 L 77 188 L 40 188 Z M 40 150.039062 " clip-rule="nonzero"/></clipPath><clipPath id="27494e7b14"><path d="M 83 194 L 99.652344 194 L 99.652344 209.289062 L 83 209.289062 Z M 83 194 " clip-rule="nonzero"/></clipPath><clipPath id="afd58237e8"><path d="M 62 172 L 99.652344 172 L 99.652344 209.289062 L 62 209.289062 Z M 62 172 " clip-rule="nonzero"/></clipPath><clipPath id="1216692a78"><path d="M 40 150.039062 L 99.652344 150.039062 L 99.652344 209 L 40 209 Z M 40 150.039062 " clip-rule="nonzero"/></clipPath></defs><g clip-path="url(#c9ea5cb766)"><g clip-path="url(#46a99565ed)"><g clip-path="url(#451075bca9)"><g clip-path="url(#60feeb48d6)"><path fill="url(#87de86b138)" d="M -27.289062 191.441406 L 83.832031 274.285156 L 166.675781 163.164062 L 55.558594 80.320312 Z M -27.289062 191.441406 " fill-rule="nonzero"/></g></g></g></g><g clip-path="url(#c8b686b41a)"><path fill="#0f0246" d="M 41.289062 157.246094 L 47.132812 151.390625 C 47.347656 151.183594 47.582031 150.996094 47.835938 150.835938 C 48.089844 150.671875 48.355469 150.535156 48.632812 150.425781 C 48.910156 150.316406 49.199219 150.230469 49.492188 150.175781 C 49.789062 150.121094 50.085938 150.097656 50.386719 150.097656 C 50.6875 150.101562 50.984375 150.132812 51.277344 150.195312 C 51.570312 150.257812 51.855469 150.34375 52.132812 150.460938 C 52.410156 150.578125 52.671875 150.71875 52.921875 150.886719 C 53.171875 151.054688 53.402344 151.246094 53.613281 151.457031 C 53.828125 151.671875 54.015625 151.902344 54.183594 152.152344 C 54.351562 152.402344 54.492188 152.664062 54.609375 152.941406 C 54.726562 153.21875 54.8125 153.503906 54.875 153.796875 C 54.933594 154.09375 54.96875 154.390625 54.96875 154.691406 C 54.972656 154.992188 54.949219 155.289062 54.894531 155.585938 C 54.839844 155.878906 54.753906 156.167969 54.644531 156.449219 C 54.535156 156.726562 54.398438 156.992188 54.234375 157.246094 C 54.074219 157.5 53.886719 157.734375 53.679688 157.953125 L 47.835938 163.804688 C 47.621094 164.015625 47.386719 164.199219 47.132812 164.363281 C 46.878906 164.523438 46.613281 164.660156 46.335938 164.773438 C 46.054688 164.882812 45.769531 164.964844 45.472656 165.019531 C 45.179688 165.074219 44.882812 165.101562 44.582031 165.097656 C 44.28125 165.09375 43.984375 165.0625 43.691406 165.003906 C 43.398438 164.941406 43.113281 164.851562 42.835938 164.734375 C 42.558594 164.621094 42.296875 164.476562 42.046875 164.308594 C 41.796875 164.140625 41.566406 163.953125 41.355469 163.738281 C 41.140625 163.527344 40.953125 163.296875 40.785156 163.046875 C 40.617188 162.796875 40.476562 162.535156 40.359375 162.257812 C 40.242188 161.980469 40.15625 161.691406 40.09375 161.398438 C 40.03125 161.105469 40 160.808594 39.996094 160.507812 C 39.996094 160.207031 40.019531 159.90625 40.074219 159.613281 C 40.128906 159.316406 40.214844 159.027344 40.324219 158.75 C 40.433594 158.46875 40.570312 158.203125 40.734375 157.949219 C 40.894531 157.699219 41.082031 157.460938 41.289062 157.246094 Z M 41.289062 157.246094 " fill-opacity="1" fill-rule="nonzero"/></g><g clip-path="url(#835690f992)"><path fill="#0f0246" d="M 41.710938 179.03125 L 69.160156 151.535156 C 69.375 151.328125 69.609375 151.140625 69.863281 150.980469 C 70.117188 150.816406 70.382812 150.679688 70.660156 150.570312 C 70.941406 150.457031 71.226562 150.375 71.523438 150.320312 C 71.816406 150.265625 72.113281 150.242188 72.414062 150.242188 C 72.714844 150.246094 73.011719 150.277344 73.304688 150.339844 C 73.597656 150.398438 73.882812 150.488281 74.160156 150.605469 C 74.4375 150.722656 74.699219 150.863281 74.949219 151.03125 C 75.199219 151.199219 75.429688 151.390625 75.640625 151.601562 C 75.855469 151.816406 76.042969 152.046875 76.210938 152.296875 C 76.378906 152.542969 76.519531 152.808594 76.636719 153.085938 C 76.753906 153.363281 76.839844 153.648438 76.902344 153.941406 C 76.964844 154.238281 76.996094 154.535156 77 154.835938 C 77 155.136719 76.976562 155.433594 76.921875 155.730469 C 76.867188 156.023438 76.785156 156.3125 76.671875 156.59375 C 76.5625 156.871094 76.425781 157.136719 76.261719 157.390625 C 76.101562 157.644531 75.917969 157.878906 75.707031 158.09375 L 48.261719 185.59375 C 48.046875 185.816406 47.8125 186.015625 47.5625 186.191406 C 47.308594 186.367188 47.039062 186.515625 46.757812 186.636719 C 46.472656 186.761719 46.183594 186.851562 45.878906 186.917969 C 45.578125 186.980469 45.273438 187.015625 44.964844 187.019531 C 44.660156 187.019531 44.351562 186.992188 44.050781 186.9375 C 43.75 186.878906 43.453125 186.789062 43.167969 186.675781 C 42.882812 186.558594 42.613281 186.414062 42.355469 186.242188 C 42.101562 186.074219 41.863281 185.878906 41.644531 185.660156 C 41.425781 185.441406 41.234375 185.203125 41.0625 184.945312 C 40.890625 184.691406 40.75 184.417969 40.632812 184.132812 C 40.515625 183.847656 40.429688 183.550781 40.371094 183.25 C 40.3125 182.945312 40.285156 182.640625 40.289062 182.332031 C 40.292969 182.023438 40.324219 181.71875 40.390625 181.417969 C 40.453125 181.113281 40.546875 180.820312 40.667969 180.539062 C 40.789062 180.253906 40.941406 179.988281 41.117188 179.734375 C 41.292969 179.480469 41.488281 179.246094 41.710938 179.03125 Z M 41.710938 179.03125 " fill-opacity="1" fill-rule="nonzero"/></g><g clip-path="url(#27494e7b14)"><path fill="#0f0246" d="M 97.734375 202.085938 L 91.890625 207.9375 C 91.675781 208.152344 91.441406 208.34375 91.1875 208.511719 C 90.9375 208.679688 90.667969 208.824219 90.386719 208.941406 C 90.109375 209.054688 89.816406 209.144531 89.519531 209.203125 C 89.222656 209.261719 88.921875 209.289062 88.617188 209.289062 C 88.3125 209.289062 88.011719 209.261719 87.714844 209.203125 C 87.417969 209.144531 87.128906 209.054688 86.847656 208.941406 C 86.566406 208.824219 86.300781 208.679688 86.046875 208.511719 C 85.792969 208.34375 85.558594 208.152344 85.34375 207.9375 C 85.128906 207.722656 84.9375 207.488281 84.769531 207.238281 C 84.597656 206.984375 84.457031 206.714844 84.339844 206.433594 C 84.222656 206.152344 84.136719 205.863281 84.078125 205.5625 C 84.019531 205.265625 83.988281 204.964844 83.988281 204.660156 C 83.988281 204.355469 84.019531 204.054688 84.078125 203.753906 C 84.136719 203.457031 84.222656 203.164062 84.339844 202.882812 C 84.457031 202.601562 84.597656 202.335938 84.769531 202.082031 C 84.9375 201.828125 85.128906 201.59375 85.34375 201.378906 L 91.1875 195.523438 C 91.40625 195.316406 91.640625 195.132812 91.890625 194.96875 C 92.144531 194.804688 92.410156 194.667969 92.6875 194.558594 C 92.96875 194.449219 93.253906 194.367188 93.550781 194.308594 C 93.84375 194.253906 94.140625 194.230469 94.441406 194.234375 C 94.742188 194.234375 95.039062 194.269531 95.332031 194.328125 C 95.628906 194.390625 95.914062 194.476562 96.1875 194.59375 C 96.464844 194.710938 96.730469 194.851562 96.976562 195.019531 C 97.226562 195.1875 97.457031 195.378906 97.667969 195.589844 C 97.882812 195.804688 98.070312 196.035156 98.238281 196.285156 C 98.40625 196.535156 98.546875 196.796875 98.664062 197.074219 C 98.78125 197.351562 98.871094 197.636719 98.929688 197.933594 C 98.992188 198.226562 99.023438 198.523438 99.027344 198.824219 C 99.027344 199.125 99.003906 199.421875 98.949219 199.71875 C 98.894531 200.015625 98.8125 200.300781 98.699219 200.582031 C 98.589844 200.859375 98.453125 201.128906 98.292969 201.378906 C 98.128906 201.632812 97.945312 201.867188 97.734375 202.085938 Z M 97.734375 202.085938 " fill-opacity="1" fill-rule="nonzero"/></g><g clip-path="url(#afd58237e8)"><path fill="#0f0246" d="M 97.871094 180.296875 L 70.425781 207.820312 C 70.207031 208.027344 69.972656 208.214844 69.71875 208.375 C 69.46875 208.539062 69.203125 208.675781 68.921875 208.785156 C 68.644531 208.898438 68.355469 208.980469 68.0625 209.035156 C 67.765625 209.089844 67.46875 209.117188 67.167969 209.113281 C 66.871094 209.109375 66.570312 209.078125 66.277344 209.015625 C 65.984375 208.957031 65.699219 208.867188 65.421875 208.75 C 65.144531 208.632812 64.882812 208.492188 64.632812 208.324219 C 64.382812 208.15625 64.152344 207.96875 63.941406 207.753906 C 63.730469 207.542969 63.539062 207.3125 63.371094 207.0625 C 63.203125 206.8125 63.0625 206.546875 62.945312 206.269531 C 62.832031 205.992188 62.742188 205.707031 62.679688 205.414062 C 62.621094 205.121094 62.589844 204.820312 62.585938 204.519531 C 62.582031 204.21875 62.609375 203.921875 62.664062 203.625 C 62.71875 203.332031 62.800781 203.042969 62.910156 202.765625 C 63.023438 202.484375 63.160156 202.21875 63.320312 201.964844 C 63.484375 201.710938 63.667969 201.476562 63.875 201.261719 L 91.324219 173.738281 C 91.539062 173.53125 91.773438 173.34375 92.027344 173.183594 C 92.28125 173.019531 92.546875 172.882812 92.824219 172.773438 C 93.101562 172.660156 93.390625 172.578125 93.683594 172.523438 C 93.980469 172.46875 94.277344 172.441406 94.578125 172.445312 C 94.878906 172.449219 95.175781 172.480469 95.46875 172.542969 C 95.761719 172.601562 96.046875 172.691406 96.324219 172.808594 C 96.601562 172.925781 96.863281 173.066406 97.113281 173.234375 C 97.363281 173.402344 97.59375 173.59375 97.804688 173.804688 C 98.019531 174.015625 98.207031 174.25 98.375 174.5 C 98.542969 174.746094 98.683594 175.011719 98.800781 175.289062 C 98.917969 175.566406 99.003906 175.851562 99.066406 176.144531 C 99.125 176.441406 99.160156 176.738281 99.160156 177.039062 C 99.164062 177.339844 99.140625 177.636719 99.085938 177.933594 C 99.03125 178.226562 98.945312 178.515625 98.835938 178.796875 C 98.726562 179.074219 98.589844 179.339844 98.425781 179.59375 C 98.265625 179.847656 98.078125 180.082031 97.871094 180.296875 Z M 97.871094 180.296875 " fill-opacity="1" fill-rule="nonzero"/></g><g clip-path="url(#1216692a78)"><path fill="#0f0246" d="M 99.3125 155.503906 L 99.3125 162.785156 C 99.3125 163.269531 99.238281 163.742188 99.082031 164.203125 C 98.925781 164.660156 98.699219 165.082031 98.402344 165.464844 C 98.105469 165.847656 97.757812 166.175781 97.351562 166.441406 C 96.949219 166.710938 96.511719 166.902344 96.046875 167.027344 C 95.578125 167.148438 95.101562 167.191406 94.617188 167.15625 C 94.136719 167.117188 93.671875 167.003906 93.226562 166.8125 C 92.78125 166.625 92.378906 166.367188 92.019531 166.042969 C 91.660156 165.714844 91.363281 165.34375 91.128906 164.917969 L 48.632812 207.421875 C 48.417969 207.628906 48.183594 207.816406 47.929688 207.976562 C 47.675781 208.140625 47.410156 208.277344 47.132812 208.386719 C 46.855469 208.496094 46.566406 208.582031 46.273438 208.636719 C 45.976562 208.691406 45.679688 208.714844 45.378906 208.714844 C 45.078125 208.710938 44.78125 208.679688 44.488281 208.617188 C 44.195312 208.554688 43.910156 208.46875 43.632812 208.351562 C 43.355469 208.234375 43.09375 208.09375 42.84375 207.925781 C 42.59375 207.757812 42.363281 207.566406 42.152344 207.355469 C 41.9375 207.140625 41.75 206.910156 41.582031 206.660156 C 41.414062 206.410156 41.273438 206.148438 41.15625 205.871094 C 41.039062 205.59375 40.953125 205.308594 40.890625 205.015625 C 40.832031 204.71875 40.796875 204.421875 40.796875 204.121094 C 40.792969 203.820312 40.816406 203.523438 40.871094 203.226562 C 40.925781 202.933594 41.011719 202.644531 41.121094 202.363281 C 41.230469 202.085938 41.367188 201.820312 41.53125 201.566406 C 41.691406 201.3125 41.878906 201.078125 42.085938 200.863281 L 84.359375 158.539062 C 83.890625 158.34375 83.46875 158.078125 83.09375 157.734375 C 82.71875 157.394531 82.410156 157 82.171875 156.550781 C 81.933594 156.105469 81.777344 155.628906 81.703125 155.128906 C 81.632812 154.625 81.644531 154.125 81.746094 153.628906 C 81.84375 153.128906 82.027344 152.664062 82.289062 152.230469 C 82.550781 151.792969 82.878906 151.417969 83.273438 151.097656 C 83.664062 150.777344 84.101562 150.53125 84.578125 150.363281 C 85.058594 150.195312 85.550781 150.113281 86.054688 150.117188 L 94.113281 150.117188 C 94.476562 150.0625 94.839844 150.054688 95.203125 150.085938 C 95.566406 150.121094 95.921875 150.195312 96.265625 150.316406 C 96.613281 150.433594 96.941406 150.589844 97.25 150.785156 C 97.558594 150.980469 97.839844 151.210938 98.09375 151.476562 C 98.347656 151.738281 98.566406 152.027344 98.75 152.34375 C 98.9375 152.660156 99.082031 152.992188 99.1875 153.34375 C 99.292969 153.691406 99.359375 154.050781 99.378906 154.414062 C 99.402344 154.78125 99.378906 155.144531 99.3125 155.503906 Z M 99.3125 155.503906 " fill-opacity="1" fill-rule="nonzero"/></g><g fill="#0af8ff" fill-opacity="1"><g transform="translate(150.023411, 205.36292)"><g><path d="M 3.179688 0 L 3.179688 -10.855469 L 0.804688 -10.855469 L 0.804688 0 Z M 3.179688 0 "/></g></g></g><g fill="#0af8ff" fill-opacity="1"><g transform="translate(154.007912, 205.36292)"><g><path d="M 5.660156 -8.144531 C 4.171875 -8.144531 3.304688 -7.027344 3.070312 -6.46875 L 3.070312 -8.066406 L 0.804688 -8.066406 L 0.804688 0 L 3.070312 0 L 3.070312 -4.761719 C 3.148438 -5.273438 3.691406 -6.265625 4.824219 -6.265625 C 5.628906 -6.265625 6.265625 -5.847656 6.265625 -4.730469 L 6.265625 0 L 8.53125 0 L 8.53125 -4.855469 C 8.53125 -7.304688 7.320312 -8.144531 5.660156 -8.144531 Z M 5.660156 -8.144531 "/></g></g></g><g fill="#0af8ff" fill-opacity="1"><g transform="translate(163.341254, 205.36292)"><g><path d="M 5.863281 0 L 8.964844 -8.066406 L 6.699219 -8.066406 L 4.621094 -2.265625 L 2.527344 -8.066406 L 0.261719 -8.066406 L 3.367188 0 Z M 5.863281 0 "/></g></g></g><g fill="#0af8ff" fill-opacity="1"><g transform="translate(172.566062, 205.36292)"><g><path d="M 8.25 -3.738281 C 8.25 -6.996094 6.40625 -8.144531 4.40625 -8.144531 C 2.542969 -8.144531 0.417969 -6.996094 0.417969 -3.984375 C 0.417969 -1.023438 2.558594 0.109375 4.390625 0.109375 C 6.34375 0.109375 7.570312 -0.683594 8.035156 -2.3125 L 6.0625 -2.3125 C 5.832031 -1.84375 5.367188 -1.566406 4.511719 -1.566406 C 3.414062 -1.566406 2.777344 -2.078125 2.605469 -3.320312 L 8.234375 -3.320312 C 8.25 -3.457031 8.25 -3.582031 8.25 -3.738281 Z M 2.621094 -4.714844 C 2.792969 -5.894531 3.414062 -6.46875 4.40625 -6.46875 C 5.476562 -6.46875 6.0625 -5.769531 6.09375 -4.714844 Z M 2.621094 -4.714844 "/></g></g></g><g fill="#0af8ff" fill-opacity="1"><g transform="translate(181.232729, 205.36292)"><g><path d="M 5.289062 -5.566406 L 7.320312 -5.566406 C 7.058594 -7.105469 6.035156 -8.144531 3.894531 -8.144531 C 1.832031 -8.144531 0.605469 -7.242188 0.605469 -5.738281 C 0.605469 -4.636719 1.242188 -3.832031 3.070312 -3.425781 L 4.375 -3.148438 C 4.980469 -3.023438 5.226562 -2.839844 5.226562 -2.417969 C 5.226562 -1.921875 4.824219 -1.566406 3.925781 -1.566406 C 3.085938 -1.566406 2.589844 -1.890625 2.417969 -2.574219 L 0.339844 -2.574219 C 0.574219 -0.789062 1.84375 0.109375 3.910156 0.109375 C 5.957031 0.109375 7.492188 -0.683594 7.492188 -2.386719 C 7.492188 -4.0625 6.453125 -4.265625 5.007812 -4.589844 L 3.566406 -4.917969 C 3.007812 -5.039062 2.714844 -5.273438 2.714844 -5.675781 C 2.714844 -6.1875 3.195312 -6.46875 3.910156 -6.46875 C 4.652344 -6.46875 5.101562 -6.234375 5.289062 -5.566406 Z M 5.289062 -5.566406 "/></g></g></g><g fill="#0af8ff" fill-opacity="1"><g transform="translate(189.062193, 205.36292)"><g><path d="M 4.652344 -1.660156 C 4 -1.660156 3.785156 -1.984375 3.785156 -2.480469 L 3.785156 -6.296875 L 5.414062 -6.296875 L 5.414062 -8.066406 L 3.785156 -8.066406 L 3.785156 -10.082031 L 1.519531 -10.082031 L 1.519531 -8.066406 L 0.1875 -8.066406 L 0.1875 -6.296875 L 1.519531 -6.296875 L 1.519531 -2.234375 C 1.519531 -0.292969 2.621094 0.09375 4.015625 0.09375 C 4.621094 0.09375 5.148438 0 5.492188 -0.140625 L 5.492188 -1.769531 C 5.148438 -1.691406 4.886719 -1.660156 4.652344 -1.660156 Z M 4.652344 -1.660156 "/></g></g></g><g fill="#0af8ff" fill-opacity="1"><g transform="translate(194.969175, 205.36292)"><g><path d="M 10.734375 -8.144531 C 9.414062 -8.144531 8.40625 -7.195312 8.066406 -6.40625 C 7.660156 -7.660156 6.699219 -8.144531 5.535156 -8.144531 C 4.046875 -8.144531 3.289062 -7.027344 3.070312 -6.46875 L 3.070312 -8.066406 L 0.804688 -8.066406 L 0.804688 0 L 3.070312 0 L 3.070312 -4.746094 C 3.117188 -5.320312 3.597656 -6.265625 4.699219 -6.265625 C 5.414062 -6.265625 6.019531 -5.816406 6.019531 -4.652344 L 6.019531 0 L 8.28125 0 L 8.28125 -4.839844 C 8.28125 -5.242188 8.792969 -6.265625 9.910156 -6.265625 C 10.65625 -6.265625 11.246094 -5.816406 11.246094 -4.652344 L 11.246094 0 L 13.507812 0 L 13.507812 -4.699219 C 13.507812 -7.210938 12.253906 -8.144531 10.734375 -8.144531 Z M 10.734375 -8.144531 "/></g></g></g><g fill="#0af8ff" fill-opacity="1"><g transform="translate(209.279255, 205.36292)"><g><path d="M 8.25 -3.738281 C 8.25 -6.996094 6.40625 -8.144531 4.40625 -8.144531 C 2.542969 -8.144531 0.417969 -6.996094 0.417969 -3.984375 C 0.417969 -1.023438 2.558594 0.109375 4.390625 0.109375 C 6.34375 0.109375 7.570312 -0.683594 8.035156 -2.3125 L 6.0625 -2.3125 C 5.832031 -1.84375 5.367188 -1.566406 4.511719 -1.566406 C 3.414062 -1.566406 2.777344 -2.078125 2.605469 -3.320312 L 8.234375 -3.320312 C 8.25 -3.457031 8.25 -3.582031 8.25 -3.738281 Z M 2.621094 -4.714844 C 2.792969 -5.894531 3.414062 -6.46875 4.40625 -6.46875 C 5.476562 -6.46875 6.0625 -5.769531 6.09375 -4.714844 Z M 2.621094 -4.714844 "/></g></g></g><g fill="#0af8ff" fill-opacity="1"><g transform="translate(217.945923, 205.36292)"><g><path d="M 5.660156 -8.144531 C 4.171875 -8.144531 3.304688 -7.027344 3.070312 -6.46875 L 3.070312 -8.066406 L 0.804688 -8.066406 L 0.804688 0 L 3.070312 0 L 3.070312 -4.761719 C 3.148438 -5.273438 3.691406 -6.265625 4.824219 -6.265625 C 5.628906 -6.265625 6.265625 -5.847656 6.265625 -4.730469 L 6.265625 0 L 8.53125 0 L 8.53125 -4.855469 C 8.53125 -7.304688 7.320312 -8.144531 5.660156 -8.144531 Z M 5.660156 -8.144531 "/></g></g></g><g fill="#0af8ff" fill-opacity="1"><g transform="translate(227.279266, 205.36292)"><g><path d="M 4.652344 -1.660156 C 4 -1.660156 3.785156 -1.984375 3.785156 -2.480469 L 3.785156 -6.296875 L 5.414062 -6.296875 L 5.414062 -8.066406 L 3.785156 -8.066406 L 3.785156 -10.082031 L 1.519531 -10.082031 L 1.519531 -8.066406 L 0.1875 -8.066406 L 0.1875 -6.296875 L 1.519531 -6.296875 L 1.519531 -2.234375 C 1.519531 -0.292969 2.621094 0.09375 4.015625 0.09375 C 4.621094 0.09375 5.148438 0 5.492188 -0.140625 L 5.492188 -1.769531 C 5.148438 -1.691406 4.886719 -1.660156 4.652344 -1.660156 Z M 4.652344 -1.660156 "/></g></g></g><g fill="#0af8ff" fill-opacity="1"><g transform="translate(233.186248, 205.36292)"><g/></g></g><g fill="#0af8ff" fill-opacity="1"><g transform="translate(237.325781, 205.36292)"><g><path d="M 10.824219 0 L 8.917969 -2.0625 C 9.492188 -2.976562 9.894531 -4.171875 10.019531 -5.707031 L 7.972656 -5.707031 C 7.957031 -4.902344 7.769531 -4.1875 7.492188 -3.613281 L 5.660156 -5.582031 C 7.011719 -6.3125 7.753906 -7.179688 7.753906 -8.421875 C 7.753906 -9.800781 6.886719 -11.074219 4.777344 -11.074219 C 2.589844 -11.074219 1.738281 -9.800781 1.738281 -8.421875 C 1.738281 -7.554688 2.171875 -6.777344 2.871094 -5.925781 C 1.890625 -5.445312 0.574219 -4.699219 0.574219 -3.101562 C 0.574219 -0.929688 2.574219 0.1875 4.730469 0.1875 C 5.785156 0.1875 6.792969 -0.09375 7.644531 -0.714844 L 8.3125 0 Z M 4.777344 -9.414062 C 5.492188 -9.414062 5.863281 -8.933594 5.863281 -8.375 C 5.863281 -7.925781 5.691406 -7.414062 4.542969 -6.792969 C 3.878906 -7.539062 3.613281 -7.910156 3.613281 -8.375 C 3.613281 -8.917969 4 -9.414062 4.777344 -9.414062 Z M 4.746094 -1.753906 C 3.707031 -1.753906 3.023438 -2.371094 3.023438 -3.148438 C 3.023438 -3.535156 3.179688 -4.125 3.984375 -4.652344 L 6.25 -2.21875 C 5.785156 -1.90625 5.257812 -1.753906 4.746094 -1.753906 Z M 4.746094 -1.753906 "/></g></g></g><g fill="#0af8ff" fill-opacity="1"><g transform="translate(248.566099, 205.36292)"><g/></g></g><g fill="#0af8ff" fill-opacity="1"><g transform="translate(252.705633, 205.36292)"><g><path d="M 8.964844 -10.855469 L 0.339844 -10.855469 L 0.339844 -8.808594 L 3.472656 -8.808594 L 3.472656 0 L 5.847656 0 L 5.847656 -8.808594 L 8.964844 -8.808594 Z M 8.964844 -10.855469 "/></g></g></g><g fill="#0af8ff" fill-opacity="1"><g transform="translate(262.007962, 205.36292)"><g><path d="M 5.476562 -8.144531 C 4.09375 -8.144531 3.304688 -7.367188 3.070312 -6.28125 L 3.070312 -8.066406 L 0.804688 -8.066406 L 0.804688 0 L 3.070312 0 L 3.070312 -4.296875 C 3.257812 -5.414062 3.984375 -6.109375 5.644531 -6.109375 C 5.753906 -6.109375 5.863281 -6.109375 6.171875 -6.09375 L 6.171875 -8.082031 C 5.863281 -8.144531 5.644531 -8.144531 5.476562 -8.144531 Z M 5.476562 -8.144531 "/></g></g></g><g fill="#0af8ff" fill-opacity="1"><g transform="translate(268.519593, 205.36292)"><g><path d="M 7.832031 -2.09375 L 7.832031 -4.761719 C 7.832031 -7.132812 6.855469 -8.144531 4.3125 -8.144531 C 2.171875 -8.144531 1.023438 -7.273438 0.867188 -5.582031 L 3.007812 -5.582031 C 3.117188 -6.296875 3.660156 -6.484375 4.296875 -6.484375 C 4.855469 -6.484375 5.566406 -6.359375 5.566406 -5.304688 L 5.566406 -5.289062 C 5.117188 -5.023438 4.28125 -4.949219 3.398438 -4.777344 C 1.921875 -4.511719 0.417969 -4.203125 0.417969 -2.371094 C 0.417969 -0.589844 1.753906 0.109375 3.164062 0.109375 C 5.054688 0.109375 5.691406 -1.085938 5.816406 -1.289062 L 5.816406 -1.226562 C 5.816406 -0.355469 6.605469 0.0625 7.601562 0.0625 C 7.925781 0.0625 8.144531 0.046875 8.421875 -0.078125 L 8.421875 -1.363281 C 8.050781 -1.394531 7.832031 -1.613281 7.832031 -2.09375 Z M 5.566406 -2.542969 C 5.414062 -2.265625 4.855469 -1.503906 3.785156 -1.503906 C 3.007812 -1.503906 2.683594 -1.96875 2.683594 -2.464844 C 2.683594 -2.976562 2.976562 -3.273438 3.738281 -3.457031 C 4.46875 -3.613281 4.996094 -3.675781 5.566406 -3.96875 Z M 5.566406 -2.542969 "/></g></g></g><g fill="#0af8ff" fill-opacity="1"><g transform="translate(277.201767, 205.36292)"><g><path d="M 3.96875 -8.144531 C 2.496094 -8.144531 0.417969 -6.996094 0.417969 -4.03125 C 0.417969 -1.007812 2.511719 0.109375 4.015625 0.109375 C 5.566406 0.109375 6.171875 -1.039062 6.171875 -1.226562 L 6.171875 0 L 8.4375 0 L 8.4375 -10.949219 L 6.171875 -10.949219 L 6.171875 -7.042969 C 5.910156 -7.507812 5.101562 -8.144531 3.96875 -8.144531 Z M 4.46875 -1.722656 C 3.425781 -1.722656 2.605469 -2.417969 2.605469 -4.03125 C 2.605469 -5.628906 3.425781 -6.3125 4.46875 -6.3125 C 5.460938 -6.3125 6.265625 -5.582031 6.265625 -4.03125 C 6.265625 -2.464844 5.460938 -1.722656 4.46875 -1.722656 Z M 4.46875 -1.722656 "/></g></g></g><g fill="#0af8ff" fill-opacity="1"><g transform="translate(286.442081, 205.36292)"><g><path d="M 0.804688 -10.996094 L 0.804688 -9.273438 L 3.070312 -9.273438 L 3.070312 -10.996094 Z M 0.804688 -8.066406 L 0.804688 0 L 3.070312 0 L 3.070312 -8.066406 Z M 0.804688 -8.066406 "/></g></g></g><g fill="#0af8ff" fill-opacity="1"><g transform="translate(290.318057, 205.36292)"><g><path d="M 5.660156 -8.144531 C 4.171875 -8.144531 3.304688 -7.027344 3.070312 -6.46875 L 3.070312 -8.066406 L 0.804688 -8.066406 L 0.804688 0 L 3.070312 0 L 3.070312 -4.761719 C 3.148438 -5.273438 3.691406 -6.265625 4.824219 -6.265625 C 5.628906 -6.265625 6.265625 -5.847656 6.265625 -4.730469 L 6.265625 0 L 8.53125 0 L 8.53125 -4.855469 C 8.53125 -7.304688 7.320312 -8.144531 5.660156 -8.144531 Z M 5.660156 -8.144531 "/></g></g></g><g fill="#0af8ff" fill-opacity="1"><g transform="translate(299.6514, 205.36292)"><g><path d="M 6.109375 -8.113281 L 6.109375 -7.042969 C 5.832031 -7.507812 5.039062 -8.144531 3.910156 -8.144531 C 2.480469 -8.144531 0.417969 -6.996094 0.417969 -4.03125 C 0.417969 -1.023438 2.496094 0.09375 3.941406 0.09375 C 5.507812 0.09375 6.109375 -1.039062 6.109375 -1.226562 L 6.109375 -0.21875 C 6.109375 1.054688 5.523438 1.566406 4.171875 1.566406 C 3.039062 1.566406 2.527344 1.101562 2.203125 0.746094 L 0.804688 1.628906 C 1.347656 2.699219 2.667969 3.414062 4.390625 3.414062 C 5.925781 3.414062 8.375 2.839844 8.375 -0.21875 L 8.375 -8.113281 Z M 4.4375 -1.738281 C 3.457031 -1.738281 2.667969 -2.433594 2.667969 -4.03125 C 2.667969 -5.628906 3.457031 -6.3125 4.4375 -6.3125 C 5.429688 -6.3125 6.203125 -5.582031 6.203125 -4.03125 C 6.203125 -2.464844 5.429688 -1.738281 4.4375 -1.738281 Z M 4.4375 -1.738281 "/></g></g></g><g fill="#0af8ff" fill-opacity="1"><g transform="translate(308.829698, 205.36292)"><g/></g></g><g fill="#0af8ff" fill-opacity="1"><g transform="translate(312.969232, 205.36292)"><g><path d="M 5.628906 -1.90625 C 3.96875 -1.90625 3.054688 -3.273438 3.054688 -5.429688 C 3.054688 -7.601562 3.96875 -8.949219 5.628906 -8.949219 C 6.792969 -8.949219 7.320312 -8.453125 7.722656 -7.398438 L 10.066406 -7.398438 C 9.800781 -9.816406 7.832031 -10.996094 5.582031 -10.996094 C 2.605469 -10.996094 0.574219 -9.027344 0.574219 -5.429688 C 0.574219 -1.832031 2.605469 0.140625 5.582031 0.140625 C 7.847656 0.140625 9.832031 -1.039062 10.097656 -3.472656 L 7.738281 -3.472656 C 7.351562 -2.402344 6.808594 -1.90625 5.628906 -1.90625 Z M 5.628906 -1.90625 "/></g></g></g><g fill="#0af8ff" fill-opacity="1"><g transform="translate(323.527379, 205.36292)"><g><path d="M 4.421875 -8.144531 C 2.714844 -8.144531 0.417969 -7.011719 0.417969 -4 C 0.417969 -1.023438 2.714844 0.109375 4.421875 0.109375 C 6.125 0.109375 8.421875 -1.023438 8.421875 -4 C 8.421875 -7.011719 6.125 -8.144531 4.421875 -8.144531 Z M 6.25 -4 C 6.25 -2.417969 5.382812 -1.722656 4.421875 -1.722656 C 3.457031 -1.722656 2.589844 -2.417969 2.589844 -4 C 2.589844 -5.660156 3.457031 -6.3125 4.421875 -6.3125 C 5.382812 -6.3125 6.25 -5.660156 6.25 -4 Z M 6.25 -4 "/></g></g></g><g fill="#0af8ff" fill-opacity="1"><g transform="translate(332.364598, 205.36292)"><g><path d="M 0.777344 -2.574219 L 0.777344 0 L 3.226562 0 L 3.226562 -2.574219 Z M 0.777344 -2.574219 "/></g></g></g><g fill="#ffffff" fill-opacity="1"><g transform="translate(142.269809, 186.552637)"><g><path d="M 21.5 0 L 24.90625 0 L 14.34375 -26.496094 L 11.582031 -26.496094 L 1.058594 0 L 4.464844 0 L 7.039062 -6.773438 L 18.925781 -6.773438 Z M 7.949219 -9.199219 L 12.980469 -22.40625 L 18.015625 -9.199219 Z M 7.949219 -9.199219 "/></g></g></g><g fill="#ffffff" fill-opacity="1"><g transform="translate(168.19626, 186.552637)"><g><path d="M 11.960938 -19.871094 C 8.175781 -19.871094 5.867188 -17.5625 5.222656 -14.914062 L 5.222656 -19.679688 L 2.195312 -19.679688 L 2.195312 0 L 5.222656 0 L 5.222656 -11.507812 C 5.867188 -14.949219 8.175781 -17.144531 12.1875 -17.144531 C 12.453125 -17.144531 12.792969 -17.144531 13.359375 -17.109375 L 13.359375 -19.796875 C 12.792969 -19.871094 12.375 -19.871094 11.960938 -19.871094 Z M 11.960938 -19.871094 "/></g></g></g><g fill="#ffffff" fill-opacity="1"><g transform="translate(182.578818, 186.552637)"><g><path d="M 11.960938 -19.871094 C 8.175781 -19.871094 5.867188 -17.5625 5.222656 -14.914062 L 5.222656 -19.679688 L 2.195312 -19.679688 L 2.195312 0 L 5.222656 0 L 5.222656 -11.507812 C 5.867188 -14.949219 8.175781 -17.144531 12.1875 -17.144531 C 12.453125 -17.144531 12.792969 -17.144531 13.359375 -17.109375 L 13.359375 -19.796875 C 12.792969 -19.871094 12.375 -19.871094 11.960938 -19.871094 Z M 11.960938 -19.871094 "/></g></g></g><g fill="#ffffff" fill-opacity="1"><g transform="translate(196.961376, 186.552637)"><g><path d="M 10.371094 -19.871094 C 6.054688 -19.871094 1.25 -16.765625 1.25 -9.839844 C 1.25 -2.839844 6.054688 0.265625 10.371094 0.265625 C 14.683594 0.265625 19.53125 -2.839844 19.53125 -9.839844 C 19.53125 -16.765625 14.683594 -19.871094 10.371094 -19.871094 Z M 16.578125 -9.839844 C 16.578125 -4.617188 13.550781 -2.269531 10.371094 -2.269531 C 7.191406 -2.269531 4.164062 -4.617188 4.164062 -9.839844 C 4.164062 -15.027344 7.191406 -17.335938 10.371094 -17.335938 C 13.550781 -17.335938 16.578125 -15.027344 16.578125 -9.839844 Z M 16.578125 -9.839844 "/></g></g></g><g fill="#ffffff" fill-opacity="1"><g transform="translate(217.702533, 186.552637)"><g><path d="M 29.558594 -19.679688 L 26.496094 -19.679688 L 21.992188 -3.746094 L 16.425781 -19.679688 L 13.964844 -19.679688 L 8.441406 -3.746094 L 3.9375 -19.679688 L 0.871094 -19.679688 L 6.699219 0 L 9.5 0 L 15.214844 -15.972656 L 20.894531 0 L 23.695312 0 Z M 29.558594 -19.679688 "/></g></g></g><g fill="#ffffff" fill-opacity="1"><g transform="translate(248.095143, 186.552637)"><g/></g></g><g fill="#ffffff" fill-opacity="1"><g transform="translate(258.427874, 186.552637)"><g><path d="M 16.125 -14.535156 C 18.8125 -15.367188 20.171875 -17.449219 20.171875 -20.023438 C 20.171875 -23.808594 17.675781 -26.496094 12.148438 -26.496094 L 2.195312 -26.496094 L 2.195312 0 L 12.300781 0 C 18.8125 0 21.839844 -2.875 21.839844 -7.53125 C 21.839844 -11.015625 19.796875 -13.550781 16.125 -14.535156 Z M 5.335938 -23.808594 L 12.226562 -23.808594 C 15.554688 -23.808594 16.917969 -22.105469 16.917969 -19.832031 C 16.917969 -17.257812 15.214844 -15.480469 12.339844 -15.480469 L 5.335938 -15.480469 Z M 12.300781 -2.6875 L 5.335938 -2.6875 L 5.335938 -12.980469 L 12.148438 -12.980469 C 16.539062 -12.980469 18.507812 -10.671875 18.507812 -7.683594 C 18.507812 -4.769531 16.765625 -2.6875 12.300781 -2.6875 Z M 12.300781 -2.6875 "/></g></g></g><g fill="#ffffff" fill-opacity="1"><g transform="translate(282.083385, 186.552637)"><g><path d="M 17.941406 -3.40625 L 17.941406 -12.375 C 17.941406 -17.828125 15.40625 -19.871094 10.179688 -19.871094 C 5.640625 -19.871094 2.875 -18.128906 2.460938 -14.609375 L 5.335938 -14.609375 C 5.675781 -16.503906 7.152344 -17.5625 10.144531 -17.5625 C 13.246094 -17.5625 14.914062 -16.503906 14.914062 -13.097656 L 14.914062 -12.832031 C 13.550781 -12.113281 10.523438 -11.734375 8.175781 -11.390625 C 3.59375 -10.671875 1.25 -9.082031 1.25 -5.601562 C 1.25 -1.703125 4.011719 0.265625 7.683594 0.265625 C 12.488281 0.265625 14.648438 -2.988281 15.175781 -4.050781 L 15.175781 -2.648438 C 15.175781 -0.605469 16.273438 0.152344 18.128906 0.152344 C 18.660156 0.152344 18.960938 0.113281 19.378906 -0.0742188 L 19.378906 -1.929688 C 18.320312 -1.890625 17.941406 -2.347656 17.941406 -3.40625 Z M 14.914062 -6.28125 C 14.421875 -5.261719 12.414062 -2.007812 8.363281 -2.007812 C 5.753906 -2.007812 4.277344 -3.480469 4.277344 -5.675781 C 4.277344 -7.757812 5.335938 -8.894531 8.554688 -9.425781 C 11.164062 -9.878906 13.777344 -10.296875 14.914062 -10.902344 Z M 14.914062 -6.28125 "/></g></g></g><g fill="#ffffff" fill-opacity="1"><g transform="translate(302.332507, 186.552637)"><g><path d="M 12.226562 -19.871094 C 7.984375 -19.871094 5.640625 -16.539062 5.222656 -15.101562 L 5.222656 -19.679688 L 2.195312 -19.679688 L 2.195312 0 L 5.222656 0 L 5.222656 -12.1875 C 5.601562 -14.042969 7.492188 -17.296875 11.242188 -17.296875 C 14.230469 -17.296875 16.199219 -15.933594 16.199219 -11.808594 L 16.199219 0 L 19.226562 0 L 19.226562 -11.921875 C 19.226562 -17.902344 16.160156 -19.871094 12.226562 -19.871094 Z M 12.226562 -19.871094 "/></g></g></g><g fill="#ffffff" fill-opacity="1"><g transform="translate(323.717094, 186.552637)"><g><path d="M 16.464844 0 L 19.910156 0 L 10.410156 -11.164062 L 18.699219 -19.679688 L 15.140625 -19.679688 L 5.222656 -9.386719 L 5.222656 -26.722656 L 2.195312 -26.722656 L 2.195312 0 L 5.222656 0 L 5.222656 -5.828125 L 8.476562 -9.199219 Z M 16.464844 0 "/></g></g></g></svg>