<svg xmlns="http://www.w3.org/2000/svg" xmlns:xlink="http://www.w3.org/1999/xlink" width="500" zoomAndPan="magnify" viewBox="0 0 375 374.999991" height="500" preserveAspectRatio="xMidYMid meet" version="1.0"><defs><g/><clipPath id="ccb077902f"><path d="M 127 86 L 248 86 L 248 207 L 127 207 Z M 127 86 " clip-rule="nonzero"/></clipPath><clipPath id="c7ec83d5f1"><path d="M 199.773438 230.3125 L 103.566406 158.585938 L 175.292969 62.382812 L 271.5 134.105469 Z M 199.773438 230.3125 " clip-rule="nonzero"/></clipPath><clipPath id="598d1a96b7"><path d="M 199.773438 230.3125 L 103.566406 158.585938 L 175.292969 62.382812 L 271.5 134.105469 Z M 199.773438 230.3125 " clip-rule="nonzero"/></clipPath><clipPath id="9544137aba"><path d="M 139.429688 110.484375 C 140.605469 108.90625 141.855469 107.394531 143.175781 105.941406 C 144.5 104.488281 145.890625 103.105469 147.351562 101.789062 C 148.808594 100.472656 150.332031 99.230469 151.910156 98.0625 C 153.492188 96.898438 155.128906 95.8125 156.816406 94.804688 C 158.503906 93.800781 160.238281 92.878906 162.015625 92.042969 C 163.792969 91.207031 165.609375 90.460938 167.460938 89.804688 C 169.3125 89.144531 171.191406 88.582031 173.101562 88.109375 C 175.007812 87.636719 176.933594 87.257812 178.878906 86.972656 C 180.824219 86.691406 182.777344 86.503906 184.738281 86.410156 C 186.703125 86.320312 188.664062 86.324219 190.628906 86.425781 C 192.589844 86.527344 194.542969 86.726562 196.484375 87.019531 C 198.429688 87.3125 200.351562 87.699219 202.257812 88.179688 C 204.164062 88.664062 206.039062 89.238281 207.886719 89.90625 C 209.738281 90.570312 211.546875 91.328125 213.324219 92.171875 C 215.097656 93.015625 216.824219 93.945312 218.507812 94.960938 C 220.191406 95.976562 221.820312 97.070312 223.394531 98.242188 C 224.972656 99.417969 226.484375 100.667969 227.9375 101.992188 C 229.390625 103.3125 230.773438 104.707031 232.089844 106.164062 C 233.40625 107.625 234.648438 109.144531 235.816406 110.726562 C 236.980469 112.308594 238.066406 113.941406 239.074219 115.628906 C 240.078125 117.316406 241 119.050781 241.835938 120.828125 C 242.671875 122.609375 243.417969 124.421875 244.074219 126.273438 C 244.734375 128.125 245.296875 130.007812 245.769531 131.914062 C 246.242188 133.820312 246.621094 135.746094 246.90625 137.691406 C 247.1875 139.636719 247.375 141.589844 247.46875 143.554688 C 247.558594 145.515625 247.554688 147.480469 247.453125 149.441406 C 247.351562 151.402344 247.15625 153.355469 246.859375 155.300781 C 246.566406 157.242188 246.179688 159.167969 245.699219 161.070312 C 245.214844 162.976562 244.640625 164.851562 243.972656 166.703125 C 243.308594 168.550781 242.550781 170.363281 241.707031 172.136719 C 240.863281 173.910156 239.933594 175.640625 238.917969 177.320312 C 237.90625 179.003906 236.808594 180.632812 235.636719 182.210938 C 234.460938 183.785156 233.210938 185.296875 231.886719 186.75 C 230.566406 188.203125 229.175781 189.589844 227.714844 190.90625 C 226.253906 192.21875 224.734375 193.460938 223.152344 194.628906 C 221.574219 195.796875 219.9375 196.882812 218.25 197.886719 C 216.5625 198.894531 214.828125 199.8125 213.050781 200.648438 C 211.269531 201.484375 209.457031 202.230469 207.605469 202.890625 C 205.753906 203.546875 203.871094 204.113281 201.964844 204.585938 C 200.058594 205.058594 198.132812 205.433594 196.1875 205.71875 C 194.242188 206.003906 192.289062 206.191406 190.328125 206.28125 C 188.363281 206.371094 186.402344 206.367188 184.4375 206.265625 C 182.476562 206.164062 180.523438 205.96875 178.578125 205.675781 C 176.636719 205.382812 174.710938 204.992188 172.808594 204.511719 C 170.902344 204.027344 169.027344 203.453125 167.175781 202.789062 C 165.328125 202.121094 163.519531 201.367188 161.742188 200.519531 C 159.96875 199.675781 158.242188 198.746094 156.558594 197.734375 C 154.875 196.71875 153.246094 195.625 151.671875 194.449219 C 150.09375 193.273438 148.582031 192.027344 147.128906 190.703125 C 145.675781 189.378906 144.289062 187.988281 142.976562 186.527344 C 141.660156 185.070312 140.417969 183.546875 139.25 181.96875 C 138.085938 180.386719 136.996094 178.75 135.992188 177.0625 C 134.984375 175.375 134.066406 173.640625 133.230469 171.863281 C 132.394531 170.085938 131.648438 168.269531 130.988281 166.417969 C 130.332031 164.566406 129.765625 162.6875 129.292969 160.777344 C 128.820312 158.871094 128.445312 156.945312 128.160156 155 C 127.875 153.058594 127.6875 151.101562 127.597656 149.140625 C 127.507812 147.175781 127.511719 145.214844 127.613281 143.25 C 127.714844 141.289062 127.910156 139.335938 128.203125 137.394531 C 128.496094 135.449219 128.886719 133.527344 129.367188 131.621094 C 129.851562 129.714844 130.425781 127.839844 131.089844 125.992188 C 131.757812 124.144531 132.511719 122.332031 133.359375 120.558594 C 134.203125 118.78125 135.132812 117.054688 136.148438 115.371094 C 137.160156 113.6875 138.253906 112.058594 139.429688 110.484375 Z M 139.429688 110.484375 " clip-rule="nonzero"/></clipPath><linearGradient x1="1745.263432" gradientTransform="matrix(0.559047, -0.749845, 0.749845, 0.559047, -1021.948641, 1385.494537)" y1="244.834" x2="1924.888557" gradientUnits="userSpaceOnUse" y2="244.834" id="b72933683c"><stop stop-opacity="1" stop-color="rgb(76.899719%, 0%, 100%)" offset="0"/><stop stop-opacity="1" stop-color="rgb(76.899719%, 0%, 100%)" offset="0.125"/><stop stop-opacity="1" stop-color="rgb(76.899719%, 0%, 100%)" offset="0.140625"/><stop stop-opacity="1" stop-color="rgb(76.654053%, 0.497437%, 100%)" offset="0.144531"/><stop stop-opacity="1" stop-color="rgb(76.408386%, 0.996399%, 100%)" offset="0.148438"/><stop stop-opacity="1" stop-color="rgb(76.063538%, 1.695251%, 100%)" offset="0.152344"/><stop stop-opacity="1" stop-color="rgb(75.718689%, 2.39563%, 100%)" offset="0.15625"/><stop stop-opacity="1" stop-color="rgb(75.37384%, 3.094482%, 100%)" offset="0.160156"/><stop stop-opacity="1" stop-color="rgb(75.030518%, 3.793335%, 100%)" offset="0.164062"/><stop stop-opacity="1" stop-color="rgb(74.685669%, 4.492188%, 100%)" offset="0.167969"/><stop stop-opacity="1" stop-color="rgb(74.34082%, 5.192566%, 100%)" offset="0.171875"/><stop stop-opacity="1" stop-color="rgb(73.995972%, 5.891418%, 100%)" offset="0.175781"/><stop stop-opacity="1" stop-color="rgb(73.652649%, 6.591797%, 100%)" offset="0.179688"/><stop stop-opacity="1" stop-color="rgb(73.3078%, 7.290649%, 100%)" offset="0.183594"/><stop stop-opacity="1" stop-color="rgb(72.962952%, 7.989502%, 100%)" offset="0.1875"/><stop stop-opacity="1" stop-color="rgb(72.618103%, 8.688354%, 100%)" offset="0.191406"/><stop stop-opacity="1" stop-color="rgb(72.27478%, 9.388733%, 100%)" offset="0.195313"/><stop stop-opacity="1" stop-color="rgb(71.929932%, 10.087585%, 100%)" offset="0.199219"/><stop stop-opacity="1" stop-color="rgb(71.585083%, 10.786438%, 100%)" offset="0.203125"/><stop stop-opacity="1" stop-color="rgb(71.240234%, 11.485291%, 100%)" offset="0.207031"/><stop stop-opacity="1" stop-color="rgb(70.895386%, 12.185669%, 100%)" offset="0.210938"/><stop stop-opacity="1" stop-color="rgb(70.550537%, 12.884521%, 100%)" offset="0.214844"/><stop stop-opacity="1" stop-color="rgb(70.207214%, 13.5849%, 100%)" offset="0.21875"/><stop stop-opacity="1" stop-color="rgb(69.862366%, 14.283752%, 100%)" offset="0.222656"/><stop stop-opacity="1" stop-color="rgb(69.517517%, 14.982605%, 100%)" offset="0.226562"/><stop stop-opacity="1" stop-color="rgb(69.172668%, 15.681458%, 100%)" offset="0.230469"/><stop stop-opacity="1" stop-color="rgb(68.829346%, 16.381836%, 100%)" offset="0.234375"/><stop stop-opacity="1" stop-color="rgb(68.484497%, 17.080688%, 100%)" offset="0.238281"/><stop stop-opacity="1" stop-color="rgb(68.139648%, 17.781067%, 100%)" offset="0.242188"/><stop stop-opacity="1" stop-color="rgb(67.7948%, 18.479919%, 100%)" offset="0.246094"/><stop stop-opacity="1" stop-color="rgb(67.451477%, 19.178772%, 100%)" offset="0.25"/><stop stop-opacity="1" stop-color="rgb(67.106628%, 19.877625%, 100%)" offset="0.253906"/><stop stop-opacity="1" stop-color="rgb(66.76178%, 20.578003%, 100%)" offset="0.257812"/><stop stop-opacity="1" stop-color="rgb(66.416931%, 21.276855%, 100%)" offset="0.261719"/><stop stop-opacity="1" stop-color="rgb(66.073608%, 21.975708%, 100%)" offset="0.265625"/><stop stop-opacity="1" stop-color="rgb(65.72876%, 22.674561%, 100%)" offset="0.269531"/><stop stop-opacity="1" stop-color="rgb(65.383911%, 23.374939%, 100%)" offset="0.273438"/><stop stop-opacity="1" stop-color="rgb(65.039062%, 24.073792%, 100%)" offset="0.277344"/><stop stop-opacity="1" stop-color="rgb(64.69574%, 24.77417%, 100%)" offset="0.28125"/><stop stop-opacity="1" stop-color="rgb(64.350891%, 25.473022%, 100%)" offset="0.285156"/><stop stop-opacity="1" stop-color="rgb(64.006042%, 26.171875%, 100%)" offset="0.289063"/><stop stop-opacity="1" stop-color="rgb(63.661194%, 26.870728%, 100%)" offset="0.292969"/><stop stop-opacity="1" stop-color="rgb(63.316345%, 27.571106%, 100%)" offset="0.296875"/><stop stop-opacity="1" stop-color="rgb(62.971497%, 28.269958%, 100%)" offset="0.300781"/><stop stop-opacity="1" stop-color="rgb(62.628174%, 28.970337%, 100%)" offset="0.304688"/><stop stop-opacity="1" stop-color="rgb(62.283325%, 29.669189%, 100%)" offset="0.308594"/><stop stop-opacity="1" stop-color="rgb(61.938477%, 30.368042%, 100%)" offset="0.3125"/><stop stop-opacity="1" stop-color="rgb(61.593628%, 31.066895%, 100%)" offset="0.316406"/><stop stop-opacity="1" stop-color="rgb(61.250305%, 31.767273%, 100%)" offset="0.320312"/><stop stop-opacity="1" stop-color="rgb(60.905457%, 32.466125%, 100%)" offset="0.324219"/><stop stop-opacity="1" stop-color="rgb(60.560608%, 33.164978%, 100%)" offset="0.328125"/><stop stop-opacity="1" stop-color="rgb(60.215759%, 33.863831%, 100%)" offset="0.332031"/><stop stop-opacity="1" stop-color="rgb(59.872437%, 34.564209%, 100%)" offset="0.335938"/><stop stop-opacity="1" stop-color="rgb(59.527588%, 35.263062%, 100%)" offset="0.339844"/><stop stop-opacity="1" stop-color="rgb(59.182739%, 35.96344%, 100%)" offset="0.34375"/><stop stop-opacity="1" stop-color="rgb(58.837891%, 36.662292%, 100%)" offset="0.347656"/><stop stop-opacity="1" stop-color="rgb(58.494568%, 37.361145%, 100%)" offset="0.351562"/><stop stop-opacity="1" stop-color="rgb(58.149719%, 38.059998%, 100%)" offset="0.355469"/><stop stop-opacity="1" stop-color="rgb(57.804871%, 38.760376%, 100%)" offset="0.359375"/><stop stop-opacity="1" stop-color="rgb(57.460022%, 39.459229%, 100%)" offset="0.363281"/><stop stop-opacity="1" stop-color="rgb(57.116699%, 40.159607%, 100%)" offset="0.367188"/><stop stop-opacity="1" stop-color="rgb(56.771851%, 40.858459%, 100%)" offset="0.371094"/><stop stop-opacity="1" stop-color="rgb(56.427002%, 41.557312%, 100%)" offset="0.375"/><stop stop-opacity="1" stop-color="rgb(56.082153%, 42.256165%, 100%)" offset="0.378906"/><stop stop-opacity="1" stop-color="rgb(55.738831%, 42.956543%, 100%)" offset="0.382813"/><stop stop-opacity="1" stop-color="rgb(55.393982%, 43.655396%, 100%)" offset="0.386719"/><stop stop-opacity="1" stop-color="rgb(55.049133%, 44.354248%, 100%)" offset="0.390625"/><stop stop-opacity="1" stop-color="rgb(54.704285%, 45.053101%, 100%)" offset="0.394531"/><stop stop-opacity="1" stop-color="rgb(54.359436%, 45.753479%, 100%)" offset="0.398438"/><stop stop-opacity="1" stop-color="rgb(54.014587%, 46.452332%, 100%)" offset="0.402344"/><stop stop-opacity="1" stop-color="rgb(53.671265%, 47.15271%, 100%)" offset="0.40625"/><stop stop-opacity="1" stop-color="rgb(53.326416%, 47.851562%, 100%)" offset="0.410156"/><stop stop-opacity="1" stop-color="rgb(52.981567%, 48.550415%, 100%)" offset="0.414063"/><stop stop-opacity="1" stop-color="rgb(52.636719%, 49.249268%, 100%)" offset="0.417969"/><stop stop-opacity="1" stop-color="rgb(52.293396%, 49.949646%, 100%)" offset="0.421875"/><stop stop-opacity="1" stop-color="rgb(51.948547%, 50.648499%, 100%)" offset="0.425781"/><stop stop-opacity="1" stop-color="rgb(51.603699%, 51.348877%, 100%)" offset="0.429687"/><stop stop-opacity="1" stop-color="rgb(51.25885%, 52.047729%, 100%)" offset="0.433594"/><stop stop-opacity="1" stop-color="rgb(50.915527%, 52.746582%, 100%)" offset="0.4375"/><stop stop-opacity="1" stop-color="rgb(50.570679%, 53.445435%, 100%)" offset="0.441406"/><stop stop-opacity="1" stop-color="rgb(50.22583%, 54.145813%, 100%)" offset="0.445312"/><stop stop-opacity="1" stop-color="rgb(49.880981%, 54.844666%, 100%)" offset="0.449219"/><stop stop-opacity="1" stop-color="rgb(49.537659%, 55.543518%, 100%)" offset="0.453125"/><stop stop-opacity="1" stop-color="rgb(49.19281%, 56.242371%, 100%)" offset="0.457031"/><stop stop-opacity="1" stop-color="rgb(48.847961%, 56.942749%, 100%)" offset="0.460938"/><stop stop-opacity="1" stop-color="rgb(48.503113%, 57.641602%, 100%)" offset="0.464844"/><stop stop-opacity="1" stop-color="rgb(48.15979%, 58.34198%, 100%)" offset="0.46875"/><stop stop-opacity="1" stop-color="rgb(47.814941%, 59.040833%, 100%)" offset="0.472656"/><stop stop-opacity="1" stop-color="rgb(47.470093%, 59.739685%, 100%)" offset="0.476563"/><stop stop-opacity="1" stop-color="rgb(47.125244%, 60.438538%, 100%)" offset="0.480469"/><stop stop-opacity="1" stop-color="rgb(46.781921%, 61.138916%, 100%)" offset="0.484375"/><stop stop-opacity="1" stop-color="rgb(46.437073%, 61.837769%, 100%)" offset="0.488281"/><stop stop-opacity="1" stop-color="rgb(46.092224%, 62.538147%, 100%)" offset="0.492188"/><stop stop-opacity="1" stop-color="rgb(45.747375%, 63.237%, 100%)" offset="0.496094"/><stop stop-opacity="1" stop-color="rgb(45.402527%, 63.935852%, 100%)" offset="0.5"/><stop stop-opacity="1" stop-color="rgb(45.057678%, 64.634705%, 100%)" offset="0.503906"/><stop stop-opacity="1" stop-color="rgb(44.714355%, 65.335083%, 100%)" offset="0.507812"/><stop stop-opacity="1" stop-color="rgb(44.369507%, 66.033936%, 100%)" offset="0.511719"/><stop stop-opacity="1" stop-color="rgb(44.024658%, 66.734314%, 100%)" offset="0.515625"/><stop stop-opacity="1" stop-color="rgb(43.67981%, 67.433167%, 100%)" offset="0.519531"/><stop stop-opacity="1" stop-color="rgb(43.336487%, 68.132019%, 100%)" offset="0.523438"/><stop stop-opacity="1" stop-color="rgb(42.991638%, 68.830872%, 100%)" offset="0.527344"/><stop stop-opacity="1" stop-color="rgb(42.64679%, 69.53125%, 100%)" offset="0.53125"/><stop stop-opacity="1" stop-color="rgb(42.301941%, 70.230103%, 100%)" offset="0.535156"/><stop stop-opacity="1" stop-color="rgb(41.958618%, 70.928955%, 100%)" offset="0.539062"/><stop stop-opacity="1" stop-color="rgb(41.61377%, 71.627808%, 100%)" offset="0.542969"/><stop stop-opacity="1" stop-color="rgb(41.268921%, 72.328186%, 100%)" offset="0.546875"/><stop stop-opacity="1" stop-color="rgb(40.924072%, 73.027039%, 100%)" offset="0.550781"/><stop stop-opacity="1" stop-color="rgb(40.58075%, 73.727417%, 100%)" offset="0.554688"/><stop stop-opacity="1" stop-color="rgb(40.235901%, 74.42627%, 100%)" offset="0.558594"/><stop stop-opacity="1" stop-color="rgb(39.891052%, 75.125122%, 100%)" offset="0.5625"/><stop stop-opacity="1" stop-color="rgb(39.546204%, 75.823975%, 100%)" offset="0.566406"/><stop stop-opacity="1" stop-color="rgb(39.202881%, 76.524353%, 100%)" offset="0.570312"/><stop stop-opacity="1" stop-color="rgb(38.858032%, 77.223206%, 100%)" offset="0.574219"/><stop stop-opacity="1" stop-color="rgb(38.513184%, 77.923584%, 100%)" offset="0.578125"/><stop stop-opacity="1" stop-color="rgb(38.168335%, 78.622437%, 100%)" offset="0.582031"/><stop stop-opacity="1" stop-color="rgb(37.823486%, 79.321289%, 100%)" offset="0.585938"/><stop stop-opacity="1" stop-color="rgb(37.478638%, 80.020142%, 100%)" offset="0.589844"/><stop stop-opacity="1" stop-color="rgb(37.135315%, 80.72052%, 100%)" offset="0.59375"/><stop stop-opacity="1" stop-color="rgb(36.685181%, 81.121826%, 100%)" offset="0.597656"/><stop stop-opacity="1" stop-color="rgb(36.235046%, 81.523132%, 100%)" offset="0.601562"/><stop stop-opacity="1" stop-color="rgb(35.728455%, 81.770325%, 100%)" offset="0.605469"/><stop stop-opacity="1" stop-color="rgb(35.223389%, 82.017517%, 100%)" offset="0.609375"/><stop stop-opacity="1" stop-color="rgb(34.716797%, 82.263184%, 100%)" offset="0.613281"/><stop stop-opacity="1" stop-color="rgb(34.211731%, 82.510376%, 100%)" offset="0.617188"/><stop stop-opacity="1" stop-color="rgb(33.706665%, 82.756042%, 100%)" offset="0.621094"/><stop stop-opacity="1" stop-color="rgb(33.201599%, 83.003235%, 100%)" offset="0.625"/><stop stop-opacity="1" stop-color="rgb(32.695007%, 83.248901%, 100%)" offset="0.628906"/><stop stop-opacity="1" stop-color="rgb(32.189941%, 83.496094%, 100%)" offset="0.632812"/><stop stop-opacity="1" stop-color="rgb(31.684875%, 83.743286%, 100%)" offset="0.636719"/><stop stop-opacity="1" stop-color="rgb(31.17981%, 83.990479%, 100%)" offset="0.640625"/><stop stop-opacity="1" stop-color="rgb(30.673218%, 84.236145%, 100%)" offset="0.644531"/><stop stop-opacity="1" stop-color="rgb(30.168152%, 84.483337%, 100%)" offset="0.648438"/><stop stop-opacity="1" stop-color="rgb(29.66156%, 84.729004%, 100%)" offset="0.652344"/><stop stop-opacity="1" stop-color="rgb(29.156494%, 84.976196%, 100%)" offset="0.65625"/><stop stop-opacity="1" stop-color="rgb(28.651428%, 85.221863%, 100%)" offset="0.660156"/><stop stop-opacity="1" stop-color="rgb(28.146362%, 85.469055%, 100%)" offset="0.664062"/><stop stop-opacity="1" stop-color="rgb(27.639771%, 85.716248%, 100%)" offset="0.667969"/><stop stop-opacity="1" stop-color="rgb(27.134705%, 85.96344%, 100%)" offset="0.671875"/><stop stop-opacity="1" stop-color="rgb(26.629639%, 86.209106%, 100%)" offset="0.675781"/><stop stop-opacity="1" stop-color="rgb(26.124573%, 86.456299%, 100%)" offset="0.679688"/><stop stop-opacity="1" stop-color="rgb(25.617981%, 86.701965%, 100%)" offset="0.683594"/><stop stop-opacity="1" stop-color="rgb(25.112915%, 86.949158%, 100%)" offset="0.6875"/><stop stop-opacity="1" stop-color="rgb(24.606323%, 87.19635%, 100%)" offset="0.691406"/><stop stop-opacity="1" stop-color="rgb(24.101257%, 87.443542%, 100%)" offset="0.695312"/><stop stop-opacity="1" stop-color="rgb(23.596191%, 87.689209%, 100%)" offset="0.699219"/><stop stop-opacity="1" stop-color="rgb(23.091125%, 87.936401%, 100%)" offset="0.703125"/><stop stop-opacity="1" stop-color="rgb(22.584534%, 88.182068%, 100%)" offset="0.707031"/><stop stop-opacity="1" stop-color="rgb(22.079468%, 88.42926%, 100%)" offset="0.710938"/><stop stop-opacity="1" stop-color="rgb(21.574402%, 88.674927%, 100%)" offset="0.714844"/><stop stop-opacity="1" stop-color="rgb(21.069336%, 88.922119%, 100%)" offset="0.71875"/><stop stop-opacity="1" stop-color="rgb(20.562744%, 89.169312%, 100%)" offset="0.722656"/><stop stop-opacity="1" stop-color="rgb(20.057678%, 89.416504%, 100%)" offset="0.726562"/><stop stop-opacity="1" stop-color="rgb(19.551086%, 89.66217%, 100%)" offset="0.730469"/><stop stop-opacity="1" stop-color="rgb(19.046021%, 89.909363%, 100%)" offset="0.734375"/><stop stop-opacity="1" stop-color="rgb(18.540955%, 90.155029%, 100%)" offset="0.738281"/><stop stop-opacity="1" stop-color="rgb(18.035889%, 90.402222%, 100%)" offset="0.742188"/><stop stop-opacity="1" stop-color="rgb(17.529297%, 90.647888%, 100%)" offset="0.746094"/><stop stop-opacity="1" stop-color="rgb(17.024231%, 90.895081%, 100%)" offset="0.75"/><stop stop-opacity="1" stop-color="rgb(16.517639%, 91.142273%, 100%)" offset="0.753906"/><stop stop-opacity="1" stop-color="rgb(16.012573%, 91.389465%, 100%)" offset="0.757812"/><stop stop-opacity="1" stop-color="rgb(15.507507%, 91.635132%, 100%)" offset="0.761719"/><stop stop-opacity="1" stop-color="rgb(15.002441%, 91.882324%, 100%)" offset="0.765625"/><stop stop-opacity="1" stop-color="rgb(14.49585%, 92.127991%, 100%)" offset="0.769531"/><stop stop-opacity="1" stop-color="rgb(13.990784%, 92.375183%, 100%)" offset="0.773438"/><stop stop-opacity="1" stop-color="rgb(13.485718%, 92.622375%, 100%)" offset="0.777344"/><stop stop-opacity="1" stop-color="rgb(12.980652%, 92.869568%, 100%)" offset="0.78125"/><stop stop-opacity="1" stop-color="rgb(12.47406%, 93.115234%, 100%)" offset="0.785156"/><stop stop-opacity="1" stop-color="rgb(11.968994%, 93.362427%, 100%)" offset="0.789062"/><stop stop-opacity="1" stop-color="rgb(11.462402%, 93.608093%, 100%)" offset="0.792969"/><stop stop-opacity="1" stop-color="rgb(10.957336%, 93.855286%, 100%)" offset="0.796875"/><stop stop-opacity="1" stop-color="rgb(10.452271%, 94.100952%, 100%)" offset="0.800781"/><stop stop-opacity="1" stop-color="rgb(9.947205%, 94.348145%, 100%)" offset="0.804688"/><stop stop-opacity="1" stop-color="rgb(9.440613%, 94.595337%, 100%)" offset="0.808594"/><stop stop-opacity="1" stop-color="rgb(8.935547%, 94.842529%, 100%)" offset="0.8125"/><stop stop-opacity="1" stop-color="rgb(8.430481%, 95.088196%, 100%)" offset="0.816406"/><stop stop-opacity="1" stop-color="rgb(7.925415%, 95.335388%, 100%)" offset="0.820312"/><stop stop-opacity="1" stop-color="rgb(7.418823%, 95.581055%, 100%)" offset="0.824219"/><stop stop-opacity="1" stop-color="rgb(6.913757%, 95.828247%, 100%)" offset="0.828125"/><stop stop-opacity="1" stop-color="rgb(6.407166%, 96.073914%, 100%)" offset="0.832031"/><stop stop-opacity="1" stop-color="rgb(5.9021%, 96.321106%, 100%)" offset="0.835938"/><stop stop-opacity="1" stop-color="rgb(5.397034%, 96.568298%, 100%)" offset="0.839844"/><stop stop-opacity="1" stop-color="rgb(4.891968%, 96.815491%, 100%)" offset="0.84375"/><stop stop-opacity="1" stop-color="rgb(4.394531%, 97.05658%, 100%)" offset="0.847656"/><stop stop-opacity="1" stop-color="rgb(3.898621%, 97.299194%, 100%)" offset="0.851562"/><stop stop-opacity="1" stop-color="rgb(3.898621%, 97.299194%, 100%)" offset="0.859375"/><stop stop-opacity="1" stop-color="rgb(3.898621%, 97.299194%, 100%)" offset="0.875"/><stop stop-opacity="1" stop-color="rgb(3.898621%, 97.299194%, 100%)" offset="1"/></linearGradient><clipPath id="3c2482e746"><path d="M 148 106.871094 L 168 106.871094 L 168 127 L 148 127 Z M 148 106.871094 " clip-rule="nonzero"/></clipPath><clipPath id="28316d65a0"><path d="M 206 165 L 227 165 L 227 185.621094 L 206 185.621094 Z M 206 165 " clip-rule="nonzero"/></clipPath><clipPath id="c42b3d98be"><path d="M 178 136 L 227 136 L 227 185.621094 L 178 185.621094 Z M 178 136 " clip-rule="nonzero"/></clipPath><clipPath id="8cabc4589a"><path d="M 149 106.871094 L 227 106.871094 L 227 185 L 149 185 Z M 149 106.871094 " clip-rule="nonzero"/></clipPath></defs><g clip-path="url(#ccb077902f)"><g clip-path="url(#c7ec83d5f1)"><g clip-path="url(#598d1a96b7)"><g clip-path="url(#9544137aba)"><path fill="url(#b72933683c)" d="M 69.976562 163.484375 L 204.667969 263.902344 L 305.085938 129.210938 L 170.398438 28.792969 Z M 69.976562 163.484375 " fill-rule="nonzero"/></g></g></g></g><g clip-path="url(#3c2482e746)"><path fill="#0f0246" d="M 149.867188 116.449219 L 157.609375 108.667969 C 157.898438 108.390625 158.207031 108.144531 158.542969 107.925781 C 158.878906 107.710938 159.230469 107.53125 159.597656 107.382812 C 159.96875 107.234375 160.347656 107.125 160.742188 107.050781 C 161.132812 106.980469 161.527344 106.945312 161.921875 106.949219 C 162.320312 106.953125 162.714844 106.996094 163.105469 107.078125 C 163.492188 107.15625 163.871094 107.273438 164.238281 107.429688 C 164.605469 107.585938 164.953125 107.773438 165.28125 107.996094 C 165.613281 108.21875 165.917969 108.472656 166.199219 108.753906 C 166.480469 109.039062 166.730469 109.34375 166.953125 109.675781 C 167.175781 110.007812 167.363281 110.359375 167.519531 110.726562 C 167.671875 111.09375 167.789062 111.472656 167.871094 111.867188 C 167.949219 112.257812 167.992188 112.652344 167.996094 113.050781 C 168 113.453125 167.964844 113.847656 167.894531 114.242188 C 167.820312 114.632812 167.710938 115.015625 167.566406 115.386719 C 167.417969 115.757812 167.238281 116.113281 167.023438 116.449219 C 166.808594 116.785156 166.5625 117.097656 166.289062 117.386719 L 158.542969 125.167969 C 158.257812 125.441406 157.945312 125.691406 157.613281 125.90625 C 157.277344 126.121094 156.925781 126.304688 156.554688 126.449219 C 156.1875 126.597656 155.804688 126.707031 155.414062 126.78125 C 155.023438 126.855469 154.628906 126.886719 154.230469 126.882812 C 153.835938 126.878906 153.441406 126.835938 153.050781 126.757812 C 152.660156 126.675781 152.285156 126.558594 151.917969 126.402344 C 151.550781 126.25 151.203125 126.058594 150.871094 125.835938 C 150.542969 125.613281 150.238281 125.359375 149.957031 125.078125 C 149.675781 124.796875 149.421875 124.488281 149.203125 124.15625 C 148.980469 123.824219 148.792969 123.476562 148.636719 123.105469 C 148.484375 122.738281 148.367188 122.359375 148.285156 121.96875 C 148.203125 121.574219 148.164062 121.179688 148.160156 120.78125 C 148.15625 120.382812 148.1875 119.984375 148.261719 119.59375 C 148.335938 119.199219 148.445312 118.816406 148.589844 118.445312 C 148.738281 118.074219 148.917969 117.71875 149.132812 117.382812 C 149.347656 117.046875 149.59375 116.734375 149.867188 116.449219 Z M 149.867188 116.449219 " fill-opacity="1" fill-rule="nonzero"/></g><path fill="#0f0246" d="M 150.429688 145.40625 L 186.796875 108.859375 C 187.082031 108.582031 187.394531 108.335938 187.730469 108.121094 C 188.0625 107.902344 188.414062 107.722656 188.785156 107.574219 C 189.15625 107.425781 189.535156 107.316406 189.925781 107.246094 C 190.316406 107.171875 190.710938 107.136719 191.109375 107.140625 C 191.507812 107.144531 191.898438 107.1875 192.289062 107.269531 C 192.679688 107.347656 193.058594 107.46875 193.421875 107.621094 C 193.789062 107.777344 194.136719 107.964844 194.46875 108.1875 C 194.796875 108.410156 195.105469 108.664062 195.386719 108.945312 C 195.667969 109.230469 195.917969 109.535156 196.140625 109.867188 C 196.363281 110.199219 196.550781 110.550781 196.703125 110.917969 C 196.859375 111.285156 196.976562 111.667969 197.054688 112.058594 C 197.136719 112.449219 197.179688 112.84375 197.183594 113.242188 C 197.1875 113.644531 197.152344 114.039062 197.078125 114.433594 C 197.007812 114.824219 196.898438 115.207031 196.75 115.578125 C 196.605469 115.949219 196.421875 116.304688 196.207031 116.640625 C 195.992188 116.976562 195.75 117.289062 195.472656 117.578125 L 159.105469 154.125 C 158.824219 154.417969 158.515625 154.683594 158.179688 154.917969 C 157.84375 155.152344 157.488281 155.351562 157.113281 155.511719 C 156.738281 155.675781 156.351562 155.800781 155.953125 155.882812 C 155.554688 155.96875 155.148438 156.015625 154.742188 156.019531 C 154.332031 156.023438 153.929688 155.988281 153.527344 155.910156 C 153.128906 155.832031 152.738281 155.714844 152.359375 155.5625 C 151.980469 155.40625 151.625 155.214844 151.285156 154.988281 C 150.945312 154.761719 150.628906 154.503906 150.339844 154.214844 C 150.050781 153.921875 149.792969 153.605469 149.570312 153.265625 C 149.34375 152.925781 149.152344 152.5625 149 152.183594 C 148.84375 151.804688 148.730469 151.414062 148.652344 151.007812 C 148.574219 150.605469 148.539062 150.199219 148.542969 149.789062 C 148.546875 149.378906 148.59375 148.972656 148.675781 148.574219 C 148.761719 148.171875 148.886719 147.78125 149.046875 147.40625 C 149.207031 147.03125 149.40625 146.671875 149.640625 146.335938 C 149.871094 146 150.136719 145.6875 150.429688 145.40625 Z M 150.429688 145.40625 " fill-opacity="1" fill-rule="nonzero"/><g clip-path="url(#28316d65a0)"><path fill="#0f0246" d="M 224.660156 176.042969 L 216.914062 183.824219 C 216.628906 184.109375 216.320312 184.363281 215.984375 184.589844 C 215.648438 184.8125 215.296875 185 214.921875 185.15625 C 214.550781 185.308594 214.167969 185.425781 213.773438 185.503906 C 213.378906 185.582031 212.980469 185.621094 212.578125 185.621094 C 212.175781 185.621094 211.777344 185.582031 211.382812 185.503906 C 210.988281 185.425781 210.605469 185.308594 210.230469 185.15625 C 209.859375 185 209.507812 184.8125 209.171875 184.589844 C 208.835938 184.363281 208.523438 184.109375 208.238281 183.824219 C 207.953125 183.539062 207.699219 183.226562 207.476562 182.890625 C 207.253906 182.554688 207.0625 182.199219 206.910156 181.824219 C 206.757812 181.449219 206.640625 181.066406 206.5625 180.667969 C 206.484375 180.273438 206.445312 179.871094 206.445312 179.464844 C 206.445312 179.0625 206.484375 178.660156 206.5625 178.261719 C 206.640625 177.867188 206.757812 177.480469 206.910156 177.105469 C 207.0625 176.734375 207.253906 176.378906 207.476562 176.039062 C 207.699219 175.703125 207.953125 175.394531 208.238281 175.105469 L 215.984375 167.324219 C 216.269531 167.046875 216.582031 166.800781 216.914062 166.585938 C 217.25 166.371094 217.601562 166.1875 217.972656 166.042969 C 218.339844 165.894531 218.722656 165.785156 219.113281 165.710938 C 219.503906 165.636719 219.898438 165.605469 220.296875 165.609375 C 220.691406 165.613281 221.085938 165.652344 221.476562 165.734375 C 221.863281 165.816406 222.242188 165.933594 222.609375 166.089844 C 222.976562 166.242188 223.324219 166.433594 223.65625 166.65625 C 223.984375 166.878906 224.289062 167.128906 224.570312 167.414062 C 224.851562 167.695312 225.105469 168.003906 225.324219 168.335938 C 225.546875 168.667969 225.734375 169.015625 225.890625 169.386719 C 226.042969 169.753906 226.160156 170.132812 226.242188 170.523438 C 226.320312 170.914062 226.363281 171.3125 226.367188 171.710938 C 226.371094 172.109375 226.339844 172.507812 226.265625 172.898438 C 226.191406 173.292969 226.082031 173.675781 225.9375 174.046875 C 225.789062 174.417969 225.609375 174.769531 225.394531 175.105469 C 225.179688 175.445312 224.933594 175.753906 224.660156 176.042969 Z M 224.660156 176.042969 " fill-opacity="1" fill-rule="nonzero"/></g><g clip-path="url(#c42b3d98be)"><path fill="#0f0246" d="M 224.839844 147.085938 L 188.472656 183.667969 C 188.183594 183.945312 187.875 184.191406 187.539062 184.40625 C 187.203125 184.621094 186.851562 184.804688 186.484375 184.953125 C 186.113281 185.097656 185.734375 185.207031 185.34375 185.28125 C 184.953125 185.355469 184.558594 185.390625 184.160156 185.386719 C 183.761719 185.382812 183.367188 185.339844 182.980469 185.257812 C 182.589844 185.175781 182.210938 185.058594 181.84375 184.902344 C 181.476562 184.75 181.128906 184.558594 180.800781 184.335938 C 180.46875 184.113281 180.164062 183.863281 179.882812 183.578125 C 179.601562 183.296875 179.351562 182.988281 179.128906 182.65625 C 178.90625 182.324219 178.71875 181.976562 178.566406 181.609375 C 178.410156 181.238281 178.292969 180.859375 178.214844 180.46875 C 178.132812 180.078125 178.089844 179.679688 178.085938 179.28125 C 178.082031 178.882812 178.117188 178.484375 178.1875 178.09375 C 178.261719 177.699219 178.371094 177.316406 178.519531 176.945312 C 178.664062 176.574219 178.84375 176.222656 179.058594 175.886719 C 179.273438 175.550781 179.519531 175.238281 179.796875 174.949219 L 216.164062 138.367188 C 216.449219 138.09375 216.761719 137.84375 217.09375 137.628906 C 217.429688 137.414062 217.78125 137.230469 218.152344 137.085938 C 218.519531 136.9375 218.902344 136.828125 219.292969 136.753906 C 219.683594 136.679688 220.078125 136.648438 220.476562 136.652344 C 220.871094 136.65625 221.265625 136.699219 221.65625 136.777344 C 222.042969 136.859375 222.421875 136.976562 222.789062 137.132812 C 223.15625 137.285156 223.503906 137.476562 223.835938 137.699219 C 224.164062 137.921875 224.46875 138.175781 224.75 138.457031 C 225.03125 138.738281 225.285156 139.046875 225.503906 139.378906 C 225.726562 139.710938 225.914062 140.058594 226.070312 140.429688 C 226.222656 140.796875 226.339844 141.175781 226.421875 141.566406 C 226.5 141.960938 226.542969 142.355469 226.546875 142.753906 C 226.550781 143.152344 226.519531 143.550781 226.445312 143.941406 C 226.371094 144.335938 226.261719 144.71875 226.117188 145.089844 C 225.96875 145.460938 225.789062 145.816406 225.574219 146.152344 C 225.359375 146.488281 225.113281 146.800781 224.839844 147.085938 Z M 224.839844 147.085938 " fill-opacity="1" fill-rule="nonzero"/></g><g clip-path="url(#8cabc4589a)"><path fill="#0f0246" d="M 226.75 114.132812 L 226.75 123.8125 C 226.75 124.457031 226.648438 125.082031 226.441406 125.691406 C 226.234375 126.300781 225.933594 126.863281 225.542969 127.371094 C 225.148438 127.882812 224.6875 128.316406 224.152344 128.671875 C 223.617188 129.027344 223.039062 129.285156 222.417969 129.445312 C 221.796875 129.609375 221.167969 129.664062 220.527344 129.617188 C 219.890625 129.570312 219.273438 129.417969 218.683594 129.164062 C 218.09375 128.910156 217.5625 128.570312 217.085938 128.136719 C 216.609375 127.707031 216.214844 127.207031 215.902344 126.644531 L 159.601562 183.136719 C 159.3125 183.414062 159.003906 183.660156 158.667969 183.875 C 158.332031 184.089844 157.980469 184.273438 157.613281 184.421875 C 157.242188 184.566406 156.863281 184.679688 156.472656 184.75 C 156.082031 184.824219 155.6875 184.859375 155.289062 184.855469 C 154.890625 184.851562 154.496094 184.808594 154.109375 184.726562 C 153.71875 184.644531 153.339844 184.527344 152.972656 184.371094 C 152.605469 184.21875 152.257812 184.027344 151.929688 183.804688 C 151.597656 183.582031 151.292969 183.332031 151.011719 183.046875 C 150.730469 182.765625 150.480469 182.457031 150.257812 182.128906 C 150.035156 181.796875 149.847656 181.445312 149.695312 181.078125 C 149.539062 180.707031 149.421875 180.328125 149.34375 179.9375 C 149.261719 179.546875 149.21875 179.152344 149.214844 178.75 C 149.210938 178.351562 149.246094 177.957031 149.316406 177.5625 C 149.390625 177.167969 149.5 176.789062 149.648438 176.414062 C 149.792969 176.042969 149.972656 175.691406 150.1875 175.355469 C 150.402344 175.019531 150.648438 174.707031 150.925781 174.417969 L 206.9375 118.164062 C 206.316406 117.90625 205.757812 117.550781 205.257812 117.097656 C 204.761719 116.644531 204.355469 116.121094 204.039062 115.527344 C 203.722656 114.929688 203.515625 114.300781 203.417969 113.632812 C 203.320312 112.964844 203.339844 112.300781 203.472656 111.636719 C 203.605469 110.976562 203.84375 110.355469 204.191406 109.78125 C 204.539062 109.203125 204.972656 108.699219 205.496094 108.273438 C 206.015625 107.851562 206.59375 107.523438 207.226562 107.300781 C 207.859375 107.078125 208.511719 106.96875 209.183594 106.972656 L 219.859375 106.972656 C 220.339844 106.902344 220.820312 106.890625 221.300781 106.933594 C 221.785156 106.976562 222.253906 107.078125 222.710938 107.234375 C 223.171875 107.390625 223.605469 107.601562 224.011719 107.863281 C 224.421875 108.121094 224.796875 108.429688 225.132812 108.777344 C 225.46875 109.128906 225.757812 109.511719 226.003906 109.929688 C 226.25 110.351562 226.441406 110.792969 226.582031 111.257812 C 226.722656 111.722656 226.808594 112.199219 226.835938 112.6875 C 226.863281 113.171875 226.835938 113.652344 226.75 114.132812 Z M 226.75 114.132812 " fill-opacity="1" fill-rule="nonzero"/></g><g fill="#0af8ff" fill-opacity="1"><g transform="translate(94.324217, 286.660001)"><g><path d="M 3.179688 0 L 3.179688 -10.855469 L 0.804688 -10.855469 L 0.804688 0 Z M 3.179688 0 "/></g></g></g><g fill="#0af8ff" fill-opacity="1"><g transform="translate(98.308718, 286.660001)"><g><path d="M 5.660156 -8.144531 C 4.171875 -8.144531 3.304688 -7.027344 3.070312 -6.46875 L 3.070312 -8.066406 L 0.804688 -8.066406 L 0.804688 0 L 3.070312 0 L 3.070312 -4.761719 C 3.148438 -5.273438 3.691406 -6.265625 4.824219 -6.265625 C 5.628906 -6.265625 6.265625 -5.847656 6.265625 -4.730469 L 6.265625 0 L 8.53125 0 L 8.53125 -4.855469 C 8.53125 -7.304688 7.320312 -8.144531 5.660156 -8.144531 Z M 5.660156 -8.144531 "/></g></g></g><g fill="#0af8ff" fill-opacity="1"><g transform="translate(107.642061, 286.660001)"><g><path d="M 5.863281 0 L 8.964844 -8.066406 L 6.699219 -8.066406 L 4.621094 -2.265625 L 2.527344 -8.066406 L 0.261719 -8.066406 L 3.367188 0 Z M 5.863281 0 "/></g></g></g><g fill="#0af8ff" fill-opacity="1"><g transform="translate(116.866868, 286.660001)"><g><path d="M 8.25 -3.738281 C 8.25 -6.996094 6.40625 -8.144531 4.40625 -8.144531 C 2.542969 -8.144531 0.417969 -6.996094 0.417969 -3.984375 C 0.417969 -1.023438 2.558594 0.109375 4.390625 0.109375 C 6.34375 0.109375 7.570312 -0.683594 8.035156 -2.3125 L 6.0625 -2.3125 C 5.832031 -1.84375 5.367188 -1.566406 4.511719 -1.566406 C 3.414062 -1.566406 2.777344 -2.078125 2.605469 -3.320312 L 8.234375 -3.320312 C 8.25 -3.457031 8.25 -3.582031 8.25 -3.738281 Z M 2.621094 -4.714844 C 2.792969 -5.894531 3.414062 -6.46875 4.40625 -6.46875 C 5.476562 -6.46875 6.0625 -5.769531 6.09375 -4.714844 Z M 2.621094 -4.714844 "/></g></g></g><g fill="#0af8ff" fill-opacity="1"><g transform="translate(125.533535, 286.660001)"><g><path d="M 5.289062 -5.566406 L 7.320312 -5.566406 C 7.058594 -7.105469 6.035156 -8.144531 3.894531 -8.144531 C 1.832031 -8.144531 0.605469 -7.242188 0.605469 -5.738281 C 0.605469 -4.636719 1.242188 -3.832031 3.070312 -3.425781 L 4.375 -3.148438 C 4.980469 -3.023438 5.226562 -2.839844 5.226562 -2.417969 C 5.226562 -1.921875 4.824219 -1.566406 3.925781 -1.566406 C 3.085938 -1.566406 2.589844 -1.890625 2.417969 -2.574219 L 0.339844 -2.574219 C 0.574219 -0.789062 1.84375 0.109375 3.910156 0.109375 C 5.957031 0.109375 7.492188 -0.683594 7.492188 -2.386719 C 7.492188 -4.0625 6.453125 -4.265625 5.007812 -4.589844 L 3.566406 -4.917969 C 3.007812 -5.039062 2.714844 -5.273438 2.714844 -5.675781 C 2.714844 -6.1875 3.195312 -6.46875 3.910156 -6.46875 C 4.652344 -6.46875 5.101562 -6.234375 5.289062 -5.566406 Z M 5.289062 -5.566406 "/></g></g></g><g fill="#0af8ff" fill-opacity="1"><g transform="translate(133.362999, 286.660001)"><g><path d="M 4.652344 -1.660156 C 4 -1.660156 3.785156 -1.984375 3.785156 -2.480469 L 3.785156 -6.296875 L 5.414062 -6.296875 L 5.414062 -8.066406 L 3.785156 -8.066406 L 3.785156 -10.082031 L 1.519531 -10.082031 L 1.519531 -8.066406 L 0.1875 -8.066406 L 0.1875 -6.296875 L 1.519531 -6.296875 L 1.519531 -2.234375 C 1.519531 -0.292969 2.621094 0.09375 4.015625 0.09375 C 4.621094 0.09375 5.148438 0 5.492188 -0.140625 L 5.492188 -1.769531 C 5.148438 -1.691406 4.886719 -1.660156 4.652344 -1.660156 Z M 4.652344 -1.660156 "/></g></g></g><g fill="#0af8ff" fill-opacity="1"><g transform="translate(139.269981, 286.660001)"><g><path d="M 10.734375 -8.144531 C 9.414062 -8.144531 8.40625 -7.195312 8.066406 -6.40625 C 7.660156 -7.660156 6.699219 -8.144531 5.535156 -8.144531 C 4.046875 -8.144531 3.289062 -7.027344 3.070312 -6.46875 L 3.070312 -8.066406 L 0.804688 -8.066406 L 0.804688 0 L 3.070312 0 L 3.070312 -4.746094 C 3.117188 -5.320312 3.597656 -6.265625 4.699219 -6.265625 C 5.414062 -6.265625 6.019531 -5.816406 6.019531 -4.652344 L 6.019531 0 L 8.28125 0 L 8.28125 -4.839844 C 8.28125 -5.242188 8.792969 -6.265625 9.910156 -6.265625 C 10.65625 -6.265625 11.246094 -5.816406 11.246094 -4.652344 L 11.246094 0 L 13.507812 0 L 13.507812 -4.699219 C 13.507812 -7.210938 12.253906 -8.144531 10.734375 -8.144531 Z M 10.734375 -8.144531 "/></g></g></g><g fill="#0af8ff" fill-opacity="1"><g transform="translate(153.580061, 286.660001)"><g><path d="M 8.25 -3.738281 C 8.25 -6.996094 6.40625 -8.144531 4.40625 -8.144531 C 2.542969 -8.144531 0.417969 -6.996094 0.417969 -3.984375 C 0.417969 -1.023438 2.558594 0.109375 4.390625 0.109375 C 6.34375 0.109375 7.570312 -0.683594 8.035156 -2.3125 L 6.0625 -2.3125 C 5.832031 -1.84375 5.367188 -1.566406 4.511719 -1.566406 C 3.414062 -1.566406 2.777344 -2.078125 2.605469 -3.320312 L 8.234375 -3.320312 C 8.25 -3.457031 8.25 -3.582031 8.25 -3.738281 Z M 2.621094 -4.714844 C 2.792969 -5.894531 3.414062 -6.46875 4.40625 -6.46875 C 5.476562 -6.46875 6.0625 -5.769531 6.09375 -4.714844 Z M 2.621094 -4.714844 "/></g></g></g><g fill="#0af8ff" fill-opacity="1"><g transform="translate(162.246729, 286.660001)"><g><path d="M 5.660156 -8.144531 C 4.171875 -8.144531 3.304688 -7.027344 3.070312 -6.46875 L 3.070312 -8.066406 L 0.804688 -8.066406 L 0.804688 0 L 3.070312 0 L 3.070312 -4.761719 C 3.148438 -5.273438 3.691406 -6.265625 4.824219 -6.265625 C 5.628906 -6.265625 6.265625 -5.847656 6.265625 -4.730469 L 6.265625 0 L 8.53125 0 L 8.53125 -4.855469 C 8.53125 -7.304688 7.320312 -8.144531 5.660156 -8.144531 Z M 5.660156 -8.144531 "/></g></g></g><g fill="#0af8ff" fill-opacity="1"><g transform="translate(171.580072, 286.660001)"><g><path d="M 4.652344 -1.660156 C 4 -1.660156 3.785156 -1.984375 3.785156 -2.480469 L 3.785156 -6.296875 L 5.414062 -6.296875 L 5.414062 -8.066406 L 3.785156 -8.066406 L 3.785156 -10.082031 L 1.519531 -10.082031 L 1.519531 -8.066406 L 0.1875 -8.066406 L 0.1875 -6.296875 L 1.519531 -6.296875 L 1.519531 -2.234375 C 1.519531 -0.292969 2.621094 0.09375 4.015625 0.09375 C 4.621094 0.09375 5.148438 0 5.492188 -0.140625 L 5.492188 -1.769531 C 5.148438 -1.691406 4.886719 -1.660156 4.652344 -1.660156 Z M 4.652344 -1.660156 "/></g></g></g><g fill="#0af8ff" fill-opacity="1"><g transform="translate(177.487054, 286.660001)"><g/></g></g><g fill="#0af8ff" fill-opacity="1"><g transform="translate(181.626588, 286.660001)"><g><path d="M 10.824219 0 L 8.917969 -2.0625 C 9.492188 -2.976562 9.894531 -4.171875 10.019531 -5.707031 L 7.972656 -5.707031 C 7.957031 -4.902344 7.769531 -4.1875 7.492188 -3.613281 L 5.660156 -5.582031 C 7.011719 -6.3125 7.753906 -7.179688 7.753906 -8.421875 C 7.753906 -9.800781 6.886719 -11.074219 4.777344 -11.074219 C 2.589844 -11.074219 1.738281 -9.800781 1.738281 -8.421875 C 1.738281 -7.554688 2.171875 -6.777344 2.871094 -5.925781 C 1.890625 -5.445312 0.574219 -4.699219 0.574219 -3.101562 C 0.574219 -0.929688 2.574219 0.1875 4.730469 0.1875 C 5.785156 0.1875 6.792969 -0.09375 7.644531 -0.714844 L 8.3125 0 Z M 4.777344 -9.414062 C 5.492188 -9.414062 5.863281 -8.933594 5.863281 -8.375 C 5.863281 -7.925781 5.691406 -7.414062 4.542969 -6.792969 C 3.878906 -7.539062 3.613281 -7.910156 3.613281 -8.375 C 3.613281 -8.917969 4 -9.414062 4.777344 -9.414062 Z M 4.746094 -1.753906 C 3.707031 -1.753906 3.023438 -2.371094 3.023438 -3.148438 C 3.023438 -3.535156 3.179688 -4.125 3.984375 -4.652344 L 6.25 -2.21875 C 5.785156 -1.90625 5.257812 -1.753906 4.746094 -1.753906 Z M 4.746094 -1.753906 "/></g></g></g><g fill="#0af8ff" fill-opacity="1"><g transform="translate(192.866905, 286.660001)"><g/></g></g><g fill="#0af8ff" fill-opacity="1"><g transform="translate(197.006439, 286.660001)"><g><path d="M 8.964844 -10.855469 L 0.339844 -10.855469 L 0.339844 -8.808594 L 3.472656 -8.808594 L 3.472656 0 L 5.847656 0 L 5.847656 -8.808594 L 8.964844 -8.808594 Z M 8.964844 -10.855469 "/></g></g></g><g fill="#0af8ff" fill-opacity="1"><g transform="translate(206.308768, 286.660001)"><g><path d="M 5.476562 -8.144531 C 4.09375 -8.144531 3.304688 -7.367188 3.070312 -6.28125 L 3.070312 -8.066406 L 0.804688 -8.066406 L 0.804688 0 L 3.070312 0 L 3.070312 -4.296875 C 3.257812 -5.414062 3.984375 -6.109375 5.644531 -6.109375 C 5.753906 -6.109375 5.863281 -6.109375 6.171875 -6.09375 L 6.171875 -8.082031 C 5.863281 -8.144531 5.644531 -8.144531 5.476562 -8.144531 Z M 5.476562 -8.144531 "/></g></g></g><g fill="#0af8ff" fill-opacity="1"><g transform="translate(212.820399, 286.660001)"><g><path d="M 7.832031 -2.09375 L 7.832031 -4.761719 C 7.832031 -7.132812 6.855469 -8.144531 4.3125 -8.144531 C 2.171875 -8.144531 1.023438 -7.273438 0.867188 -5.582031 L 3.007812 -5.582031 C 3.117188 -6.296875 3.660156 -6.484375 4.296875 -6.484375 C 4.855469 -6.484375 5.566406 -6.359375 5.566406 -5.304688 L 5.566406 -5.289062 C 5.117188 -5.023438 4.28125 -4.949219 3.398438 -4.777344 C 1.921875 -4.511719 0.417969 -4.203125 0.417969 -2.371094 C 0.417969 -0.589844 1.753906 0.109375 3.164062 0.109375 C 5.054688 0.109375 5.691406 -1.085938 5.816406 -1.289062 L 5.816406 -1.226562 C 5.816406 -0.355469 6.605469 0.0625 7.601562 0.0625 C 7.925781 0.0625 8.144531 0.046875 8.421875 -0.078125 L 8.421875 -1.363281 C 8.050781 -1.394531 7.832031 -1.613281 7.832031 -2.09375 Z M 5.566406 -2.542969 C 5.414062 -2.265625 4.855469 -1.503906 3.785156 -1.503906 C 3.007812 -1.503906 2.683594 -1.96875 2.683594 -2.464844 C 2.683594 -2.976562 2.976562 -3.273438 3.738281 -3.457031 C 4.46875 -3.613281 4.996094 -3.675781 5.566406 -3.96875 Z M 5.566406 -2.542969 "/></g></g></g><g fill="#0af8ff" fill-opacity="1"><g transform="translate(221.502573, 286.660001)"><g><path d="M 3.96875 -8.144531 C 2.496094 -8.144531 0.417969 -6.996094 0.417969 -4.03125 C 0.417969 -1.007812 2.511719 0.109375 4.015625 0.109375 C 5.566406 0.109375 6.171875 -1.039062 6.171875 -1.226562 L 6.171875 0 L 8.4375 0 L 8.4375 -10.949219 L 6.171875 -10.949219 L 6.171875 -7.042969 C 5.910156 -7.507812 5.101562 -8.144531 3.96875 -8.144531 Z M 4.46875 -1.722656 C 3.425781 -1.722656 2.605469 -2.417969 2.605469 -4.03125 C 2.605469 -5.628906 3.425781 -6.3125 4.46875 -6.3125 C 5.460938 -6.3125 6.265625 -5.582031 6.265625 -4.03125 C 6.265625 -2.464844 5.460938 -1.722656 4.46875 -1.722656 Z M 4.46875 -1.722656 "/></g></g></g><g fill="#0af8ff" fill-opacity="1"><g transform="translate(230.742887, 286.660001)"><g><path d="M 0.804688 -10.996094 L 0.804688 -9.273438 L 3.070312 -9.273438 L 3.070312 -10.996094 Z M 0.804688 -8.066406 L 0.804688 0 L 3.070312 0 L 3.070312 -8.066406 Z M 0.804688 -8.066406 "/></g></g></g><g fill="#0af8ff" fill-opacity="1"><g transform="translate(234.618863, 286.660001)"><g><path d="M 5.660156 -8.144531 C 4.171875 -8.144531 3.304688 -7.027344 3.070312 -6.46875 L 3.070312 -8.066406 L 0.804688 -8.066406 L 0.804688 0 L 3.070312 0 L 3.070312 -4.761719 C 3.148438 -5.273438 3.691406 -6.265625 4.824219 -6.265625 C 5.628906 -6.265625 6.265625 -5.847656 6.265625 -4.730469 L 6.265625 0 L 8.53125 0 L 8.53125 -4.855469 C 8.53125 -7.304688 7.320312 -8.144531 5.660156 -8.144531 Z M 5.660156 -8.144531 "/></g></g></g><g fill="#0af8ff" fill-opacity="1"><g transform="translate(243.952206, 286.660001)"><g><path d="M 6.109375 -8.113281 L 6.109375 -7.042969 C 5.832031 -7.507812 5.039062 -8.144531 3.910156 -8.144531 C 2.480469 -8.144531 0.417969 -6.996094 0.417969 -4.03125 C 0.417969 -1.023438 2.496094 0.09375 3.941406 0.09375 C 5.507812 0.09375 6.109375 -1.039062 6.109375 -1.226562 L 6.109375 -0.21875 C 6.109375 1.054688 5.523438 1.566406 4.171875 1.566406 C 3.039062 1.566406 2.527344 1.101562 2.203125 0.746094 L 0.804688 1.628906 C 1.347656 2.699219 2.667969 3.414062 4.390625 3.414062 C 5.925781 3.414062 8.375 2.839844 8.375 -0.21875 L 8.375 -8.113281 Z M 4.4375 -1.738281 C 3.457031 -1.738281 2.667969 -2.433594 2.667969 -4.03125 C 2.667969 -5.628906 3.457031 -6.3125 4.4375 -6.3125 C 5.429688 -6.3125 6.203125 -5.582031 6.203125 -4.03125 C 6.203125 -2.464844 5.429688 -1.738281 4.4375 -1.738281 Z M 4.4375 -1.738281 "/></g></g></g><g fill="#0af8ff" fill-opacity="1"><g transform="translate(253.130504, 286.660001)"><g/></g></g><g fill="#0af8ff" fill-opacity="1"><g transform="translate(257.270038, 286.660001)"><g><path d="M 5.628906 -1.90625 C 3.96875 -1.90625 3.054688 -3.273438 3.054688 -5.429688 C 3.054688 -7.601562 3.96875 -8.949219 5.628906 -8.949219 C 6.792969 -8.949219 7.320312 -8.453125 7.722656 -7.398438 L 10.066406 -7.398438 C 9.800781 -9.816406 7.832031 -10.996094 5.582031 -10.996094 C 2.605469 -10.996094 0.574219 -9.027344 0.574219 -5.429688 C 0.574219 -1.832031 2.605469 0.140625 5.582031 0.140625 C 7.847656 0.140625 9.832031 -1.039062 10.097656 -3.472656 L 7.738281 -3.472656 C 7.351562 -2.402344 6.808594 -1.90625 5.628906 -1.90625 Z M 5.628906 -1.90625 "/></g></g></g><g fill="#0af8ff" fill-opacity="1"><g transform="translate(267.828185, 286.660001)"><g><path d="M 4.421875 -8.144531 C 2.714844 -8.144531 0.417969 -7.011719 0.417969 -4 C 0.417969 -1.023438 2.714844 0.109375 4.421875 0.109375 C 6.125 0.109375 8.421875 -1.023438 8.421875 -4 C 8.421875 -7.011719 6.125 -8.144531 4.421875 -8.144531 Z M 6.25 -4 C 6.25 -2.417969 5.382812 -1.722656 4.421875 -1.722656 C 3.457031 -1.722656 2.589844 -2.417969 2.589844 -4 C 2.589844 -5.660156 3.457031 -6.3125 4.421875 -6.3125 C 5.382812 -6.3125 6.25 -5.660156 6.25 -4 Z M 6.25 -4 "/></g></g></g><g fill="#0af8ff" fill-opacity="1"><g transform="translate(276.665404, 286.660001)"><g><path d="M 0.777344 -2.574219 L 0.777344 0 L 3.226562 0 L 3.226562 -2.574219 Z M 0.777344 -2.574219 "/></g></g></g><g fill="#ffffff" fill-opacity="1"><g transform="translate(33.782315, 259.602655)"><g><path d="M 32.742188 0 L 37.929688 0 L 21.847656 -40.351562 L 17.640625 -40.351562 L 1.613281 0 L 6.800781 0 L 10.722656 -10.320312 L 28.824219 -10.320312 Z M 12.105469 -14.007812 L 19.773438 -34.125 L 27.4375 -14.007812 Z M 12.105469 -14.007812 "/></g></g></g><g fill="#ffffff" fill-opacity="1"><g transform="translate(73.26887, 259.602655)"><g><path d="M 18.214844 -30.261719 C 12.453125 -30.261719 8.933594 -26.746094 7.953125 -22.710938 L 7.953125 -29.976562 L 3.34375 -29.976562 L 3.34375 0 L 7.953125 0 L 7.953125 -17.523438 C 8.933594 -22.769531 12.453125 -26.113281 18.5625 -26.113281 C 18.964844 -26.113281 19.484375 -26.113281 20.347656 -26.054688 L 20.347656 -30.148438 C 19.484375 -30.261719 18.851562 -30.261719 18.214844 -30.261719 Z M 18.214844 -30.261719 "/></g></g></g><g fill="#ffffff" fill-opacity="1"><g transform="translate(95.173821, 259.602655)"><g><path d="M 18.214844 -30.261719 C 12.453125 -30.261719 8.933594 -26.746094 7.953125 -22.710938 L 7.953125 -29.976562 L 3.34375 -29.976562 L 3.34375 0 L 7.953125 0 L 7.953125 -17.523438 C 8.933594 -22.769531 12.453125 -26.113281 18.5625 -26.113281 C 18.964844 -26.113281 19.484375 -26.113281 20.347656 -26.054688 L 20.347656 -30.148438 C 19.484375 -30.261719 18.851562 -30.261719 18.214844 -30.261719 Z M 18.214844 -30.261719 "/></g></g></g><g fill="#ffffff" fill-opacity="1"><g transform="translate(117.078773, 259.602655)"><g><path d="M 15.792969 -30.261719 C 9.222656 -30.261719 1.902344 -25.535156 1.902344 -14.988281 C 1.902344 -4.324219 9.222656 0.402344 15.792969 0.402344 C 22.367188 0.402344 29.746094 -4.324219 29.746094 -14.988281 C 29.746094 -25.535156 22.367188 -30.261719 15.792969 -30.261719 Z M 25.25 -14.988281 C 25.25 -7.03125 20.636719 -3.457031 15.792969 -3.457031 C 10.953125 -3.457031 6.339844 -7.03125 6.339844 -14.988281 C 6.339844 -22.886719 10.953125 -26.402344 15.792969 -26.402344 C 20.636719 -26.402344 25.25 -22.886719 25.25 -14.988281 Z M 25.25 -14.988281 "/></g></g></g><g fill="#ffffff" fill-opacity="1"><g transform="translate(148.668012, 259.602655)"><g><path d="M 45.019531 -29.976562 L 40.351562 -29.976562 L 33.492188 -5.707031 L 25.019531 -29.976562 L 21.269531 -29.976562 L 12.855469 -5.707031 L 5.996094 -29.976562 L 1.324219 -29.976562 L 10.203125 0 L 14.46875 0 L 23.171875 -24.328125 L 31.820312 0 L 36.085938 0 Z M 45.019531 -29.976562 "/></g></g></g><g fill="#ffffff" fill-opacity="1"><g transform="translate(194.956625, 259.602655)"><g/></g></g><g fill="#ffffff" fill-opacity="1"><g transform="translate(210.6936, 259.602655)"><g><path d="M 24.558594 -22.136719 C 28.648438 -23.402344 30.726562 -26.574219 30.726562 -30.496094 C 30.726562 -36.257812 26.921875 -40.351562 18.503906 -40.351562 L 3.34375 -40.351562 L 3.34375 0 L 18.734375 0 C 28.648438 0 33.261719 -4.382812 33.261719 -11.472656 C 33.261719 -16.773438 30.148438 -20.636719 24.558594 -22.136719 Z M 8.128906 -36.257812 L 18.621094 -36.257812 C 23.691406 -36.257812 25.765625 -33.664062 25.765625 -30.207031 C 25.765625 -26.285156 23.171875 -23.578125 18.792969 -23.578125 L 8.128906 -23.578125 Z M 18.734375 -4.09375 L 8.128906 -4.09375 L 8.128906 -19.773438 L 18.503906 -19.773438 C 25.191406 -19.773438 28.1875 -16.257812 28.1875 -11.703125 C 28.1875 -7.261719 25.535156 -4.09375 18.734375 -4.09375 Z M 18.734375 -4.09375 "/></g></g></g><g fill="#ffffff" fill-opacity="1"><g transform="translate(246.721464, 259.602655)"><g><path d="M 27.324219 -5.1875 L 27.324219 -18.851562 C 27.324219 -27.152344 23.460938 -30.261719 15.507812 -30.261719 C 8.589844 -30.261719 4.382812 -27.613281 3.746094 -22.25 L 8.128906 -22.25 C 8.648438 -25.132812 10.894531 -26.746094 15.449219 -26.746094 C 20.175781 -26.746094 22.710938 -25.132812 22.710938 -19.945312 L 22.710938 -19.542969 C 20.636719 -18.445312 16.023438 -17.871094 12.453125 -17.351562 C 5.476562 -16.257812 1.902344 -13.835938 1.902344 -8.53125 C 1.902344 -2.59375 6.109375 0.402344 11.703125 0.402344 C 19.023438 0.402344 22.308594 -4.554688 23.117188 -6.167969 L 23.117188 -4.035156 C 23.117188 -0.921875 24.789062 0.230469 27.613281 0.230469 C 28.417969 0.230469 28.878906 0.171875 29.515625 -0.117188 L 29.515625 -2.941406 C 27.898438 -2.882812 27.324219 -3.574219 27.324219 -5.1875 Z M 22.710938 -9.570312 C 21.960938 -8.011719 18.90625 -3.054688 12.738281 -3.054688 C 8.761719 -3.054688 6.515625 -5.304688 6.515625 -8.648438 C 6.515625 -11.816406 8.128906 -13.546875 13.027344 -14.355469 C 17.003906 -15.046875 20.984375 -15.679688 22.710938 -16.601562 Z M 22.710938 -9.570312 "/></g></g></g><g fill="#ffffff" fill-opacity="1"><g transform="translate(277.561321, 259.602655)"><g><path d="M 18.621094 -30.261719 C 12.164062 -30.261719 8.589844 -25.191406 7.953125 -23 L 7.953125 -29.976562 L 3.34375 -29.976562 L 3.34375 0 L 7.953125 0 L 7.953125 -18.5625 C 8.53125 -21.386719 11.414062 -26.34375 17.121094 -26.34375 C 21.675781 -26.34375 24.671875 -24.269531 24.671875 -17.984375 L 24.671875 0 L 29.285156 0 L 29.285156 -18.15625 C 29.285156 -27.265625 24.613281 -30.261719 18.621094 -30.261719 Z M 18.621094 -30.261719 "/></g></g></g><g fill="#ffffff" fill-opacity="1"><g transform="translate(310.130517, 259.602655)"><g><path d="M 25.074219 0 L 30.320312 0 L 15.851562 -17.003906 L 28.476562 -29.976562 L 23.058594 -29.976562 L 7.953125 -14.296875 L 7.953125 -40.699219 L 3.34375 -40.699219 L 3.34375 0 L 7.953125 0 L 7.953125 -8.878906 L 12.914062 -14.007812 Z M 25.074219 0 "/></g></g></g></svg>