<svg xmlns="http://www.w3.org/2000/svg" xmlns:xlink="http://www.w3.org/1999/xlink" width="500" zoomAndPan="magnify" viewBox="0 0 375 149.999998" height="200" preserveAspectRatio="xMidYMid meet" version="1.0"><defs><clipPath id="4aba086b25"><path d="M 32.121094 23.191406 L 117.71875 23.191406 L 117.71875 108.792969 L 32.121094 108.792969 Z M 32.121094 23.191406 " clip-rule="nonzero"/></clipPath><clipPath id="94cb9968a7"><path d="M 83.304688 125.546875 L 15.359375 74.898438 L 66.015625 6.957031 L 133.953125 57.609375 Z M 83.304688 125.546875 " clip-rule="nonzero"/></clipPath><clipPath id="c6d20bce3b"><path d="M 83.304688 125.546875 L 15.359375 74.898438 L 66.015625 6.957031 L 133.953125 57.609375 Z M 83.304688 125.546875 " clip-rule="nonzero"/></clipPath><clipPath id="37f408b861"><path d="M 40.6875 40.925781 C 41.519531 39.816406 42.398438 38.746094 43.335938 37.71875 C 44.269531 36.691406 45.25 35.714844 46.28125 34.785156 C 47.3125 33.855469 48.386719 32.980469 49.503906 32.15625 C 50.621094 31.332031 51.773438 30.566406 52.964844 29.855469 C 54.160156 29.144531 55.382812 28.492188 56.640625 27.90625 C 57.894531 27.3125 59.175781 26.789062 60.484375 26.324219 C 61.792969 25.859375 63.121094 25.460938 64.46875 25.125 C 65.8125 24.792969 67.171875 24.523438 68.546875 24.324219 C 69.921875 24.121094 71.296875 23.992188 72.6875 23.925781 C 74.070312 23.863281 75.457031 23.867188 76.84375 23.9375 C 78.230469 24.007812 79.609375 24.148438 80.980469 24.355469 C 82.351562 24.5625 83.710938 24.835938 85.058594 25.175781 C 86.402344 25.515625 87.726562 25.921875 89.035156 26.394531 C 90.339844 26.863281 91.617188 27.398438 92.871094 27.996094 C 94.125 28.589844 95.34375 29.25 96.535156 29.964844 C 97.722656 30.679688 98.871094 31.453125 99.984375 32.28125 C 101.097656 33.109375 102.164062 33.992188 103.191406 34.929688 C 104.21875 35.863281 105.195312 36.847656 106.125 37.875 C 107.054688 38.90625 107.933594 39.980469 108.753906 41.097656 C 109.578125 42.210938 110.347656 43.371094 111.054688 44.558594 C 111.769531 45.753906 112.417969 46.976562 113.007812 48.230469 C 113.597656 49.488281 114.125 50.769531 114.589844 52.078125 C 115.054688 53.386719 115.453125 54.714844 115.789062 56.058594 C 116.121094 57.40625 116.386719 58.765625 116.585938 60.140625 C 116.785156 61.511719 116.921875 62.894531 116.984375 64.28125 C 117.046875 65.664062 117.042969 67.054688 116.972656 68.4375 C 116.902344 69.824219 116.765625 71.203125 116.554688 72.574219 C 116.347656 73.949219 116.074219 75.304688 115.734375 76.652344 C 115.394531 77.996094 114.988281 79.320312 114.515625 80.628906 C 114.046875 81.933594 113.511719 83.214844 112.914062 84.464844 C 112.320312 85.71875 111.664062 86.9375 110.945312 88.128906 C 110.230469 89.316406 109.457031 90.464844 108.628906 91.578125 C 107.800781 92.691406 106.917969 93.757812 105.984375 94.785156 C 105.046875 95.8125 104.0625 96.789062 103.035156 97.71875 C 102.003906 98.648438 100.929688 99.523438 99.8125 100.351562 C 98.699219 101.171875 97.542969 101.941406 96.351562 102.652344 C 95.160156 103.363281 93.9375 104.011719 92.679688 104.601562 C 91.421875 105.191406 90.140625 105.71875 88.832031 106.183594 C 87.527344 106.648438 86.199219 107.046875 84.851562 107.382812 C 83.503906 107.714844 82.140625 107.980469 80.773438 108.179688 C 79.398438 108.382812 78.015625 108.515625 76.632812 108.578125 C 75.246094 108.644531 73.859375 108.640625 72.472656 108.570312 C 71.089844 108.496094 69.707031 108.359375 68.335938 108.152344 C 66.964844 107.945312 65.605469 107.667969 64.261719 107.328125 C 62.914062 106.988281 61.589844 106.582031 60.285156 106.113281 C 58.976562 105.640625 57.699219 105.109375 56.445312 104.511719 C 55.191406 103.914062 53.972656 103.257812 52.785156 102.539062 C 51.59375 101.824219 50.445312 101.050781 49.332031 100.222656 C 48.21875 99.394531 47.148438 98.511719 46.125 97.578125 C 45.097656 96.640625 44.121094 95.660156 43.191406 94.628906 C 42.261719 93.597656 41.386719 92.527344 40.5625 91.410156 C 39.738281 90.292969 38.972656 89.136719 38.257812 87.945312 C 37.550781 86.753906 36.898438 85.527344 36.308594 84.273438 C 35.71875 83.015625 35.191406 81.734375 34.726562 80.429688 C 34.261719 79.121094 33.867188 77.792969 33.53125 76.445312 C 33.195312 75.097656 32.929688 73.738281 32.730469 72.367188 C 32.527344 70.992188 32.398438 69.609375 32.332031 68.226562 C 32.265625 66.839844 32.269531 65.453125 32.34375 64.066406 C 32.414062 62.683594 32.554688 61.300781 32.761719 59.929688 C 32.96875 58.558594 33.238281 57.199219 33.582031 55.855469 C 33.921875 54.507812 34.328125 53.183594 34.796875 51.878906 C 35.269531 50.570312 35.804688 49.292969 36.398438 48.039062 C 36.996094 46.785156 37.652344 45.566406 38.371094 44.378906 C 39.085938 43.1875 39.859375 42.039062 40.6875 40.925781 Z M 40.6875 40.925781 " clip-rule="nonzero"/></clipPath><clipPath id="25a724b170"><path d="M -8.359375 78.355469 L 86.761719 149.269531 L 157.675781 54.148438 L 62.558594 -16.765625 Z M -8.359375 78.355469 " clip-rule="nonzero"/></clipPath><linearGradient x1="1745.274963" gradientTransform="matrix(0.394796, -0.529544, 0.529544, 0.394796, -779.481364, 941.348574)" y1="244.834" x2="1924.898536" gradientUnits="userSpaceOnUse" y2="244.834" id="188d059d88"><stop stop-opacity="1" stop-color="rgb(76.899719%, 0%, 100%)" offset="0"/><stop stop-opacity="1" stop-color="rgb(76.899719%, 0%, 100%)" offset="0.125"/><stop stop-opacity="1" stop-color="rgb(76.899719%, 0%, 100%)" offset="0.140625"/><stop stop-opacity="1" stop-color="rgb(76.673889%, 0.624084%, 100%)" offset="0.144531"/><stop stop-opacity="1" stop-color="rgb(76.449585%, 1.249695%, 100%)" offset="0.148438"/><stop stop-opacity="1" stop-color="rgb(76.05896%, 1.850891%, 100%)" offset="0.152344"/><stop stop-opacity="1" stop-color="rgb(75.668335%, 2.453613%, 100%)" offset="0.15625"/><stop stop-opacity="1" stop-color="rgb(75.27771%, 3.182983%, 100%)" offset="0.160156"/><stop stop-opacity="1" stop-color="rgb(74.887085%, 3.912354%, 100%)" offset="0.164063"/><stop stop-opacity="1" stop-color="rgb(74.693298%, 4.499817%, 100%)" offset="0.167969"/><stop stop-opacity="1" stop-color="rgb(74.499512%, 5.08728%, 100%)" offset="0.171875"/><stop stop-opacity="1" stop-color="rgb(74.111938%, 5.86853%, 100%)" offset="0.175781"/><stop stop-opacity="1" stop-color="rgb(73.724365%, 6.64978%, 100%)" offset="0.179688"/><stop stop-opacity="1" stop-color="rgb(73.33374%, 7.208252%, 100%)" offset="0.183594"/><stop stop-opacity="1" stop-color="rgb(72.943115%, 7.766724%, 100%)" offset="0.1875"/><stop stop-opacity="1" stop-color="rgb(72.55249%, 8.61969%, 100%)" offset="0.191406"/><stop stop-opacity="1" stop-color="rgb(72.161865%, 9.474182%, 100%)" offset="0.195313"/><stop stop-opacity="1" stop-color="rgb(71.97113%, 10.246277%, 100%)" offset="0.199219"/><stop stop-opacity="1" stop-color="rgb(71.780396%, 11.018372%, 100%)" offset="0.203125"/><stop stop-opacity="1" stop-color="rgb(71.389771%, 11.608887%, 100%)" offset="0.207031"/><stop stop-opacity="1" stop-color="rgb(70.999146%, 12.199402%, 100%)" offset="0.210938"/><stop stop-opacity="1" stop-color="rgb(70.608521%, 12.930298%, 100%)" offset="0.214844"/><stop stop-opacity="1" stop-color="rgb(70.217896%, 13.66272%, 100%)" offset="0.21875"/><stop stop-opacity="1" stop-color="rgb(69.827271%, 14.242554%, 100%)" offset="0.222656"/><stop stop-opacity="1" stop-color="rgb(69.436646%, 14.823914%, 100%)" offset="0.226563"/><stop stop-opacity="1" stop-color="rgb(69.195557%, 15.704346%, 100%)" offset="0.230469"/><stop stop-opacity="1" stop-color="rgb(68.955994%, 16.586304%, 100%)" offset="0.234375"/><stop stop-opacity="1" stop-color="rgb(68.565369%, 17.11731%, 100%)" offset="0.238281"/><stop stop-opacity="1" stop-color="rgb(68.174744%, 17.649841%, 100%)" offset="0.242188"/><stop stop-opacity="1" stop-color="rgb(67.832947%, 18.431091%, 100%)" offset="0.246094"/><stop stop-opacity="1" stop-color="rgb(67.492676%, 19.212341%, 100%)" offset="0.25"/><stop stop-opacity="1" stop-color="rgb(67.102051%, 19.799805%, 100%)" offset="0.253906"/><stop stop-opacity="1" stop-color="rgb(66.711426%, 20.387268%, 100%)" offset="0.257812"/><stop stop-opacity="1" stop-color="rgb(66.320801%, 21.162415%, 100%)" offset="0.261719"/><stop stop-opacity="1" stop-color="rgb(65.930176%, 21.937561%, 100%)" offset="0.265625"/><stop stop-opacity="1" stop-color="rgb(65.689087%, 22.743225%, 100%)" offset="0.269531"/><stop stop-opacity="1" stop-color="rgb(65.449524%, 23.548889%, 100%)" offset="0.273437"/><stop stop-opacity="1" stop-color="rgb(65.058899%, 24.154663%, 100%)" offset="0.277344"/><stop stop-opacity="1" stop-color="rgb(64.668274%, 24.761963%, 100%)" offset="0.28125"/><stop stop-opacity="1" stop-color="rgb(64.277649%, 25.543213%, 100%)" offset="0.285156"/><stop stop-opacity="1" stop-color="rgb(63.887024%, 26.324463%, 100%)" offset="0.289062"/><stop stop-opacity="1" stop-color="rgb(63.496399%, 26.908875%, 100%)" offset="0.292969"/><stop stop-opacity="1" stop-color="rgb(63.105774%, 27.493286%, 100%)" offset="0.296875"/><stop stop-opacity="1" stop-color="rgb(62.915039%, 28.22113%, 100%)" offset="0.300781"/><stop stop-opacity="1" stop-color="rgb(62.724304%, 28.948975%, 100%)" offset="0.304688"/><stop stop-opacity="1" stop-color="rgb(62.382507%, 29.551697%, 100%)" offset="0.308594"/><stop stop-opacity="1" stop-color="rgb(62.042236%, 30.155945%, 100%)" offset="0.3125"/><stop stop-opacity="1" stop-color="rgb(61.601257%, 31.010437%, 100%)" offset="0.316406"/><stop stop-opacity="1" stop-color="rgb(61.161804%, 31.864929%, 100%)" offset="0.320313"/><stop stop-opacity="1" stop-color="rgb(60.780334%, 32.591248%, 100%)" offset="0.324219"/><stop stop-opacity="1" stop-color="rgb(60.398865%, 33.317566%, 100%)" offset="0.328125"/><stop stop-opacity="1" stop-color="rgb(60.198975%, 33.908081%, 100%)" offset="0.332031"/><stop stop-opacity="1" stop-color="rgb(59.999084%, 34.498596%, 100%)" offset="0.335938"/><stop stop-opacity="1" stop-color="rgb(59.608459%, 35.279846%, 100%)" offset="0.339844"/><stop stop-opacity="1" stop-color="rgb(59.217834%, 36.061096%, 100%)" offset="0.34375"/><stop stop-opacity="1" stop-color="rgb(58.827209%, 36.642456%, 100%)" offset="0.347656"/><stop stop-opacity="1" stop-color="rgb(58.436584%, 37.223816%, 100%)" offset="0.351562"/><stop stop-opacity="1" stop-color="rgb(58.016968%, 38.05542%, 100%)" offset="0.355469"/><stop stop-opacity="1" stop-color="rgb(57.598877%, 38.887024%, 100%)" offset="0.359375"/><stop stop-opacity="1" stop-color="rgb(57.435608%, 39.468384%, 100%)" offset="0.363281"/><stop stop-opacity="1" stop-color="rgb(57.273865%, 40.049744%, 100%)" offset="0.367188"/><stop stop-opacity="1" stop-color="rgb(56.88324%, 40.830994%, 100%)" offset="0.371094"/><stop stop-opacity="1" stop-color="rgb(56.492615%, 41.612244%, 100%)" offset="0.375"/><stop stop-opacity="1" stop-color="rgb(56.10199%, 42.344666%, 100%)" offset="0.378906"/><stop stop-opacity="1" stop-color="rgb(55.711365%, 43.077087%, 100%)" offset="0.382812"/><stop stop-opacity="1" stop-color="rgb(55.32074%, 43.656921%, 100%)" offset="0.386719"/><stop stop-opacity="1" stop-color="rgb(54.930115%, 44.236755%, 100%)" offset="0.390625"/><stop stop-opacity="1" stop-color="rgb(54.689026%, 45.092773%, 100%)" offset="0.394531"/><stop stop-opacity="1" stop-color="rgb(54.449463%, 45.948792%, 100%)" offset="0.398438"/><stop stop-opacity="1" stop-color="rgb(54.058838%, 46.551514%, 100%)" offset="0.402344"/><stop stop-opacity="1" stop-color="rgb(53.668213%, 47.154236%, 100%)" offset="0.40625"/><stop stop-opacity="1" stop-color="rgb(53.277588%, 47.888184%, 100%)" offset="0.410156"/><stop stop-opacity="1" stop-color="rgb(52.886963%, 48.623657%, 100%)" offset="0.414062"/><stop stop-opacity="1" stop-color="rgb(52.545166%, 49.208069%, 100%)" offset="0.417969"/><stop stop-opacity="1" stop-color="rgb(52.203369%, 49.79248%, 100%)" offset="0.421875"/><stop stop-opacity="1" stop-color="rgb(52.000427%, 50.570679%, 100%)" offset="0.425781"/><stop stop-opacity="1" stop-color="rgb(51.799011%, 51.348877%, 100%)" offset="0.429688"/><stop stop-opacity="1" stop-color="rgb(51.420593%, 52.085876%, 100%)" offset="0.433594"/><stop stop-opacity="1" stop-color="rgb(51.043701%, 52.822876%, 100%)" offset="0.4375"/><stop stop-opacity="1" stop-color="rgb(50.602722%, 53.497314%, 100%)" offset="0.441406"/><stop stop-opacity="1" stop-color="rgb(50.161743%, 54.173279%, 100%)" offset="0.445312"/><stop stop-opacity="1" stop-color="rgb(49.771118%, 54.945374%, 100%)" offset="0.449219"/><stop stop-opacity="1" stop-color="rgb(49.380493%, 55.717468%, 100%)" offset="0.453125"/><stop stop-opacity="1" stop-color="rgb(49.189758%, 56.307983%, 100%)" offset="0.457031"/><stop stop-opacity="1" stop-color="rgb(48.999023%, 56.898499%, 100%)" offset="0.460938"/><stop stop-opacity="1" stop-color="rgb(48.608398%, 57.629395%, 100%)" offset="0.464844"/><stop stop-opacity="1" stop-color="rgb(48.217773%, 58.361816%, 100%)" offset="0.46875"/><stop stop-opacity="1" stop-color="rgb(47.872925%, 58.961487%, 100%)" offset="0.472656"/><stop stop-opacity="1" stop-color="rgb(47.528076%, 59.561157%, 100%)" offset="0.476562"/><stop stop-opacity="1" stop-color="rgb(47.091675%, 60.423279%, 100%)" offset="0.480469"/><stop stop-opacity="1" stop-color="rgb(46.655273%, 61.286926%, 100%)" offset="0.484375"/><stop stop-opacity="1" stop-color="rgb(46.464539%, 61.863708%, 100%)" offset="0.488281"/><stop stop-opacity="1" stop-color="rgb(46.273804%, 62.442017%, 100%)" offset="0.492188"/><stop stop-opacity="1" stop-color="rgb(45.883179%, 63.175964%, 100%)" offset="0.496094"/><stop stop-opacity="1" stop-color="rgb(45.492554%, 63.911438%, 100%)" offset="0.5"/><stop stop-opacity="1" stop-color="rgb(45.101929%, 64.692688%, 100%)" offset="0.503906"/><stop stop-opacity="1" stop-color="rgb(44.711304%, 65.473938%, 100%)" offset="0.507813"/><stop stop-opacity="1" stop-color="rgb(44.320679%, 66.055298%, 100%)" offset="0.511719"/><stop stop-opacity="1" stop-color="rgb(43.930054%, 66.636658%, 100%)" offset="0.515625"/><stop stop-opacity="1" stop-color="rgb(43.688965%, 67.466736%, 100%)" offset="0.519531"/><stop stop-opacity="1" stop-color="rgb(43.449402%, 68.29834%, 100%)" offset="0.523438"/><stop stop-opacity="1" stop-color="rgb(43.061829%, 68.8797%, 100%)" offset="0.527344"/><stop stop-opacity="1" stop-color="rgb(42.675781%, 69.46106%, 100%)" offset="0.53125"/><stop stop-opacity="1" stop-color="rgb(42.330933%, 70.24231%, 100%)" offset="0.535156"/><stop stop-opacity="1" stop-color="rgb(41.98761%, 71.02356%, 100%)" offset="0.539063"/><stop stop-opacity="1" stop-color="rgb(41.596985%, 71.607971%, 100%)" offset="0.542969"/><stop stop-opacity="1" stop-color="rgb(41.20636%, 72.192383%, 100%)" offset="0.546875"/><stop stop-opacity="1" stop-color="rgb(40.815735%, 72.920227%, 100%)" offset="0.550781"/><stop stop-opacity="1" stop-color="rgb(40.42511%, 73.648071%, 100%)" offset="0.554688"/><stop stop-opacity="1" stop-color="rgb(40.234375%, 74.429321%, 100%)" offset="0.558594"/><stop stop-opacity="1" stop-color="rgb(40.04364%, 75.210571%, 100%)" offset="0.5625"/><stop stop-opacity="1" stop-color="rgb(39.602661%, 75.891113%, 100%)" offset="0.566406"/><stop stop-opacity="1" stop-color="rgb(39.161682%, 76.573181%, 100%)" offset="0.570312"/><stop stop-opacity="1" stop-color="rgb(38.771057%, 77.294922%, 100%)" offset="0.574219"/><stop stop-opacity="1" stop-color="rgb(38.380432%, 78.018188%, 100%)" offset="0.578125"/><stop stop-opacity="1" stop-color="rgb(37.989807%, 78.608704%, 100%)" offset="0.582031"/><stop stop-opacity="1" stop-color="rgb(37.599182%, 79.199219%, 100%)" offset="0.585938"/><stop stop-opacity="1" stop-color="rgb(37.45575%, 79.980469%, 100%)" offset="0.589844"/><stop stop-opacity="1" stop-color="rgb(37.313843%, 80.761719%, 100%)" offset="0.59375"/><stop stop-opacity="1" stop-color="rgb(36.74469%, 81.161499%, 100%)" offset="0.597656"/><stop stop-opacity="1" stop-color="rgb(36.175537%, 81.561279%, 100%)" offset="0.601562"/><stop stop-opacity="1" stop-color="rgb(35.714722%, 81.800842%, 100%)" offset="0.605469"/><stop stop-opacity="1" stop-color="rgb(35.255432%, 82.041931%, 100%)" offset="0.609375"/><stop stop-opacity="1" stop-color="rgb(34.664917%, 82.229614%, 100%)" offset="0.613281"/><stop stop-opacity="1" stop-color="rgb(34.074402%, 82.417297%, 100%)" offset="0.617188"/><stop stop-opacity="1" stop-color="rgb(33.680725%, 82.757568%, 100%)" offset="0.621094"/><stop stop-opacity="1" stop-color="rgb(33.287048%, 83.099365%, 100%)" offset="0.625"/><stop stop-opacity="1" stop-color="rgb(32.746887%, 83.293152%, 100%)" offset="0.628906"/><stop stop-opacity="1" stop-color="rgb(32.208252%, 83.486938%, 100%)" offset="0.632812"/><stop stop-opacity="1" stop-color="rgb(31.819153%, 83.692932%, 100%)" offset="0.636719"/><stop stop-opacity="1" stop-color="rgb(31.43158%, 83.898926%, 100%)" offset="0.640625"/><stop stop-opacity="1" stop-color="rgb(30.79071%, 84.12323%, 100%)" offset="0.644531"/><stop stop-opacity="1" stop-color="rgb(30.149841%, 84.34906%, 100%)" offset="0.648438"/><stop stop-opacity="1" stop-color="rgb(29.559326%, 84.724426%, 100%)" offset="0.652344"/><stop stop-opacity="1" stop-color="rgb(28.968811%, 85.099792%, 100%)" offset="0.65625"/><stop stop-opacity="1" stop-color="rgb(28.573608%, 85.305786%, 100%)" offset="0.660156"/><stop stop-opacity="1" stop-color="rgb(28.178406%, 85.51178%, 100%)" offset="0.664063"/><stop stop-opacity="1" stop-color="rgb(27.641296%, 85.705566%, 100%)" offset="0.667969"/><stop stop-opacity="1" stop-color="rgb(27.105713%, 85.899353%, 100%)" offset="0.671875"/><stop stop-opacity="1" stop-color="rgb(26.715088%, 86.099243%, 100%)" offset="0.675781"/><stop stop-opacity="1" stop-color="rgb(26.324463%, 86.299133%, 100%)" offset="0.679688"/><stop stop-opacity="1" stop-color="rgb(25.733948%, 86.676025%, 100%)" offset="0.683594"/><stop stop-opacity="1" stop-color="rgb(25.143433%, 87.054443%, 100%)" offset="0.6875"/><stop stop-opacity="1" stop-color="rgb(24.502563%, 87.290955%, 100%)" offset="0.691406"/><stop stop-opacity="1" stop-color="rgb(23.861694%, 87.527466%, 100%)" offset="0.695312"/><stop stop-opacity="1" stop-color="rgb(23.471069%, 87.672424%, 100%)" offset="0.699219"/><stop stop-opacity="1" stop-color="rgb(23.080444%, 87.817383%, 100%)" offset="0.703125"/><stop stop-opacity="1" stop-color="rgb(22.540283%, 88.008118%, 100%)" offset="0.707031"/><stop stop-opacity="1" stop-color="rgb(22.000122%, 88.198853%, 100%)" offset="0.710938"/><stop stop-opacity="1" stop-color="rgb(21.609497%, 88.589478%, 100%)" offset="0.714844"/><stop stop-opacity="1" stop-color="rgb(21.218872%, 88.980103%, 100%)" offset="0.71875"/><stop stop-opacity="1" stop-color="rgb(20.628357%, 89.170837%, 100%)" offset="0.722656"/><stop stop-opacity="1" stop-color="rgb(20.037842%, 89.361572%, 100%)" offset="0.726562"/><stop stop-opacity="1" stop-color="rgb(19.5755%, 89.601135%, 100%)" offset="0.730469"/><stop stop-opacity="1" stop-color="rgb(19.113159%, 89.842224%, 100%)" offset="0.734375"/><stop stop-opacity="1" stop-color="rgb(18.544006%, 90.220642%, 100%)" offset="0.738281"/><stop stop-opacity="1" stop-color="rgb(17.974854%, 90.59906%, 100%)" offset="0.742188"/><stop stop-opacity="1" stop-color="rgb(17.433167%, 90.79895%, 100%)" offset="0.746094"/><stop stop-opacity="1" stop-color="rgb(16.893005%, 90.99884%, 100%)" offset="0.75"/><stop stop-opacity="1" stop-color="rgb(16.50238%, 91.192627%, 100%)" offset="0.753906"/><stop stop-opacity="1" stop-color="rgb(16.111755%, 91.386414%, 100%)" offset="0.757812"/><stop stop-opacity="1" stop-color="rgb(15.536499%, 91.592407%, 100%)" offset="0.761719"/><stop stop-opacity="1" stop-color="rgb(14.962769%, 91.799927%, 100%)" offset="0.765625"/><stop stop-opacity="1" stop-color="rgb(14.480591%, 92.149353%, 100%)" offset="0.769531"/><stop stop-opacity="1" stop-color="rgb(13.999939%, 92.498779%, 100%)" offset="0.773438"/><stop stop-opacity="1" stop-color="rgb(13.433838%, 92.698669%, 100%)" offset="0.777344"/><stop stop-opacity="1" stop-color="rgb(12.869263%, 92.89856%, 100%)" offset="0.78125"/><stop stop-opacity="1" stop-color="rgb(12.521362%, 93.104553%, 100%)" offset="0.785156"/><stop stop-opacity="1" stop-color="rgb(12.174988%, 93.310547%, 100%)" offset="0.789063"/><stop stop-opacity="1" stop-color="rgb(11.590576%, 93.504333%, 100%)" offset="0.792969"/><stop stop-opacity="1" stop-color="rgb(11.006165%, 93.699646%, 100%)" offset="0.796875"/><stop stop-opacity="1" stop-color="rgb(10.427856%, 94.085693%, 100%)" offset="0.800781"/><stop stop-opacity="1" stop-color="rgb(9.851074%, 94.473267%, 100%)" offset="0.804688"/><stop stop-opacity="1" stop-color="rgb(9.446716%, 94.664001%, 100%)" offset="0.808594"/><stop stop-opacity="1" stop-color="rgb(9.043884%, 94.854736%, 100%)" offset="0.8125"/><stop stop-opacity="1" stop-color="rgb(8.407593%, 95.094299%, 100%)" offset="0.816406"/><stop stop-opacity="1" stop-color="rgb(7.771301%, 95.335388%, 100%)" offset="0.820312"/><stop stop-opacity="1" stop-color="rgb(7.417297%, 95.526123%, 100%)" offset="0.824219"/><stop stop-opacity="1" stop-color="rgb(7.063293%, 95.716858%, 100%)" offset="0.828125"/><stop stop-opacity="1" stop-color="rgb(6.481934%, 96.107483%, 100%)" offset="0.832031"/><stop stop-opacity="1" stop-color="rgb(5.900574%, 96.498108%, 100%)" offset="0.835938"/><stop stop-opacity="1" stop-color="rgb(5.319214%, 96.688843%, 100%)" offset="0.839844"/><stop stop-opacity="1" stop-color="rgb(4.737854%, 96.879578%, 100%)" offset="0.84375"/><stop stop-opacity="1" stop-color="rgb(4.336548%, 97.070312%, 100%)" offset="0.847656"/><stop stop-opacity="1" stop-color="rgb(3.936768%, 97.261047%, 100%)" offset="0.851562"/><stop stop-opacity="1" stop-color="rgb(3.916931%, 97.279358%, 100%)" offset="0.859375"/><stop stop-opacity="1" stop-color="rgb(3.898621%, 97.299194%, 100%)" offset="0.875"/><stop stop-opacity="1" stop-color="rgb(3.898621%, 97.299194%, 100%)" offset="1"/></linearGradient><clipPath id="5cbbe8cb5c"><path d="M 49 42.914062 L 62.078125 42.914062 L 62.078125 56 L 49 56 Z M 49 42.914062 " clip-rule="nonzero"/></clipPath><clipPath id="ce727a994e"><path d="M 49.238281 43 L 80.910156 43 L 80.910156 75 L 49.238281 75 Z M 49.238281 43 " clip-rule="nonzero"/></clipPath><clipPath id="9c1d4c26ed"><path d="M 86.046875 80.546875 L 100 80.546875 L 100 93.632812 L 86.046875 93.632812 Z M 86.046875 80.546875 " clip-rule="nonzero"/></clipPath><clipPath id="2ca3ffef96"><path d="M 68.070312 62 L 100 62 L 100 93.632812 L 68.070312 93.632812 Z M 68.070312 62 " clip-rule="nonzero"/></clipPath><clipPath id="ef599434a3"><path d="M 49.238281 42.914062 L 100.300781 42.914062 L 100.300781 93.386719 L 49.238281 93.386719 Z M 49.238281 42.914062 " clip-rule="nonzero"/></clipPath></defs><g clip-path="url(#4aba086b25)"><g clip-path="url(#94cb9968a7)"><g clip-path="url(#c6d20bce3b)"><g clip-path="url(#37f408b861)"><g clip-path="url(#25a724b170)"><path fill="url(#188d059d88)" d="M -8.359375 78.355469 L 86.757812 149.269531 L 157.675781 54.152344 L 62.554688 -16.765625 Z M -8.359375 78.355469 " fill-rule="nonzero"/></g></g></g></g></g><g clip-path="url(#5cbbe8cb5c)"><path fill="#0f0246" d="M 50.34375 49.082031 L 55.34375 44.070312 C 55.53125 43.894531 55.730469 43.734375 55.949219 43.597656 C 56.164062 43.457031 56.390625 43.339844 56.628906 43.246094 C 56.867188 43.152344 57.113281 43.078125 57.367188 43.03125 C 57.621094 42.984375 57.875 42.964844 58.132812 42.964844 C 58.386719 42.96875 58.644531 42.996094 58.894531 43.046875 C 59.144531 43.101562 59.386719 43.175781 59.625 43.277344 C 59.863281 43.375 60.085938 43.496094 60.300781 43.640625 C 60.515625 43.785156 60.710938 43.949219 60.894531 44.128906 C 61.078125 44.3125 61.238281 44.507812 61.382812 44.722656 C 61.523438 44.9375 61.644531 45.160156 61.746094 45.398438 C 61.847656 45.636719 61.917969 45.878906 61.972656 46.132812 C 62.023438 46.386719 62.054688 46.640625 62.054688 46.898438 C 62.054688 47.15625 62.035156 47.410156 61.988281 47.664062 C 61.941406 47.914062 61.871094 48.160156 61.777344 48.402344 C 61.683594 48.640625 61.566406 48.867188 61.425781 49.082031 C 61.289062 49.300781 61.128906 49.5 60.949219 49.6875 L 55.949219 54.699219 C 55.761719 54.878906 55.5625 55.035156 55.34375 55.175781 C 55.128906 55.3125 54.902344 55.429688 54.664062 55.527344 C 54.421875 55.621094 54.179688 55.691406 53.925781 55.738281 C 53.671875 55.785156 53.417969 55.808594 53.164062 55.804688 C 52.90625 55.800781 52.652344 55.773438 52.398438 55.722656 C 52.148438 55.671875 51.90625 55.59375 51.667969 55.492188 C 51.429688 55.398438 51.207031 55.273438 50.992188 55.128906 C 50.777344 54.984375 50.582031 54.824219 50.398438 54.640625 C 50.214844 54.460938 50.054688 54.261719 49.910156 54.050781 C 49.769531 53.835938 49.648438 53.609375 49.546875 53.375 C 49.449219 53.136719 49.375 52.890625 49.320312 52.636719 C 49.265625 52.386719 49.238281 52.132812 49.238281 51.875 C 49.238281 51.617188 49.257812 51.359375 49.304688 51.109375 C 49.351562 50.855469 49.425781 50.609375 49.515625 50.371094 C 49.609375 50.128906 49.726562 49.902344 49.867188 49.6875 C 50.003906 49.472656 50.167969 49.269531 50.34375 49.082031 Z M 50.34375 49.082031 " fill-opacity="1" fill-rule="nonzero"/></g><g clip-path="url(#ce727a994e)"><path fill="#0f0246" d="M 50.703125 67.730469 L 74.199219 44.195312 C 74.386719 44.019531 74.585938 43.859375 74.804688 43.71875 C 75.019531 43.578125 75.246094 43.464844 75.484375 43.371094 C 75.726562 43.273438 75.96875 43.203125 76.222656 43.15625 C 76.476562 43.109375 76.730469 43.089844 76.988281 43.089844 C 77.242188 43.09375 77.496094 43.117188 77.75 43.171875 C 78 43.222656 78.242188 43.300781 78.480469 43.398438 C 78.71875 43.5 78.941406 43.621094 79.15625 43.765625 C 79.371094 43.90625 79.566406 44.070312 79.75 44.253906 C 79.933594 44.4375 80.09375 44.632812 80.238281 44.847656 C 80.378906 45.058594 80.5 45.285156 80.601562 45.523438 C 80.703125 45.761719 80.773438 46.003906 80.828125 46.253906 C 80.882812 46.507812 80.910156 46.761719 80.910156 47.019531 C 80.910156 47.277344 80.890625 47.53125 80.84375 47.785156 C 80.796875 48.039062 80.726562 48.285156 80.632812 48.527344 C 80.539062 48.761719 80.421875 48.992188 80.28125 49.207031 C 80.144531 49.425781 79.984375 49.625 79.804688 49.808594 L 56.3125 73.347656 C 56.128906 73.539062 55.925781 73.710938 55.714844 73.859375 C 55.496094 74.011719 55.265625 74.136719 55.023438 74.242188 C 54.78125 74.347656 54.53125 74.425781 54.273438 74.484375 C 54.015625 74.535156 53.753906 74.566406 53.488281 74.570312 C 53.230469 74.570312 52.964844 74.546875 52.707031 74.5 C 52.449219 74.449219 52.195312 74.371094 51.953125 74.277344 C 51.707031 74.175781 51.476562 74.050781 51.257812 73.90625 C 51.039062 73.761719 50.835938 73.59375 50.648438 73.40625 C 50.460938 73.21875 50.296875 73.015625 50.148438 72.792969 C 50.003906 72.578125 49.882812 72.34375 49.78125 72.097656 C 49.679688 71.855469 49.609375 71.601562 49.558594 71.34375 C 49.507812 71.082031 49.484375 70.820312 49.488281 70.558594 C 49.492188 70.292969 49.515625 70.03125 49.574219 69.773438 C 49.628906 69.515625 49.707031 69.261719 49.8125 69.023438 C 49.914062 68.777344 50.046875 68.550781 50.195312 68.332031 C 50.347656 68.117188 50.515625 67.914062 50.703125 67.730469 Z M 50.703125 67.730469 " fill-opacity="1" fill-rule="nonzero"/></g><g clip-path="url(#9c1d4c26ed)"><path fill="#0f0246" d="M 98.660156 87.464844 L 93.660156 92.476562 C 93.472656 92.660156 93.273438 92.824219 93.054688 92.96875 C 92.84375 93.109375 92.613281 93.234375 92.371094 93.335938 C 92.132812 93.433594 91.882812 93.507812 91.628906 93.558594 C 91.375 93.609375 91.117188 93.632812 90.855469 93.632812 C 90.59375 93.632812 90.339844 93.609375 90.082031 93.558594 C 89.828125 93.507812 89.582031 93.433594 89.339844 93.335938 C 89.101562 93.234375 88.875 93.109375 88.65625 92.96875 C 88.4375 92.824219 88.238281 92.660156 88.054688 92.476562 C 87.871094 92.292969 87.707031 92.089844 87.5625 91.878906 C 87.414062 91.660156 87.296875 91.429688 87.195312 91.1875 C 87.09375 90.949219 87.019531 90.699219 86.972656 90.441406 C 86.921875 90.1875 86.894531 89.929688 86.894531 89.671875 C 86.894531 89.410156 86.921875 89.152344 86.972656 88.894531 C 87.019531 88.640625 87.09375 88.390625 87.195312 88.148438 C 87.296875 87.90625 87.414062 87.679688 87.5625 87.464844 C 87.707031 87.246094 87.871094 87.046875 88.054688 86.863281 L 93.054688 81.847656 C 93.242188 81.671875 93.445312 81.515625 93.660156 81.375 C 93.875 81.234375 94.101562 81.117188 94.339844 81.023438 C 94.582031 80.929688 94.824219 80.859375 95.078125 80.808594 C 95.332031 80.761719 95.585938 80.742188 95.84375 80.746094 C 96.097656 80.746094 96.351562 80.777344 96.605469 80.824219 C 96.859375 80.878906 97.101562 80.953125 97.335938 81.054688 C 97.574219 81.152344 97.800781 81.273438 98.011719 81.417969 C 98.226562 81.5625 98.421875 81.726562 98.605469 81.90625 C 98.789062 82.089844 98.949219 82.289062 99.09375 82.5 C 99.234375 82.714844 99.355469 82.9375 99.457031 83.175781 C 99.558594 83.414062 99.632812 83.660156 99.683594 83.914062 C 99.738281 84.164062 99.765625 84.417969 99.765625 84.675781 C 99.765625 84.933594 99.746094 85.1875 99.699219 85.441406 C 99.652344 85.695312 99.582031 85.9375 99.488281 86.179688 C 99.394531 86.417969 99.277344 86.648438 99.140625 86.863281 C 99 87.078125 98.839844 87.28125 98.660156 87.464844 Z M 98.660156 87.464844 " fill-opacity="1" fill-rule="nonzero"/></g><g clip-path="url(#2ca3ffef96)"><path fill="#0f0246" d="M 98.777344 68.816406 L 75.285156 92.375 C 75.097656 92.550781 74.898438 92.714844 74.679688 92.851562 C 74.464844 92.992188 74.238281 93.109375 73.996094 93.203125 C 73.757812 93.296875 73.511719 93.367188 73.261719 93.414062 C 73.007812 93.460938 72.753906 93.484375 72.496094 93.480469 C 72.242188 93.480469 71.984375 93.453125 71.734375 93.398438 C 71.484375 93.347656 71.238281 93.273438 71 93.171875 C 70.765625 93.070312 70.539062 92.949219 70.324219 92.808594 C 70.113281 92.664062 69.914062 92.503906 69.734375 92.320312 C 69.554688 92.136719 69.390625 91.941406 69.246094 91.726562 C 69.101562 91.511719 68.980469 91.285156 68.882812 91.046875 C 68.785156 90.808594 68.707031 90.566406 68.652344 90.316406 C 68.605469 90.066406 68.578125 89.808594 68.574219 89.550781 C 68.570312 89.292969 68.59375 89.039062 68.640625 88.785156 C 68.6875 88.535156 68.757812 88.285156 68.851562 88.046875 C 68.949219 87.808594 69.066406 87.582031 69.203125 87.363281 C 69.34375 87.144531 69.5 86.945312 69.675781 86.761719 L 93.171875 63.203125 C 93.359375 63.023438 93.558594 62.863281 93.777344 62.726562 C 93.992188 62.585938 94.21875 62.46875 94.457031 62.375 C 94.695312 62.277344 94.941406 62.207031 95.191406 62.160156 C 95.449219 62.113281 95.703125 62.089844 95.957031 62.09375 C 96.214844 62.097656 96.46875 62.125 96.722656 62.179688 C 96.972656 62.226562 97.214844 62.304688 97.453125 62.40625 C 97.691406 62.503906 97.914062 62.625 98.128906 62.769531 C 98.34375 62.914062 98.539062 63.078125 98.722656 63.257812 C 98.90625 63.4375 99.066406 63.640625 99.210938 63.851562 C 99.351562 64.0625 99.472656 64.292969 99.574219 64.527344 C 99.671875 64.765625 99.746094 65.011719 99.800781 65.261719 C 99.851562 65.515625 99.882812 65.769531 99.882812 66.027344 C 99.882812 66.285156 99.863281 66.539062 99.816406 66.792969 C 99.769531 67.042969 99.695312 67.289062 99.605469 67.53125 C 99.511719 67.769531 99.394531 67.996094 99.253906 68.214844 C 99.117188 68.429688 98.953125 68.632812 98.777344 68.816406 Z M 98.777344 68.816406 " fill-opacity="1" fill-rule="nonzero"/></g><g clip-path="url(#ef599434a3)"><path fill="#0f0246" d="M 100.011719 47.59375 L 100.011719 53.824219 C 100.011719 54.238281 99.949219 54.644531 99.8125 55.039062 C 99.679688 55.429688 99.488281 55.792969 99.230469 56.117188 C 98.976562 56.445312 98.679688 56.726562 98.332031 56.953125 C 97.988281 57.1875 97.613281 57.351562 97.214844 57.457031 C 96.816406 57.558594 96.40625 57.597656 95.992188 57.566406 C 95.582031 57.535156 95.183594 57.4375 94.800781 57.273438 C 94.421875 57.113281 94.078125 56.890625 93.769531 56.613281 C 93.460938 56.332031 93.207031 56.015625 93.007812 55.652344 L 56.628906 92.035156 C 56.445312 92.210938 56.246094 92.371094 56.027344 92.507812 C 55.808594 92.648438 55.582031 92.765625 55.34375 92.859375 C 55.109375 92.953125 54.859375 93.027344 54.609375 93.074219 C 54.355469 93.121094 54.101562 93.140625 53.84375 93.140625 C 53.585938 93.136719 53.332031 93.109375 53.082031 93.058594 C 52.832031 93.003906 52.585938 92.929688 52.351562 92.832031 C 52.113281 92.730469 51.886719 92.609375 51.675781 92.464844 C 51.460938 92.320312 51.261719 92.15625 51.082031 91.976562 C 50.898438 91.792969 50.738281 91.597656 50.59375 91.382812 C 50.449219 91.167969 50.328125 90.945312 50.230469 90.707031 C 50.128906 90.46875 50.054688 90.226562 50.003906 89.972656 C 49.953125 89.71875 49.921875 89.464844 49.921875 89.207031 C 49.917969 88.953125 49.9375 88.699219 49.984375 88.441406 C 50.03125 88.191406 50.105469 87.945312 50.199219 87.703125 C 50.292969 87.464844 50.410156 87.238281 50.550781 87.023438 C 50.6875 86.804688 50.847656 86.605469 51.027344 86.421875 L 87.210938 50.191406 C 86.808594 50.023438 86.449219 49.796875 86.128906 49.5 C 85.808594 49.210938 85.542969 48.875 85.339844 48.488281 C 85.136719 48.109375 85 47.699219 84.9375 47.273438 C 84.878906 46.839844 84.886719 46.414062 84.976562 45.988281 C 85.058594 45.558594 85.214844 45.160156 85.4375 44.789062 C 85.664062 44.414062 85.945312 44.09375 86.28125 43.820312 C 86.617188 43.546875 86.992188 43.335938 87.398438 43.191406 C 87.808594 43.046875 88.230469 42.976562 88.664062 42.980469 L 95.5625 42.980469 C 95.871094 42.933594 96.183594 42.929688 96.492188 42.953125 C 96.804688 42.984375 97.109375 43.046875 97.402344 43.152344 C 97.699219 43.253906 97.980469 43.386719 98.246094 43.554688 C 98.511719 43.71875 98.75 43.917969 98.96875 44.144531 C 99.1875 44.371094 99.371094 44.617188 99.53125 44.886719 C 99.691406 45.160156 99.8125 45.441406 99.90625 45.742188 C 99.996094 46.042969 100.050781 46.347656 100.066406 46.660156 C 100.089844 46.972656 100.066406 47.285156 100.011719 47.59375 Z M 100.011719 47.59375 " fill-opacity="1" fill-rule="nonzero"/></g><path fill="#0af8ff" d="M 146.140625 90.273438 L 146.140625 80.980469 L 144.109375 80.980469 L 144.109375 90.273438 Z M 146.140625 90.273438 " fill-opacity="1" fill-rule="nonzero"/><path fill="#0af8ff" d="M 151.675781 83.300781 C 150.402344 83.300781 149.660156 84.257812 149.460938 84.734375 L 149.460938 83.367188 L 147.519531 83.367188 L 147.519531 90.273438 L 149.460938 90.273438 L 149.460938 86.195312 C 149.527344 85.757812 149.992188 84.910156 150.960938 84.910156 C 151.648438 84.910156 152.195312 85.265625 152.195312 86.222656 L 152.195312 90.273438 L 154.132812 90.273438 L 154.132812 86.117188 C 154.132812 84.019531 153.097656 83.300781 151.675781 83.300781 Z M 151.675781 83.300781 " fill-opacity="1" fill-rule="nonzero"/><path fill="#0af8ff" d="M 159.839844 90.273438 L 162.492188 83.367188 L 160.554688 83.367188 L 158.777344 88.332031 L 156.984375 83.367188 L 155.042969 83.367188 L 157.703125 90.273438 Z M 159.839844 90.273438 " fill-opacity="1" fill-rule="nonzero"/><path fill="#0af8ff" d="M 169.777344 87.070312 C 169.777344 84.285156 168.199219 83.300781 166.488281 83.300781 C 164.894531 83.300781 163.074219 84.285156 163.074219 86.863281 C 163.074219 89.394531 164.90625 90.367188 166.476562 90.367188 C 168.148438 90.367188 169.195312 89.6875 169.59375 88.292969 L 167.90625 88.292969 C 167.707031 88.695312 167.3125 88.929688 166.578125 88.929688 C 165.640625 88.929688 165.09375 88.492188 164.945312 87.429688 L 169.765625 87.429688 C 169.777344 87.3125 169.777344 87.207031 169.777344 87.070312 Z M 164.960938 86.234375 C 165.105469 85.226562 165.640625 84.734375 166.488281 84.734375 C 167.40625 84.734375 167.90625 85.332031 167.933594 86.234375 Z M 164.960938 86.234375 " fill-opacity="1" fill-rule="nonzero"/><path fill="#0af8ff" d="M 174.664062 85.507812 L 176.402344 85.507812 C 176.175781 84.191406 175.300781 83.300781 173.46875 83.300781 C 171.703125 83.300781 170.652344 84.074219 170.652344 85.359375 C 170.652344 86.304688 171.199219 86.992188 172.761719 87.339844 L 173.878906 87.578125 C 174.398438 87.683594 174.609375 87.839844 174.609375 88.203125 C 174.609375 88.625 174.265625 88.929688 173.496094 88.929688 C 172.777344 88.929688 172.351562 88.652344 172.207031 88.070312 L 170.425781 88.070312 C 170.628906 89.597656 171.714844 90.367188 173.484375 90.367188 C 175.234375 90.367188 176.546875 89.6875 176.546875 88.230469 C 176.546875 86.792969 175.660156 86.621094 174.421875 86.34375 L 173.1875 86.0625 C 172.710938 85.957031 172.460938 85.757812 172.460938 85.414062 C 172.460938 84.976562 172.871094 84.734375 173.484375 84.734375 C 174.117188 84.734375 174.503906 84.933594 174.664062 85.507812 Z M 174.664062 85.507812 " fill-opacity="1" fill-rule="nonzero"/><path fill="#0af8ff" d="M 180.820312 88.851562 C 180.261719 88.851562 180.078125 88.574219 180.078125 88.148438 L 180.078125 84.882812 L 181.472656 84.882812 L 181.472656 83.367188 L 180.078125 83.367188 L 180.078125 81.640625 L 178.136719 81.640625 L 178.136719 83.367188 L 176.996094 83.367188 L 176.996094 84.882812 L 178.136719 84.882812 L 178.136719 88.359375 C 178.136719 90.019531 179.082031 90.351562 180.273438 90.351562 C 180.792969 90.351562 181.242188 90.273438 181.539062 90.152344 L 181.539062 88.757812 C 181.242188 88.824219 181.019531 88.851562 180.820312 88.851562 Z M 180.820312 88.851562 " fill-opacity="1" fill-rule="nonzero"/><path fill="#0af8ff" d="M 191.082031 83.300781 C 189.953125 83.300781 189.089844 84.113281 188.800781 84.789062 C 188.453125 83.714844 187.628906 83.300781 186.632812 83.300781 C 185.359375 83.300781 184.710938 84.257812 184.523438 84.734375 L 184.523438 83.367188 L 182.582031 83.367188 L 182.582031 90.273438 L 184.523438 90.273438 L 184.523438 86.210938 C 184.5625 85.71875 184.972656 84.910156 185.917969 84.910156 C 186.527344 84.910156 187.046875 85.292969 187.046875 86.289062 L 187.046875 90.273438 L 188.984375 90.273438 L 188.984375 86.128906 C 188.984375 85.785156 189.421875 84.910156 190.378906 84.910156 C 191.015625 84.910156 191.519531 85.292969 191.519531 86.289062 L 191.519531 90.273438 L 193.457031 90.273438 L 193.457031 86.25 C 193.457031 84.097656 192.382812 83.300781 191.082031 83.300781 Z M 191.082031 83.300781 " fill-opacity="1" fill-rule="nonzero"/><path fill="#0af8ff" d="M 201.207031 87.070312 C 201.207031 84.285156 199.628906 83.300781 197.914062 83.300781 C 196.320312 83.300781 194.5 84.285156 194.5 86.863281 C 194.5 89.394531 196.332031 90.367188 197.902344 90.367188 C 199.574219 90.367188 200.625 89.6875 201.023438 88.292969 L 199.332031 88.292969 C 199.136719 88.695312 198.738281 88.929688 198.003906 88.929688 C 197.066406 88.929688 196.519531 88.492188 196.375 87.429688 L 201.191406 87.429688 C 201.207031 87.3125 201.207031 87.207031 201.207031 87.070312 Z M 196.386719 86.234375 C 196.535156 85.226562 197.066406 84.734375 197.914062 84.734375 C 198.832031 84.734375 199.332031 85.332031 199.359375 86.234375 Z M 196.386719 86.234375 " fill-opacity="1" fill-rule="nonzero"/><path fill="#0af8ff" d="M 206.40625 83.300781 C 205.132812 83.300781 204.390625 84.257812 204.191406 84.734375 L 204.191406 83.367188 L 202.25 83.367188 L 202.25 90.273438 L 204.191406 90.273438 L 204.191406 86.195312 C 204.257812 85.757812 204.722656 84.910156 205.691406 84.910156 C 206.378906 84.910156 206.925781 85.265625 206.925781 86.222656 L 206.925781 90.273438 L 208.863281 90.273438 L 208.863281 86.117188 C 208.863281 84.019531 207.828125 83.300781 206.40625 83.300781 Z M 206.40625 83.300781 " fill-opacity="1" fill-rule="nonzero"/><path fill="#0af8ff" d="M 213.535156 88.851562 C 212.976562 88.851562 212.792969 88.574219 212.792969 88.148438 L 212.792969 84.882812 L 214.1875 84.882812 L 214.1875 83.367188 L 212.792969 83.367188 L 212.792969 81.640625 L 210.851562 81.640625 L 210.851562 83.367188 L 209.710938 83.367188 L 209.710938 84.882812 L 210.851562 84.882812 L 210.851562 88.359375 C 210.851562 90.019531 211.796875 90.351562 212.988281 90.351562 C 213.507812 90.351562 213.957031 90.273438 214.253906 90.152344 L 214.253906 88.757812 C 213.957031 88.824219 213.734375 88.851562 213.535156 88.851562 Z M 213.535156 88.851562 " fill-opacity="1" fill-rule="nonzero"/><path fill="#0af8ff" d="M 227.417969 90.273438 L 225.785156 88.507812 C 226.277344 87.722656 226.621094 86.699219 226.726562 85.386719 L 224.976562 85.386719 C 224.960938 86.074219 224.800781 86.6875 224.5625 87.179688 L 222.996094 85.492188 C 224.152344 84.867188 224.789062 84.125 224.789062 83.0625 C 224.789062 81.882812 224.046875 80.792969 222.242188 80.792969 C 220.367188 80.792969 219.640625 81.882812 219.640625 83.0625 C 219.640625 83.804688 220.011719 84.46875 220.609375 85.199219 C 219.769531 85.609375 218.640625 86.25 218.640625 87.617188 C 218.640625 89.476562 220.355469 90.433594 222.199219 90.433594 C 223.101562 90.433594 223.964844 90.191406 224.695312 89.660156 L 225.265625 90.273438 Z M 222.242188 82.214844 C 222.851562 82.214844 223.171875 82.625 223.171875 83.101562 C 223.171875 83.488281 223.023438 83.925781 222.039062 84.457031 C 221.472656 83.820312 221.242188 83.5 221.242188 83.101562 C 221.242188 82.636719 221.574219 82.214844 222.242188 82.214844 Z M 222.214844 88.769531 C 221.324219 88.769531 220.738281 88.242188 220.738281 87.578125 C 220.738281 87.246094 220.871094 86.742188 221.5625 86.289062 L 223.5 88.371094 C 223.101562 88.640625 222.652344 88.769531 222.214844 88.769531 Z M 222.214844 88.769531 " fill-opacity="1" fill-rule="nonzero"/><path fill="#0af8ff" d="M 238.988281 80.980469 L 231.605469 80.980469 L 231.605469 82.730469 L 234.289062 82.730469 L 234.289062 90.273438 L 236.320312 90.273438 L 236.320312 82.730469 L 238.988281 82.730469 Z M 238.988281 80.980469 " fill-opacity="1" fill-rule="nonzero"/><path fill="#0af8ff" d="M 243.964844 83.300781 C 242.78125 83.300781 242.109375 83.964844 241.90625 84.894531 L 241.90625 83.367188 L 239.96875 83.367188 L 239.96875 90.273438 L 241.90625 90.273438 L 241.90625 86.59375 C 242.066406 85.636719 242.691406 85.042969 244.109375 85.042969 C 244.203125 85.042969 244.296875 85.042969 244.5625 85.054688 L 244.5625 83.355469 C 244.296875 83.300781 244.109375 83.300781 243.964844 83.300781 Z M 243.964844 83.300781 " fill-opacity="1" fill-rule="nonzero"/><path fill="#0af8ff" d="M 251.558594 88.480469 L 251.558594 86.195312 C 251.558594 84.167969 250.722656 83.300781 248.542969 83.300781 C 246.710938 83.300781 245.730469 84.046875 245.59375 85.492188 L 247.429688 85.492188 C 247.519531 84.882812 247.984375 84.722656 248.53125 84.722656 C 249.007812 84.722656 249.617188 84.828125 249.617188 85.730469 L 249.617188 85.746094 C 249.234375 85.972656 248.519531 86.035156 247.761719 86.183594 C 246.5 86.410156 245.210938 86.675781 245.210938 88.242188 C 245.210938 89.765625 246.355469 90.367188 247.5625 90.367188 C 249.179688 90.367188 249.726562 89.34375 249.832031 89.167969 L 249.832031 89.222656 C 249.832031 89.96875 250.507812 90.324219 251.359375 90.324219 C 251.636719 90.324219 251.824219 90.3125 252.0625 90.207031 L 252.0625 89.105469 C 251.746094 89.078125 251.558594 88.890625 251.558594 88.480469 Z M 249.617188 88.09375 C 249.488281 88.332031 249.007812 88.984375 248.09375 88.984375 C 247.429688 88.984375 247.148438 88.585938 247.148438 88.160156 C 247.148438 87.722656 247.402344 87.46875 248.054688 87.3125 C 248.679688 87.179688 249.128906 87.125 249.617188 86.875 Z M 249.617188 88.09375 " fill-opacity="1" fill-rule="nonzero"/><path fill="#0af8ff" d="M 255.683594 83.300781 C 254.421875 83.300781 252.644531 84.285156 252.644531 86.820312 C 252.644531 89.410156 254.433594 90.367188 255.722656 90.367188 C 257.050781 90.367188 257.566406 89.382812 257.566406 89.222656 L 257.566406 90.273438 L 259.507812 90.273438 L 259.507812 80.898438 L 257.566406 80.898438 L 257.566406 84.242188 C 257.34375 83.84375 256.652344 83.300781 255.683594 83.300781 Z M 256.109375 88.796875 C 255.21875 88.796875 254.515625 88.203125 254.515625 86.820312 C 254.515625 85.453125 255.21875 84.867188 256.109375 84.867188 C 256.960938 84.867188 257.648438 85.492188 257.648438 86.820312 C 257.648438 88.160156 256.960938 88.796875 256.109375 88.796875 Z M 256.109375 88.796875 " fill-opacity="1" fill-rule="nonzero"/><path fill="#0af8ff" d="M 260.882812 80.859375 L 260.882812 82.332031 L 262.824219 82.332031 L 262.824219 80.859375 Z M 260.882812 83.367188 L 260.882812 90.273438 L 262.824219 90.273438 L 262.824219 83.367188 Z M 260.882812 83.367188 " fill-opacity="1" fill-rule="nonzero"/><path fill="#0af8ff" d="M 268.355469 83.300781 C 267.082031 83.300781 266.339844 84.257812 266.140625 84.734375 L 266.140625 83.367188 L 264.199219 83.367188 L 264.199219 90.273438 L 266.140625 90.273438 L 266.140625 86.195312 C 266.207031 85.757812 266.671875 84.910156 267.640625 84.910156 C 268.332031 84.910156 268.875 85.265625 268.875 86.222656 L 268.875 90.273438 L 270.816406 90.273438 L 270.816406 86.117188 C 270.816406 84.019531 269.777344 83.300781 268.355469 83.300781 Z M 268.355469 83.300781 " fill-opacity="1" fill-rule="nonzero"/><path fill="#0af8ff" d="M 276.730469 83.328125 L 276.730469 84.242188 C 276.492188 83.84375 275.816406 83.300781 274.847656 83.300781 C 273.625 83.300781 271.859375 84.285156 271.859375 86.820312 C 271.859375 89.394531 273.636719 90.351562 274.875 90.351562 C 276.214844 90.351562 276.730469 89.382812 276.730469 89.222656 L 276.730469 90.085938 C 276.730469 91.175781 276.230469 91.613281 275.074219 91.613281 C 274.101562 91.613281 273.664062 91.214844 273.386719 90.910156 L 272.191406 91.667969 C 272.65625 92.582031 273.785156 93.195312 275.257812 93.195312 C 276.574219 93.195312 278.671875 92.703125 278.671875 90.085938 L 278.671875 83.328125 Z M 275.300781 88.785156 C 274.460938 88.785156 273.785156 88.1875 273.785156 86.820312 C 273.785156 85.453125 274.460938 84.867188 275.300781 84.867188 C 276.148438 84.867188 276.8125 85.492188 276.8125 86.820312 C 276.8125 88.160156 276.148438 88.785156 275.300781 88.785156 Z M 275.300781 88.785156 " fill-opacity="1" fill-rule="nonzero"/><path fill="#0af8ff" d="M 287.71875 88.640625 C 286.300781 88.640625 285.515625 87.46875 285.515625 85.625 C 285.515625 83.765625 286.300781 82.613281 287.71875 82.613281 C 288.71875 82.613281 289.167969 83.035156 289.511719 83.9375 L 291.519531 83.9375 C 291.292969 81.867188 289.605469 80.859375 287.679688 80.859375 C 285.132812 80.859375 283.394531 82.542969 283.394531 85.625 C 283.394531 88.703125 285.132812 90.390625 287.679688 90.390625 C 289.621094 90.390625 291.320312 89.382812 291.546875 87.300781 L 289.527344 87.300781 C 289.195312 88.214844 288.730469 88.640625 287.71875 88.640625 Z M 287.71875 88.640625 " fill-opacity="1" fill-rule="nonzero"/><path fill="#0af8ff" d="M 295.722656 83.300781 C 294.261719 83.300781 292.296875 84.269531 292.296875 86.847656 C 292.296875 89.394531 294.261719 90.367188 295.722656 90.367188 C 297.183594 90.367188 299.148438 89.394531 299.148438 86.847656 C 299.148438 84.269531 297.183594 83.300781 295.722656 83.300781 Z M 297.289062 86.847656 C 297.289062 88.203125 296.546875 88.796875 295.722656 88.796875 C 294.898438 88.796875 294.15625 88.203125 294.15625 86.847656 C 294.15625 85.425781 294.898438 84.867188 295.722656 84.867188 C 296.546875 84.867188 297.289062 85.425781 297.289062 86.847656 Z M 297.289062 86.847656 " fill-opacity="1" fill-rule="nonzero"/><path fill="#0af8ff" d="M 300.167969 88.070312 L 300.167969 90.273438 L 302.265625 90.273438 L 302.265625 88.070312 Z M 300.167969 88.070312 " fill-opacity="1" fill-rule="nonzero"/><path fill="#000000" d="M 155.203125 73.9375 L 158.117188 73.9375 L 149.082031 51.257812 L 146.714844 51.257812 L 137.707031 73.9375 L 140.625 73.9375 L 142.828125 68.136719 L 153 68.136719 Z M 143.605469 66.066406 L 147.914062 54.757812 L 152.222656 66.066406 Z M 143.605469 66.066406 " fill-opacity="1" fill-rule="nonzero"/><path fill="#000000" d="M 169.226562 56.929688 C 165.988281 56.929688 164.011719 58.90625 163.460938 61.171875 L 163.460938 57.089844 L 160.867188 57.089844 L 160.867188 73.9375 L 163.460938 73.9375 L 163.460938 64.089844 C 164.011719 61.140625 165.988281 59.261719 169.421875 59.261719 C 169.644531 59.261719 169.941406 59.261719 170.425781 59.292969 L 170.425781 56.992188 C 169.941406 56.929688 169.582031 56.929688 169.226562 56.929688 Z M 169.226562 56.929688 " fill-opacity="1" fill-rule="nonzero"/><path fill="#000000" d="M 181.535156 56.929688 C 178.296875 56.929688 176.320312 58.90625 175.769531 61.171875 L 175.769531 57.089844 L 173.175781 57.089844 L 173.175781 73.9375 L 175.769531 73.9375 L 175.769531 64.089844 C 176.320312 61.140625 178.296875 59.261719 181.730469 59.261719 C 181.953125 59.261719 182.25 59.261719 182.734375 59.292969 L 182.734375 56.992188 C 182.25 56.929688 181.890625 56.929688 181.535156 56.929688 Z M 181.535156 56.929688 " fill-opacity="1" fill-rule="nonzero"/><path fill="#000000" d="M 192.484375 56.929688 C 188.789062 56.929688 184.675781 59.585938 184.675781 65.511719 C 184.675781 71.503906 188.789062 74.164062 192.484375 74.164062 C 196.175781 74.164062 200.320312 71.503906 200.320312 65.511719 C 200.320312 59.585938 196.175781 56.929688 192.484375 56.929688 Z M 197.792969 65.511719 C 197.792969 69.984375 195.203125 71.992188 192.484375 71.992188 C 189.761719 71.992188 187.171875 69.984375 187.171875 65.511719 C 187.171875 61.074219 189.761719 59.101562 192.484375 59.101562 C 195.203125 59.101562 197.792969 61.074219 197.792969 65.511719 Z M 197.792969 65.511719 " fill-opacity="1" fill-rule="nonzero"/><path fill="#000000" d="M 226.660156 57.089844 L 224.035156 57.089844 L 220.179688 70.730469 L 215.417969 57.089844 L 213.308594 57.089844 L 208.578125 70.730469 L 204.726562 57.089844 L 202.101562 57.089844 L 207.089844 73.9375 L 209.488281 73.9375 L 214.378906 60.265625 L 219.238281 73.9375 L 221.636719 73.9375 Z M 226.660156 57.089844 " fill-opacity="1" fill-rule="nonzero"/><path fill="#000000" d="M 250.007812 61.496094 C 252.308594 60.785156 253.476562 59.003906 253.476562 56.800781 C 253.476562 53.558594 251.335938 51.257812 246.609375 51.257812 L 238.089844 51.257812 L 238.089844 73.9375 L 246.738281 73.9375 C 252.308594 73.9375 254.902344 71.476562 254.902344 67.488281 C 254.902344 64.511719 253.152344 62.339844 250.007812 61.496094 Z M 240.777344 53.558594 L 246.671875 53.558594 C 249.523438 53.558594 250.691406 55.015625 250.691406 56.960938 C 250.691406 59.164062 249.234375 60.683594 246.769531 60.683594 L 240.777344 60.683594 Z M 246.738281 71.636719 L 240.777344 71.636719 L 240.777344 62.824219 L 246.609375 62.824219 C 250.367188 62.824219 252.050781 64.800781 252.050781 67.359375 C 252.050781 69.851562 250.5625 71.636719 246.738281 71.636719 Z M 246.738281 71.636719 " fill-opacity="1" fill-rule="nonzero"/><path fill="#000000" d="M 271.808594 71.019531 L 271.808594 63.34375 C 271.808594 58.679688 269.636719 56.929688 265.167969 56.929688 C 261.28125 56.929688 258.914062 58.417969 258.558594 61.429688 L 261.019531 61.429688 C 261.3125 59.8125 262.574219 58.90625 265.132812 58.90625 C 267.792969 58.90625 269.214844 59.8125 269.214844 62.726562 L 269.214844 62.957031 C 268.050781 63.570312 265.457031 63.894531 263.453125 64.1875 C 259.53125 64.800781 257.523438 66.160156 257.523438 69.140625 C 257.523438 72.476562 259.886719 74.164062 263.03125 74.164062 C 267.144531 74.164062 268.988281 71.378906 269.445312 70.46875 L 269.445312 71.667969 C 269.445312 73.417969 270.382812 74.066406 271.972656 74.066406 C 272.421875 74.066406 272.683594 74.03125 273.039062 73.871094 L 273.039062 72.285156 C 272.132812 72.316406 271.808594 71.925781 271.808594 71.019531 Z M 269.214844 68.558594 C 268.796875 69.433594 267.078125 72.222656 263.613281 72.222656 C 261.378906 72.222656 260.113281 70.957031 260.113281 69.078125 C 260.113281 67.296875 261.019531 66.324219 263.777344 65.871094 C 266.011719 65.480469 268.246094 65.125 269.214844 64.605469 Z M 269.214844 68.558594 " fill-opacity="1" fill-rule="nonzero"/><path fill="#000000" d="M 284.246094 56.929688 C 280.617188 56.929688 278.613281 59.777344 278.253906 61.007812 L 278.253906 57.089844 L 275.664062 57.089844 L 275.664062 73.9375 L 278.253906 73.9375 L 278.253906 63.503906 C 278.578125 61.917969 280.195312 59.128906 283.402344 59.128906 C 285.964844 59.128906 287.648438 60.296875 287.648438 63.828125 L 287.648438 73.9375 L 290.242188 73.9375 L 290.242188 63.730469 C 290.242188 58.613281 287.617188 56.929688 284.246094 56.929688 Z M 284.246094 56.929688 " fill-opacity="1" fill-rule="nonzero"/><path fill="#000000" d="M 306.175781 73.9375 L 309.125 73.9375 L 300.992188 64.378906 L 308.085938 57.089844 L 305.039062 57.089844 L 296.554688 65.902344 L 296.554688 51.066406 L 293.964844 51.066406 L 293.964844 73.9375 L 296.554688 73.9375 L 296.554688 68.945312 L 299.339844 66.066406 Z M 306.175781 73.9375 " fill-opacity="1" fill-rule="nonzero"/></svg>